<svg width="46" height="55" viewBox="0 0 46 55" fill="none" xmlns="http://www.w3.org/2000/svg">
<path d="M45 22V54H13V45" stroke="#203734" stroke-width="2"/>
<path d="M31.244 9.92666C31.1212 9.92666 31.0017 9.88683 30.9035 9.81315L29.5527 8.80288C29.4323 8.71256 29.3526 8.5781 29.3314 8.42909C29.3101 8.28007 29.3488 8.1287 29.4392 8.00828C29.5295 7.88786 29.6639 7.80824 29.813 7.78696C29.962 7.76567 30.1133 7.80445 30.2338 7.89477L31.5846 8.90504C31.6799 8.97651 31.7503 9.07616 31.7858 9.18986C31.8213 9.30357 31.8201 9.42556 31.7825 9.53857C31.7448 9.65158 31.6725 9.74988 31.5759 9.81953C31.4793 9.88918 31.3631 9.92666 31.244 9.92666Z" fill="#EE5B28"/>
<path d="M21 26.0229C20.8772 26.0229 20.7577 25.983 20.6595 25.9093L4.76756 14.0301C4.69707 13.9773 4.63986 13.9087 4.60045 13.8299C4.56105 13.7511 4.54053 13.6642 4.54053 13.5761C4.54053 13.488 4.56105 13.4011 4.60045 13.3223C4.63986 13.2435 4.69707 13.1749 4.76756 13.122L20.6595 1.24852C20.7577 1.17484 20.8772 1.13501 21 1.13501C21.1228 1.13501 21.2423 1.17484 21.3405 1.24852L22.5375 2.14528C22.5972 2.19 22.6474 2.24603 22.6854 2.31016C22.7233 2.3743 22.7483 2.44528 22.7589 2.51907C22.7694 2.59285 22.7653 2.66799 22.7468 2.74019C22.7283 2.8124 22.6958 2.88025 22.651 2.93987C22.6063 2.9995 22.5503 3.04974 22.4862 3.08771C22.422 3.12569 22.351 3.15066 22.2773 3.1612C22.1282 3.18249 21.9769 3.14371 21.8565 3.05339L21 2.41147L6.05594 13.5761L21 24.7458L35.9435 13.5767L34.0949 12.198C33.9745 12.1077 33.8949 11.9733 33.8736 11.8243C33.8523 11.6752 33.8911 11.5239 33.9814 11.4034C34.0717 11.283 34.2062 11.2034 34.3552 11.1821C34.5042 11.1608 34.6556 11.1996 34.776 11.2899L37.2336 13.1232C37.3041 13.176 37.3613 13.2446 37.4007 13.3234C37.4401 13.4022 37.4606 13.4891 37.4606 13.5772C37.4606 13.6653 37.4401 13.7522 37.4007 13.8311C37.3613 13.9099 37.3041 13.9784 37.2336 14.0313L21.3417 25.9105C21.243 25.984 21.1231 26.0234 21 26.0229Z" fill="#EE5B28"/>
<path d="M26.7092 6.53262C26.5863 6.53287 26.4668 6.49301 26.3686 6.41911L25.0462 5.43154C24.9258 5.34122 24.8462 5.20676 24.8249 5.05775C24.8036 4.90873 24.8424 4.75736 24.9327 4.63694C25.023 4.51652 25.1574 4.43691 25.3065 4.41562C25.4555 4.39433 25.6068 4.43311 25.7273 4.52343L27.0497 5.51043C27.145 5.5819 27.2154 5.68155 27.2509 5.79525C27.2864 5.90896 27.2853 6.03095 27.2476 6.14396C27.2099 6.25697 27.1377 6.35527 27.041 6.42492C26.9444 6.49457 26.8283 6.53205 26.7092 6.53205V6.53262Z" fill="#EE5B28"/>
<path d="M21 33.4428C20.8772 33.4425 20.7578 33.4027 20.6595 33.3293L4.76756 21.4541C4.69707 21.4012 4.63986 21.3326 4.60045 21.2538C4.56105 21.175 4.54053 21.0881 4.54053 21C4.54053 20.9119 4.56105 20.825 4.60045 20.7462C4.63986 20.6674 4.69707 20.5988 4.76756 20.546L9.73264 16.8352C9.85307 16.7449 10.0044 16.7061 10.1535 16.7274C10.3025 16.7487 10.4369 16.8283 10.5272 16.9487C10.6176 17.0691 10.6563 17.2205 10.635 17.3695C10.6138 17.5185 10.5341 17.653 10.4137 17.7433L6.05594 21L21 32.1663L35.9441 21L31.5874 17.7433C31.467 17.653 31.3874 17.5185 31.3661 17.3695C31.3448 17.2205 31.3836 17.0691 31.4739 16.9487C31.5642 16.8283 31.6987 16.7487 31.8477 16.7274C31.9967 16.7061 32.1481 16.7449 32.2685 16.8352L37.2324 20.546C37.3029 20.5988 37.3601 20.6674 37.3995 20.7462C37.4389 20.825 37.4595 20.9119 37.4595 21C37.4595 21.0881 37.4389 21.175 37.3995 21.2538C37.3601 21.3326 37.3029 21.4012 37.2324 21.4541L21.3405 33.3293C21.2422 33.4027 21.1228 33.4425 21 33.4428Z" fill="#EE5B28"/>
<path d="M21 40.8649C20.8772 40.8649 20.7577 40.8251 20.6595 40.7514L4.76756 28.8767C4.69707 28.8239 4.63986 28.7553 4.60045 28.6765C4.56105 28.5977 4.54053 28.5108 4.54053 28.4227C4.54053 28.3346 4.56105 28.2477 4.60045 28.1689C4.63986 28.0901 4.69707 28.0215 4.76756 27.9686L9.73264 24.2579C9.85307 24.1676 10.0044 24.1288 10.1535 24.1501C10.3025 24.1714 10.4369 24.251 10.5272 24.3714C10.6176 24.4918 10.6563 24.6432 10.635 24.7922C10.6138 24.9412 10.5341 25.0757 10.4137 25.166L6.05594 28.4221L21 39.5885L35.9441 28.4221L31.5874 25.1654C31.467 25.0751 31.3874 24.9407 31.3661 24.7916C31.3448 24.6426 31.3836 24.4913 31.4739 24.3708C31.5642 24.2504 31.6987 24.1708 31.8477 24.1495C31.9967 24.1282 32.1481 24.167 32.2685 24.2573L37.2324 27.9675C37.3029 28.0204 37.3601 28.0889 37.3995 28.1677C37.4389 28.2465 37.4595 28.3334 37.4595 28.4216C37.4595 28.5097 37.4389 28.5966 37.3995 28.6754C37.3601 28.7542 37.3029 28.8227 37.2324 28.8756L21.3405 40.7514C21.2423 40.8251 21.1228 40.8649 21 40.8649Z" fill="#EE5B28"/>
</svg>
