<svg width="69" height="84" viewBox="0 0 69 84" fill="none" xmlns="http://www.w3.org/2000/svg">
<ellipse cx="26" cy="65.0001" rx="19" ry="19.0001" fill="#00B7FF"/>
<path d="M46.967 35.0175C46.7362 35.0177 46.5143 34.9284 46.348 34.7684C46.1817 34.6084 46.0839 34.3901 46.0751 34.1595C46.0573 33.685 46.0475 33.2007 46.0475 32.7164C46.0492 32.3152 46.0299 31.9142 45.9895 31.515C45.9774 31.3985 45.9884 31.2807 46.0219 31.1684C46.0553 31.0562 46.1106 30.9516 46.1844 30.8606C46.2583 30.7697 46.3494 30.6942 46.4524 30.6385C46.5555 30.5827 46.6685 30.5478 46.7851 30.5357C46.9016 30.5237 47.0194 30.5347 47.1317 30.5681C47.2439 30.6016 47.3485 30.6568 47.4395 30.7307C47.5304 30.8046 47.6059 30.8957 47.6617 30.9987C47.7174 31.1018 47.7523 31.2148 47.7644 31.3313C47.8104 31.7916 47.8327 32.2539 47.8313 32.7164C47.8313 33.1775 47.8402 33.6386 47.8571 34.0908C47.8663 34.3271 47.7812 34.5574 47.6207 34.731C47.4601 34.9046 47.2372 35.0073 47.0009 35.0166L46.967 35.0175Z" fill="#203734"/>
<path d="M55.9662 60.9805H10.0338C9.87137 60.9805 9.71204 60.936 9.573 60.852C9.43397 60.7681 9.32051 60.6477 9.24487 60.5039C9.16923 60.3602 9.13429 60.1985 9.14381 60.0364C9.15333 59.8742 9.20695 59.7177 9.29888 59.5838L10.2978 58.1291C15.4333 50.6503 18.1777 41.7888 18.1679 32.7165C18.163 30.7681 18.5447 28.8381 19.2907 27.0382C20.0367 25.2383 21.1323 23.6042 22.514 22.2305C23.8899 20.8513 25.5243 19.7571 27.3236 19.0106C29.123 18.264 31.0519 17.8797 33 17.8797C34.9481 17.8797 36.8771 18.264 38.6764 19.0106C40.4757 19.7571 42.1101 20.8513 43.486 22.2305C44.332 23.0741 45.0718 24.0179 45.689 25.0409C45.7496 25.1412 45.7899 25.2526 45.8076 25.3685C45.8252 25.4845 45.8199 25.6028 45.7918 25.7166C45.7637 25.8305 45.7135 25.9378 45.644 26.0322C45.5744 26.1267 45.487 26.2065 45.3866 26.2672C45.2862 26.3279 45.1749 26.3682 45.0589 26.3858C44.943 26.4035 44.8247 26.3981 44.7108 26.37C44.5969 26.3419 44.4897 26.2917 44.3952 26.2222C44.3008 26.1527 44.2209 26.0652 44.1603 25.9649C43.6182 25.0658 42.9682 24.2365 42.2249 23.4952C41.0146 22.2816 39.5769 21.3188 37.9939 20.6618C36.4109 20.0048 34.7139 19.6667 33 19.6667C31.2861 19.6667 29.5891 20.0048 28.0061 20.6618C26.4232 21.3188 24.9854 22.2816 23.7752 23.4952C22.5601 24.7033 21.5966 26.1403 20.9403 27.7231C20.284 29.3059 19.948 31.003 19.9516 32.7165C19.9643 42.1503 17.1123 51.3657 11.773 59.1432L11.7329 59.2012H54.2761L54.2369 59.1441C52.1572 56.1074 50.4445 52.8352 49.1343 49.3957C49.0927 49.2862 49.073 49.1696 49.0765 49.0525C49.0799 48.9354 49.1064 48.8201 49.1544 48.7132C49.2024 48.6063 49.271 48.5099 49.3562 48.4296C49.4414 48.3492 49.5417 48.2864 49.6512 48.2448C49.7607 48.2031 49.8774 48.1835 49.9945 48.1869C50.1116 48.1903 50.2269 48.2168 50.3337 48.2648C50.4406 48.3128 50.537 48.3814 50.6174 48.4666C50.6978 48.5519 50.7605 48.6521 50.8022 48.7616C52.0619 52.0687 53.7085 55.2152 55.7076 58.1354L56.7056 59.5883C56.7976 59.7222 56.8512 59.8787 56.8607 60.0408C56.8702 60.203 56.8353 60.3647 56.7596 60.5084C56.684 60.6522 56.5705 60.7725 56.4315 60.8565C56.2925 60.9405 56.1331 60.9849 55.9707 60.985L55.9662 60.9805Z" fill="#203734"/>
<path d="M48.1345 43.99C47.9344 43.9892 47.7403 43.9211 47.5836 43.7967C47.4268 43.6723 47.3165 43.4988 47.2702 43.3041C47.0455 42.356 46.8689 41.4811 46.7351 40.6285C46.7139 40.5118 46.7161 40.392 46.7417 40.2762C46.7674 40.1604 46.8158 40.0508 46.8843 39.954C46.9527 39.8571 47.0398 39.7749 47.1405 39.7121C47.2411 39.6493 47.3532 39.6072 47.4703 39.5883C47.5874 39.5694 47.7071 39.574 47.8224 39.6019C47.9377 39.6298 48.0462 39.6804 48.1417 39.7508C48.2372 39.8212 48.3177 39.9099 48.3785 40.0117C48.4392 40.1136 48.4791 40.2265 48.4957 40.3439C48.6268 41.1538 48.7954 41.9877 49.0094 42.893C49.063 43.1226 49.0235 43.3641 48.8995 43.5647C48.7755 43.7653 48.5771 43.9086 48.3477 43.9632C48.2779 43.9805 48.2064 43.9895 48.1345 43.99Z" fill="#203734"/>
<path d="M36.9359 20.2353C36.6994 20.2353 36.4725 20.1414 36.3052 19.9741C36.138 19.8068 36.044 19.58 36.044 19.3434V16.6116C36.044 15.8042 35.7233 15.03 35.1524 14.4591C34.5816 13.8882 33.8073 13.5675 33 13.5675C32.1927 13.5675 31.4184 13.8882 30.8475 14.4591C30.2767 15.03 29.956 15.8042 29.956 16.6116V19.3434C29.956 19.58 29.862 19.8068 29.6947 19.9741C29.5275 20.1414 29.3006 20.2353 29.0641 20.2353C28.8275 20.2353 28.6007 20.1414 28.4334 19.9741C28.2661 19.8068 28.1722 19.58 28.1722 19.3434V16.6116C28.1722 15.3311 28.6808 14.1032 29.5862 13.1978C30.4916 12.2924 31.7196 11.7838 33 11.7838C34.2804 11.7838 35.5084 12.2924 36.4138 13.1978C37.3192 14.1032 37.8278 15.3311 37.8278 16.6116V19.3434C37.8278 19.58 37.7338 19.8068 37.5666 19.9741C37.3993 20.1414 37.1725 20.2353 36.9359 20.2353Z" fill="#203734"/>
<path d="M56.603 66.8777H9.39695C8.37874 66.8777 7.40224 66.4732 6.68226 65.7533C5.96228 65.0333 5.5578 64.0568 5.5578 63.0386C5.5578 62.0203 5.96228 61.0438 6.68226 60.3239C7.40224 59.6039 8.37874 59.1994 9.39695 59.1994H56.603C57.6212 59.1994 58.5977 59.6039 59.3177 60.3239C60.0377 61.0438 60.4422 62.0203 60.4422 63.0386C60.4422 64.0568 60.0377 65.0333 59.3177 65.7533C58.5977 66.4732 57.6212 66.8777 56.603 66.8777ZM9.39695 60.9832C8.85183 60.9832 8.32904 61.1997 7.94359 61.5852C7.55813 61.9706 7.34158 62.4934 7.34158 63.0386C7.34158 63.5837 7.55813 64.1065 7.94359 64.4919C8.32904 64.8774 8.85183 65.0939 9.39695 65.0939H56.603C57.1481 65.0939 57.6709 64.8774 58.0564 64.4919C58.4418 64.1065 58.6584 63.5837 58.6584 63.0386C58.6584 62.4934 58.4418 61.9706 58.0564 61.5852C57.6709 61.1997 57.1481 60.9832 56.603 60.9832H9.39695Z" fill="#203734"/>
<path d="M33 74.2161C30.8179 74.2135 28.726 73.3456 27.1831 71.8026C25.6401 70.2597 24.7722 68.1678 24.7696 65.9858C24.7696 65.7492 24.8636 65.5224 25.0308 65.3551C25.1981 65.1878 25.4249 65.0939 25.6615 65.0939C25.898 65.0939 26.1249 65.1878 26.2921 65.3551C26.4594 65.5224 26.5534 65.7492 26.5534 65.9858C26.5534 67.6955 27.2326 69.3352 28.4415 70.5442C29.6505 71.7532 31.2902 72.4323 33 72.4323C34.7097 72.4323 36.3494 71.7532 37.5584 70.5442C38.7674 69.3352 39.4466 67.6955 39.4466 65.9858C39.4466 65.7492 39.5405 65.5224 39.7078 65.3551C39.875 65.1878 40.1019 65.0939 40.3385 65.0939C40.575 65.0939 40.8019 65.1878 40.9691 65.3551C41.1364 65.5224 41.2303 65.7492 41.2303 65.9858C41.2277 68.1678 40.3598 70.2597 38.8169 71.8026C37.2739 73.3456 35.182 74.2135 33 74.2161Z" fill="#203734"/>
<g clip-path="url(#clip0_51_228)">
<path fill-rule="evenodd" clip-rule="evenodd" d="M53.1774 4.35151C53.0022 4.45504 52.7592 4.51586 52.6627 4.66914C52.0286 5.67637 51.3921 6.68469 50.8211 7.72831C49.8852 9.43888 48.9889 11.1716 48.1043 12.9097C47.9999 13.1148 48.0744 13.4111 48.0661 13.6652C48.265 13.645 48.4642 13.6249 48.7506 13.5959C49.263 12.7071 49.7689 11.846 50.2586 10.976C51.1522 9.38898 52.0482 7.80273 52.9161 6.2017C53.1337 5.8003 53.2834 5.35176 53.3919 4.90734C53.4306 4.74892 53.2552 4.53836 53.1774 4.35151Z" fill="#203734"/>
<path fill-rule="evenodd" clip-rule="evenodd" d="M65.7031 18.1716C65.8549 18.0545 66.0296 17.7126 65.9728 17.6306C65.8646 17.4746 65.5437 17.3015 65.4049 17.3645C64.7167 17.6775 64.0251 18.0129 63.398 18.4374C61.9941 19.3879 60.6281 20.3963 59.2461 21.3802C58.1717 22.1453 57.0877 22.8971 56.0305 23.6859C55.8644 23.8099 55.8186 24.0987 55.7172 24.3113C55.9665 24.2881 56.2594 24.3444 56.4576 24.2285C57.5582 23.5852 58.6358 22.9 59.7211 22.229C59.7016 22.196 59.6822 22.1632 59.6627 22.1304C61.2751 21.0683 62.8862 20.0045 64.5004 18.9453C64.8993 18.6836 65.327 18.4621 65.7031 18.1716Z" fill="#203734"/>
<path fill-rule="evenodd" clip-rule="evenodd" d="M60.8378 11.0081C60.9435 10.9102 61.0573 10.654 61.008 10.5879C60.9021 10.4454 60.6696 10.278 60.5302 10.3025C60.2037 10.3597 59.8236 10.4424 59.6027 10.6585C58.5855 11.6543 57.6224 12.7065 56.6255 13.7239C55.8608 14.5041 55.0643 15.2527 54.3011 16.0345C53.8524 16.4942 53.4349 16.9861 53.0146 17.4735C52.6106 17.9421 52.221 18.4241 51.8247 18.8999C51.8066 18.9216 51.7723 18.9365 51.7671 18.9607C51.6769 19.3626 51.5902 19.7653 51.5027 20.1677C51.8492 20.0343 52.2921 19.9955 52.5258 19.7506C53.5222 18.7063 54.4366 17.5819 55.4185 16.5226C56.8496 14.9788 58.3128 13.4659 59.9041 11.7905C60.1141 11.6175 60.4909 11.3294 60.8378 11.0081Z" fill="#203734"/>
</g>
<defs>
<clipPath id="clip0_51_228">
<rect width="21.6811" height="17.8267" fill="white" transform="translate(59.1327 0.94397) rotate(65.5738)"/>
</clipPath>
</defs>
</svg>
