<svg width="46" height="55" viewBox="0 0 46 55" fill="none" xmlns="http://www.w3.org/2000/svg">
<path d="M45 22V54H13V45" stroke="#203734" stroke-width="2"/>
<path d="M25.0808 5.01722H23.3951C23.2446 5.01722 23.1002 4.95742 22.9938 4.85098C22.8874 4.74454 22.8276 4.60018 22.8276 4.44965C22.8276 4.29912 22.8874 4.15476 22.9938 4.04832C23.1002 3.94188 23.2446 3.88208 23.3951 3.88208H25.0808C25.2313 3.88208 25.3757 3.94188 25.4821 4.04832C25.5886 4.15476 25.6484 4.29912 25.6484 4.44965C25.6484 4.60018 25.5886 4.74454 25.4821 4.85098C25.3757 4.95742 25.2313 5.01722 25.0808 5.01722Z" fill="#EE5B28"/>
<path d="M39.1678 15.8124H2.83216C2.38057 15.8124 1.94748 15.633 1.62817 15.3136C1.30885 14.9943 1.12946 14.5612 1.12946 14.1096V5.58478C1.12946 5.1332 1.30885 4.70011 1.62817 4.38079C1.94748 4.06147 2.38057 3.88208 2.83216 3.88208H13.8032C13.9538 3.88208 14.0981 3.94188 14.2046 4.04832C14.311 4.15476 14.3708 4.29912 14.3708 4.44965C14.3708 4.60018 14.311 4.74454 14.2046 4.85098C14.0981 4.95742 13.9538 5.01722 13.8032 5.01722H2.83216C2.68163 5.01722 2.53727 5.07701 2.43083 5.18345C2.32439 5.28989 2.26459 5.43425 2.26459 5.58478V14.1096C2.26459 14.2602 2.32439 14.4045 2.43083 14.511C2.53727 14.6174 2.68163 14.6772 2.83216 14.6772H39.1678C39.3184 14.6772 39.4627 14.6174 39.5692 14.511C39.6756 14.4045 39.7354 14.2602 39.7354 14.1096V5.58478C39.7354 5.43425 39.6756 5.28989 39.5692 5.18345C39.4627 5.07701 39.3184 5.01722 39.1678 5.01722H29.0538C28.9033 5.01722 28.7589 4.95742 28.6525 4.85098C28.546 4.74454 28.4862 4.60018 28.4862 4.44965C28.4862 4.29912 28.546 4.15476 28.6525 4.04832C28.7589 3.94188 28.9033 3.88208 29.0538 3.88208H39.1678C39.6194 3.88208 40.0525 4.06147 40.3718 4.38079C40.6911 4.70011 40.8705 5.1332 40.8705 5.58478V14.1096C40.8705 14.5612 40.6911 14.9943 40.3718 15.3136C40.0525 15.633 39.6194 15.8124 39.1678 15.8124Z" fill="#EE5B28"/>
<path d="M19.4222 5.01722H17.7762C17.6257 5.01722 17.4813 4.95742 17.3749 4.85098C17.2684 4.74454 17.2086 4.60018 17.2086 4.44965C17.2086 4.29912 17.2684 4.15476 17.3749 4.04832C17.4813 3.94188 17.6257 3.88208 17.7762 3.88208H19.4222C19.5727 3.88208 19.7171 3.94188 19.8235 4.04832C19.9299 4.15476 19.9897 4.29912 19.9897 4.44965C19.9897 4.60018 19.9299 4.74454 19.8235 4.85098C19.7171 4.95742 19.5727 5.01722 19.4222 5.01722Z" fill="#EE5B28"/>
<path d="M34.6267 12.5869C34.0846 12.587 33.5547 12.4264 33.1039 12.1253C32.6531 11.8242 32.3017 11.3962 32.0942 10.8954C31.8866 10.3946 31.8323 9.84348 31.938 9.31178C32.0437 8.78008 32.3047 8.29167 32.6879 7.90831C33.0712 7.52494 33.5596 7.26385 34.0913 7.15805C34.6229 7.05225 35.174 7.1065 35.6749 7.31392C36.1757 7.52135 36.6038 7.87264 36.905 8.32338C37.2062 8.77411 37.3669 9.30403 37.3669 9.84613C37.3662 10.5727 37.0773 11.2693 36.5636 11.7831C36.0499 12.2969 35.3533 12.586 34.6267 12.5869ZM34.6267 8.24048C34.3091 8.24037 33.9986 8.33444 33.7345 8.51081C33.4704 8.68717 33.2645 8.9379 33.1429 9.23128C33.0213 9.52467 32.9894 9.84753 33.0513 10.159C33.1132 10.4705 33.2661 10.7567 33.4906 10.9813C33.7151 11.2059 34.0012 11.3589 34.3127 11.4209C34.6242 11.4829 34.9471 11.4511 35.2405 11.3296C35.5339 11.2081 35.7847 11.0023 35.9612 10.7382C36.1376 10.4742 36.2318 10.1637 36.2318 9.84613C36.2314 9.42052 36.0621 9.01247 35.7612 8.71146C35.4603 8.41046 35.0523 8.24108 34.6267 8.24048Z" fill="#EE5B28"/>
<path d="M27.3454 12.5869C26.8033 12.5869 26.2734 12.4262 25.8227 12.125C25.372 11.8238 25.0207 11.3958 24.8133 10.895C24.6058 10.3942 24.5515 9.84309 24.6573 9.31143C24.763 8.77977 25.0241 8.29141 25.4074 7.9081C25.7907 7.5248 26.279 7.26376 26.8107 7.15801C27.3424 7.05226 27.8934 7.10653 28.3943 7.31398C28.8951 7.52142 29.3231 7.87271 29.6243 8.32343C29.9254 8.77415 30.0862 9.30406 30.0862 9.84613C30.0854 10.5728 29.7964 11.2695 29.2826 11.7833C28.7688 12.2972 28.0721 12.5862 27.3454 12.5869ZM27.3454 8.24048C27.0278 8.24048 26.7174 8.33465 26.4534 8.51108C26.1893 8.68751 25.9835 8.93828 25.862 9.23168C25.7405 9.52507 25.7087 9.84791 25.7706 10.1594C25.8326 10.4708 25.9855 10.7569 26.21 10.9815C26.4346 11.2061 26.7207 11.359 27.0322 11.4209C27.3436 11.4829 27.6665 11.4511 27.9599 11.3296C28.2533 11.208 28.504 11.0022 28.6805 10.7382C28.8569 10.4741 28.9511 10.1637 28.9511 9.84613C28.9506 9.42043 28.7813 9.01228 28.4803 8.71126C28.1793 8.41024 27.7711 8.24093 27.3454 8.24048Z" fill="#EE5B28"/>
<path d="M21.9484 10.4136H5.20062C5.0501 10.4136 4.90573 10.3538 4.79929 10.2473C4.69285 10.1409 4.63306 9.99654 4.63306 9.84601C4.63306 9.69548 4.69285 9.55112 4.79929 9.44468C4.90573 9.33824 5.0501 9.27844 5.20062 9.27844H21.9484C22.0989 9.27844 22.2433 9.33824 22.3497 9.44468C22.4562 9.55112 22.516 9.69548 22.516 9.84601C22.516 9.99654 22.4562 10.1409 22.3497 10.2473C22.2433 10.3538 22.0989 10.4136 21.9484 10.4136Z" fill="#EE5B28"/>
<path d="M39.1673 30.2882H2.83272C2.38113 30.2882 1.94804 30.1088 1.62872 29.7895C1.3094 29.4702 1.13001 29.0371 1.13001 28.5855V20.0623C1.13001 19.6107 1.3094 19.1776 1.62872 18.8583C1.94804 18.539 2.38113 18.3596 2.83272 18.3596H39.1673C39.6188 18.3596 40.0519 18.539 40.3713 18.8583C40.6906 19.1776 40.87 19.6107 40.87 20.0623V28.5855C40.87 29.0371 40.6906 29.4702 40.3713 29.7895C40.0519 30.1088 39.6188 30.2882 39.1673 30.2882ZM2.83272 19.4948C2.68219 19.4948 2.53782 19.5546 2.43138 19.661C2.32494 19.7674 2.26515 19.9118 2.26515 20.0623V28.5855C2.26515 28.736 2.32494 28.8804 2.43138 28.9868C2.53782 29.0933 2.68219 29.1531 2.83272 29.1531H39.1673C39.3178 29.1531 39.4622 29.0933 39.5686 28.9868C39.675 28.8804 39.7348 28.736 39.7348 28.5855V20.0623C39.7348 19.9118 39.675 19.7674 39.5686 19.661C39.4622 19.5546 39.3178 19.4948 39.1673 19.4948H2.83272Z" fill="#EE5B28"/>
<path d="M34.6267 27.0651C34.0846 27.0652 33.5547 26.9045 33.1039 26.6035C32.6532 26.3024 32.3018 25.8744 32.0942 25.3737C31.8867 24.8729 31.8323 24.3218 31.9379 23.7901C32.0436 23.2585 32.3045 22.77 32.6877 22.3867C33.071 22.0033 33.5593 21.7421 34.0909 21.6363C34.6225 21.5304 35.1736 21.5846 35.6745 21.7919C36.1753 21.9992 36.6035 22.3505 36.9047 22.8011C37.206 23.2518 37.3668 23.7816 37.3669 24.3237C37.3662 25.0503 37.0773 25.747 36.5636 26.2609C36.0499 26.7748 35.3533 27.064 34.6267 27.0651ZM34.6267 22.7186C34.3091 22.7185 33.9986 22.8126 33.7345 22.989C33.4703 23.1654 33.2644 23.4161 33.1428 23.7096C33.0212 24.003 32.9894 24.3259 33.0513 24.6374C33.1133 24.9489 33.2662 25.2351 33.4908 25.4596C33.7154 25.6842 34.0015 25.8372 34.3131 25.8991C34.6246 25.961 34.9475 25.9292 35.2409 25.8076C35.5343 25.686 35.7851 25.4801 35.9614 25.216C36.1378 24.9518 36.2319 24.6413 36.2318 24.3237C36.2312 23.8982 36.0619 23.4903 35.761 23.1894C35.4601 22.8885 35.0522 22.7192 34.6267 22.7186Z" fill="#EE5B28"/>
<path d="M27.3454 27.0651C26.8034 27.0651 26.2735 26.9043 25.8228 26.6032C25.3721 26.3021 25.0208 25.874 24.8133 25.3733C24.6058 24.8725 24.5515 24.3214 24.6572 23.7898C24.763 23.2581 25.0239 22.7698 25.4072 22.3865C25.7904 22.0031 26.2787 21.742 26.8104 21.6362C27.342 21.5304 27.893 21.5846 28.3939 21.792C28.8947 21.9993 29.3228 22.3505 29.624 22.8012C29.9252 23.2518 30.0861 23.7817 30.0862 24.3237C30.0854 25.0504 29.7965 25.7472 29.2826 26.2611C28.7688 26.775 28.0721 27.0642 27.3454 27.0651ZM27.3454 22.7186C27.0278 22.7186 26.7174 22.8128 26.4533 22.9893C26.1892 23.1657 25.9834 23.4165 25.8619 23.71C25.7404 24.0034 25.7087 24.3263 25.7707 24.6377C25.8327 24.9492 25.9856 25.2353 26.2102 25.4598C26.4349 25.6844 26.721 25.8373 27.0325 25.8991C27.344 25.961 27.6669 25.9292 27.9603 25.8075C28.2536 25.6859 28.5044 25.48 28.6807 25.2159C28.8571 24.9518 28.9512 24.6413 28.9511 24.3237C28.9505 23.8981 28.7811 23.4901 28.4801 23.1892C28.1791 22.8883 27.771 22.7191 27.3454 22.7186Z" fill="#EE5B28"/>
<path d="M21.9484 24.8914H5.20062C5.0501 24.8914 4.90573 24.8316 4.79929 24.7251C4.69285 24.6187 4.63306 24.4743 4.63306 24.3238C4.63306 24.1733 4.69285 24.0289 4.79929 23.9225C4.90573 23.816 5.0501 23.7562 5.20062 23.7562H21.9484C22.0989 23.7562 22.2433 23.816 22.3497 23.9225C22.4562 24.0289 22.516 24.1733 22.516 24.3238C22.516 24.4743 22.4562 24.6187 22.3497 24.7251C22.2433 24.8316 22.0989 24.8914 21.9484 24.8914Z" fill="#EE5B28"/>
<path d="M21.0051 19.495C20.8546 19.495 20.7102 19.4352 20.6038 19.3287C20.4973 19.2223 20.4375 19.0779 20.4375 18.9274V15.2331C20.4375 15.0826 20.4973 14.9382 20.6038 14.8318C20.7102 14.7253 20.8546 14.6655 21.0051 14.6655C21.1556 14.6655 21.3 14.7253 21.4064 14.8318C21.5129 14.9382 21.5727 15.0826 21.5727 15.2331V18.9274C21.5727 19.0779 21.5129 19.2223 21.4064 19.3287C21.3 19.4352 21.1556 19.495 21.0051 19.495Z" fill="#EE5B28"/>
<path d="M21.0057 34.2856C20.8551 34.2856 20.7108 34.2258 20.6043 34.1194C20.4979 34.0129 20.4381 33.8686 20.4381 33.718V29.7224C20.4381 29.5718 20.4979 29.4275 20.6043 29.321C20.7108 29.2146 20.8551 29.1548 21.0057 29.1548C21.1562 29.1548 21.3006 29.2146 21.407 29.321C21.5134 29.4275 21.5732 29.5718 21.5732 29.7224V33.718C21.5732 33.8686 21.5134 34.0129 21.407 34.1194C21.3006 34.2258 21.1562 34.2856 21.0057 34.2856Z" fill="#EE5B28"/>
<path d="M24.6892 38.1185H17.3108C17.1603 38.1185 17.0159 38.0586 16.9095 37.9522C16.803 37.8458 16.7432 37.7014 16.7432 37.5509V33.7198C16.7432 33.5693 16.803 33.4249 16.9095 33.3185C17.0159 33.212 17.1603 33.1522 17.3108 33.1522H24.6892C24.8397 33.1522 24.9841 33.212 25.0905 33.3185C25.1969 33.4249 25.2567 33.5693 25.2567 33.7198V37.5509C25.2567 37.7014 25.1969 37.8458 25.0905 37.9522C24.9841 38.0586 24.8397 38.1185 24.6892 38.1185ZM17.8784 36.9833H24.1216V34.2874H17.8784V36.9833Z" fill="#EE5B28"/>
<path d="M30.0868 36.203H24.6892C24.5387 36.203 24.3943 36.1432 24.2879 36.0368C24.1814 35.9303 24.1216 35.786 24.1216 35.6354C24.1216 35.4849 24.1814 35.3405 24.2879 35.2341C24.3943 35.1277 24.5387 35.0679 24.6892 35.0679H30.0868C30.2373 35.0679 30.3816 35.1277 30.4881 35.2341C30.5945 35.3405 30.6543 35.4849 30.6543 35.6354C30.6543 35.786 30.5945 35.9303 30.4881 36.0368C30.3816 36.1432 30.2373 36.203 30.0868 36.203Z" fill="#EE5B28"/>
<path d="M17.3108 36.203H11.9132C11.7627 36.203 11.6183 36.1432 11.5119 36.0368C11.4055 35.9303 11.3457 35.786 11.3457 35.6354C11.3457 35.4849 11.4055 35.3405 11.5119 35.2341C11.6183 35.1277 11.7627 35.0679 11.9132 35.0679H17.3108C17.4613 35.0679 17.6057 35.1277 17.7121 35.2341C17.8186 35.3405 17.8784 35.4849 17.8784 35.6354C17.8784 35.786 17.8186 35.9303 17.7121 36.0368C17.6057 36.1432 17.4613 36.203 17.3108 36.203Z" fill="#EE5B28"/>
</svg>
