<svg width="74" height="84" viewBox="0 0 74 84" fill="none" xmlns="http://www.w3.org/2000/svg">
<ellipse cx="26" cy="65.0001" rx="19" ry="18.9999" fill="#6C00DB"/>
<path d="M49.0977 25.5991C48.9047 25.5991 48.717 25.5366 48.5626 25.4208L46.4399 23.8332C46.2507 23.6913 46.1255 23.48 46.0921 23.2458C46.0586 23.0116 46.1196 22.7738 46.2615 22.5845C46.4034 22.3953 46.6147 22.2702 46.8489 22.2368C47.0831 22.2033 47.3209 22.2642 47.5102 22.4062L49.6329 23.9937C49.7826 24.106 49.8932 24.2626 49.9491 24.4413C50.0049 24.62 50.003 24.8117 49.9439 24.9893C49.8847 25.1669 49.7711 25.3213 49.6192 25.4308C49.4674 25.5402 49.2849 25.5991 49.0977 25.5991Z" fill="#203734"/>
<path d="M33 50.8932C32.807 50.8932 32.6192 50.8306 32.4649 50.7148L7.49189 32.0475C7.38112 31.9645 7.29121 31.8567 7.22929 31.7329C7.16737 31.609 7.13513 31.4725 7.13513 31.334C7.13513 31.1956 7.16737 31.059 7.22929 30.9352C7.29121 30.8113 7.38112 30.7036 7.49189 30.6205L32.4649 11.9621C32.6192 11.8463 32.807 11.7838 33 11.7838C33.193 11.7838 33.3807 11.8463 33.5351 11.9621L35.4161 13.3713C35.5098 13.4416 35.5888 13.5296 35.6484 13.6304C35.7081 13.7312 35.7474 13.8428 35.7639 13.9587C35.7805 14.0746 35.774 14.1927 35.745 14.3062C35.7159 14.4196 35.6648 14.5263 35.5945 14.62C35.5242 14.7137 35.4362 14.7926 35.3354 14.8523C35.2346 14.912 35.1231 14.9512 35.0071 14.9678C34.773 15.0012 34.5351 14.9403 34.3459 14.7983L33 13.7896L9.51648 31.334L33 48.8865L56.4826 31.3349L53.5777 29.1685C53.3885 29.0266 53.2634 28.8153 53.2299 28.5811C53.1965 28.347 53.2574 28.1091 53.3993 27.9199C53.5413 27.7306 53.7526 27.6055 53.9867 27.5721C54.2209 27.5386 54.4588 27.5996 54.648 27.7415L58.5099 30.6223C58.6206 30.7054 58.7106 30.8131 58.7725 30.9369C58.8344 31.0608 58.8666 31.1973 58.8666 31.3358C58.8666 31.4743 58.8344 31.6108 58.7725 31.7347C58.7106 31.8585 58.6206 31.9662 58.5099 32.0493L33.5369 50.7166C33.3818 50.8321 33.1934 50.8941 33 50.8932Z" fill="#203734"/>
<path d="M41.9715 20.2656C41.7785 20.266 41.5906 20.2034 41.4364 20.0872L39.3583 18.5353C39.1691 18.3934 39.0439 18.1821 39.0105 17.948C38.977 17.7138 39.038 17.4759 39.1799 17.2867C39.3218 17.0975 39.5331 16.9724 39.7673 16.9389C40.0015 16.9054 40.2393 16.9664 40.4286 17.1083L42.5067 18.6593C42.6564 18.7716 42.767 18.9282 42.8229 19.1069C42.8787 19.2856 42.8769 19.4773 42.8177 19.6549C42.7585 19.8325 42.6449 19.9869 42.493 20.0964C42.3412 20.2058 42.1587 20.2647 41.9715 20.2647V20.2656Z" fill="#203734"/>
<path d="M33 62.5529C32.8071 62.5525 32.6194 62.4899 32.4649 62.3745L7.49189 43.7135C7.38112 43.6304 7.29121 43.5226 7.22929 43.3988C7.16737 43.275 7.13513 43.1384 7.13513 42.9999C7.13513 42.8615 7.16737 42.7249 7.22929 42.6011C7.29121 42.4772 7.38112 42.3695 7.49189 42.2864L15.2942 36.4552C15.4834 36.3133 15.7213 36.2524 15.9554 36.2858C16.1896 36.3193 16.4009 36.4444 16.5428 36.6336C16.6847 36.8229 16.7457 37.0607 16.7122 37.2949C16.6788 37.5291 16.5537 37.7403 16.3644 37.8823L9.51648 42.9999L33 60.547L56.4835 42.9999L49.6373 37.8823C49.4481 37.7403 49.323 37.5291 49.2896 37.2949C49.2561 37.0607 49.317 36.8229 49.459 36.6336C49.6009 36.4444 49.8122 36.3193 50.0463 36.2858C50.2805 36.2524 50.5184 36.3133 50.7076 36.4552L58.5081 42.2864C58.6189 42.3695 58.7088 42.4772 58.7707 42.6011C58.8326 42.7249 58.8649 42.8615 58.8649 42.9999C58.8649 43.1384 58.8326 43.275 58.7707 43.3988C58.7088 43.5226 58.6189 43.6304 58.5081 43.7135L33.5351 62.3745C33.3806 62.4899 33.1929 62.5525 33 62.5529Z" fill="#203734"/>
<path d="M33 74.2162C32.807 74.2162 32.6192 74.1536 32.4649 74.0378L7.49189 55.3777C7.38112 55.2946 7.29121 55.1869 7.22929 55.063C7.16737 54.9392 7.13513 54.8026 7.13513 54.6642C7.13513 54.5257 7.16737 54.3891 7.22929 54.2653C7.29121 54.1415 7.38112 54.0337 7.49189 53.9506L15.2942 48.1195C15.4834 47.9775 15.7213 47.9166 15.9554 47.95C16.1896 47.9835 16.4009 48.1086 16.5428 48.2978C16.6847 48.4871 16.7457 48.7249 16.7122 48.9591C16.6788 49.1933 16.5537 49.4046 16.3644 49.5465L9.51648 54.6633L33 72.2103L56.4835 54.6633L49.6373 49.5456C49.4481 49.4037 49.323 49.1924 49.2896 48.9582C49.2561 48.724 49.317 48.4862 49.459 48.2969C49.6009 48.1077 49.8122 47.9826 50.0463 47.9492C50.2805 47.9157 50.5184 47.9766 50.7076 48.1186L58.5081 53.9489C58.6189 54.0319 58.7088 54.1397 58.7707 54.2635C58.8326 54.3874 58.8649 54.5239 58.8649 54.6624C58.8649 54.8008 58.8326 54.9374 58.7707 55.0612C58.7088 55.1851 58.6189 55.2928 58.5081 55.3759L33.5351 74.0378C33.3807 74.1536 33.193 74.2162 33 74.2162Z" fill="#203734"/>
<g clip-path="url(#clip0_51_244)">
<path fill-rule="evenodd" clip-rule="evenodd" d="M58.1774 4.35151C58.0022 4.45504 57.7592 4.51586 57.6627 4.66914C57.0286 5.67637 56.3921 6.68469 55.8211 7.72831C54.8852 9.43888 53.9889 11.1716 53.1043 12.9097C52.9999 13.1148 53.0744 13.4111 53.0661 13.6652C53.265 13.645 53.4642 13.6249 53.7506 13.5959C54.263 12.7071 54.7689 11.846 55.2586 10.976C56.1522 9.38898 57.0482 7.80273 57.9161 6.2017C58.1337 5.8003 58.2834 5.35176 58.3919 4.90734C58.4306 4.74892 58.2552 4.53836 58.1774 4.35151Z" fill="#203734"/>
<path fill-rule="evenodd" clip-rule="evenodd" d="M70.7031 18.1716C70.8549 18.0545 71.0296 17.7126 70.9728 17.6306C70.8646 17.4746 70.5437 17.3015 70.4049 17.3645C69.7167 17.6775 69.0251 18.0129 68.398 18.4374C66.9941 19.3879 65.6281 20.3963 64.2461 21.3802C63.1717 22.1453 62.0877 22.8971 61.0305 23.6859C60.8644 23.8099 60.8186 24.0987 60.7172 24.3113C60.9665 24.2881 61.2594 24.3444 61.4576 24.2285C62.5582 23.5852 63.6358 22.9 64.7211 22.229C64.7016 22.196 64.6822 22.1632 64.6627 22.1304C66.2751 21.0683 67.8862 20.0045 69.5004 18.9453C69.8993 18.6836 70.327 18.4621 70.7031 18.1716Z" fill="#203734"/>
<path fill-rule="evenodd" clip-rule="evenodd" d="M65.8378 11.0081C65.9435 10.9102 66.0573 10.654 66.008 10.5879C65.9021 10.4454 65.6696 10.278 65.5302 10.3025C65.2037 10.3597 64.8236 10.4424 64.6027 10.6585C63.5855 11.6543 62.6224 12.7065 61.6255 13.7239C60.8608 14.5041 60.0643 15.2527 59.3011 16.0345C58.8524 16.4942 58.4349 16.9861 58.0146 17.4735C57.6106 17.9421 57.221 18.4241 56.8247 18.8999C56.8066 18.9216 56.7723 18.9365 56.7671 18.9607C56.6769 19.3626 56.5902 19.7653 56.5027 20.1677C56.8492 20.0343 57.2921 19.9955 57.5258 19.7506C58.5222 18.7063 59.4366 17.5819 60.4185 16.5226C61.8496 14.9788 63.3128 13.4659 64.9041 11.7905C65.1141 11.6175 65.4909 11.3294 65.8378 11.0081Z" fill="#203734"/>
</g>
<defs>
<clipPath id="clip0_51_244">
<rect width="21.6811" height="17.8267" fill="white" transform="translate(64.1327 0.94397) rotate(65.5738)"/>
</clipPath>
</defs>
</svg>
