<svg width="46" height="55" viewBox="0 0 46 55" fill="none" xmlns="http://www.w3.org/2000/svg">
<path d="M45 22V54H13V45" stroke="#203734" stroke-width="2"/>
<path d="M35.797 27.6405C35.7098 27.6406 35.6237 27.6206 35.5454 27.582C35.4672 27.5434 35.3989 27.4873 35.3458 27.418C35.0284 27.007 34.6729 26.6269 34.2839 26.2829C34.1715 26.1828 34.1034 26.0421 34.0947 25.8918C34.0859 25.7415 34.1373 25.5939 34.2374 25.4815C34.3375 25.369 34.4781 25.3009 34.6284 25.2922C34.7787 25.2835 34.9263 25.3348 35.0388 25.4349C35.4813 25.8271 35.8859 26.2602 36.2471 26.7284C36.3115 26.8124 36.351 26.9128 36.3614 27.0181C36.3717 27.1235 36.3524 27.2296 36.3055 27.3245C36.2587 27.4195 36.1863 27.4994 36.0964 27.5553C36.0066 27.6113 35.9029 27.641 35.797 27.6411V27.6405Z" fill="#EE5B28"/>
<path d="M37.6468 40.865H4.35324C4.20271 40.865 4.05835 40.8052 3.95191 40.6987C3.84547 40.5923 3.78568 40.4479 3.78568 40.2974V32.482C3.78853 29.9901 4.77969 27.6011 6.54171 25.8391C8.30373 24.0771 10.6927 23.0859 13.1846 23.083H14.3708C14.5123 23.083 14.6488 23.1358 14.7534 23.2312C18.9568 27.0623 23.0433 27.0623 27.2467 23.2312C27.3512 23.1358 27.4877 23.083 27.6292 23.083H28.8154C29.4691 23.0811 30.1211 23.1502 30.7599 23.2891C30.8329 23.305 30.902 23.3351 30.9633 23.3777C31.0245 23.4204 31.0768 23.4747 31.1171 23.5376C31.1573 23.6004 31.1848 23.6707 31.1979 23.7442C31.211 23.8177 31.2094 23.893 31.1933 23.966C31.1773 24.0389 31.1469 24.1079 31.1041 24.1691C31.0613 24.2302 31.0069 24.2824 30.9439 24.3224C30.8809 24.3625 30.8106 24.3898 30.7371 24.4027C30.6635 24.4156 30.5881 24.4138 30.5153 24.3975C29.9568 24.2764 29.3869 24.2162 28.8154 24.2182H27.8466C23.3032 28.261 18.6968 28.261 14.1534 24.2182H13.1846C10.9937 24.2207 8.89325 25.0922 7.34404 26.6414C5.79483 28.1906 4.92336 30.2911 4.92081 32.482V39.7298H37.0792V37.5674C37.0792 37.4169 37.139 37.2725 37.2454 37.1661C37.3519 37.0596 37.4962 36.9998 37.6468 36.9998C37.7973 36.9998 37.9417 37.0596 38.0481 37.1661C38.1545 37.2725 38.2143 37.4169 38.2143 37.5674V40.2974C38.2143 40.4479 38.1545 40.5923 38.0481 40.6987C37.9417 40.8052 37.7973 40.865 37.6468 40.865Z" fill="#EE5B28"/>
<path d="M37.6468 33.2651C37.4962 33.2651 37.3519 33.2053 37.2454 33.0988C37.139 32.9924 37.0792 32.848 37.0792 32.6975V32.4818C37.0805 31.9406 37.0274 31.4006 36.9208 30.8699C36.9129 30.8326 36.9089 30.7946 36.9089 30.7564C36.9072 30.6119 36.9608 30.4722 37.0586 30.3658C37.1564 30.2593 37.2911 30.1942 37.4352 30.1838C37.5794 30.1733 37.7221 30.2181 37.8343 30.3093C37.9465 30.4004 38.0197 30.5309 38.0389 30.6741C38.157 31.2694 38.2158 31.8749 38.2143 32.4818V32.6975C38.2143 32.848 38.1545 32.9924 38.0481 33.0988C37.9416 33.2053 37.7973 33.2651 37.6468 33.2651Z" fill="#EE5B28"/>
<path d="M21 22.7027C15.8527 22.7027 11.4422 16.0991 11.4422 10.693C11.4422 8.15807 12.4491 5.727 14.2416 3.93456C16.034 2.14212 18.4651 1.13513 21 1.13513C23.5349 1.13513 25.966 2.14212 27.7584 3.93456C29.5509 5.727 30.5578 8.15807 30.5578 10.693C30.5578 16.0991 26.1473 22.7027 21 22.7027ZM21 2.27027C18.7669 2.27282 16.6261 3.16103 15.0471 4.74004C13.4681 6.31905 12.5799 8.45991 12.5773 10.693C12.5773 15.4866 16.5429 21.5676 21 21.5676C25.4571 21.5676 29.4227 15.4866 29.4227 10.693C29.4201 8.45991 28.5319 6.31905 26.9529 4.74004C25.3739 3.16103 23.2331 2.27282 21 2.27027Z" fill="#EE5B28"/>
<path d="M29.6083 40.8649H12.3917C12.2412 40.8649 12.0968 40.8051 11.9904 40.6986C11.8839 40.5922 11.8241 40.4478 11.8241 40.2973V35.0002C11.8241 34.8497 11.8839 34.7053 11.9904 34.5989C12.0968 34.4924 12.2412 34.4326 12.3917 34.4326C12.5422 34.4326 12.6866 34.4924 12.793 34.5989C12.8995 34.7053 12.9593 34.8497 12.9593 35.0002V39.7297H29.0407V35.0002C29.0407 34.8497 29.1005 34.7053 29.207 34.5989C29.3134 34.4924 29.4578 34.4326 29.6083 34.4326C29.7588 34.4326 29.9032 34.4924 30.0096 34.5989C30.1161 34.7053 30.1759 34.8497 30.1759 35.0002V40.2973C30.1759 40.4478 30.1161 40.5922 30.0096 40.6986C29.9032 40.8051 29.7588 40.8649 29.6083 40.8649Z" fill="#EE5B28"/>
</svg>
