<svg width="69" height="84" viewBox="0 0 69 84" fill="none" xmlns="http://www.w3.org/2000/svg">
    <ellipse cx="26" cy="65.0001" rx="19" ry="19.0001" fill="#EE5B28" />
    <path d="M16.2244 27.1422C16.4287 27.1419 16.6267 27.0715 16.7853 26.9428C16.9439 26.814 17.0535 26.6348 17.0958 26.4349C17.2768 25.5686 17.5335 24.7198 17.8628 23.8984C17.9065 23.7897 17.9284 23.6734 17.9271 23.5563C17.9259 23.4392 17.9016 23.3234 17.8556 23.2157C17.8097 23.1079 17.7429 23.0103 17.6592 22.9283C17.5755 22.8464 17.4765 22.7817 17.3678 22.738C17.1483 22.6498 16.9027 22.6524 16.6851 22.7452C16.5774 22.7911 16.4797 22.8579 16.3978 22.9416C16.3158 23.0253 16.2512 23.1243 16.2075 23.233C15.841 24.1509 15.5542 25.0986 15.3504 26.0657C15.326 26.1803 15.3246 26.2987 15.346 26.4139C15.3675 26.5292 15.4114 26.639 15.4754 26.7373C15.5393 26.8355 15.622 26.9202 15.7187 26.9865C15.8154 27.0527 15.9242 27.0993 16.0389 27.1234C16.1 27.1358 16.1621 27.142 16.2244 27.1422V27.1422Z" fill="#203734" />
    <path d="M33 66.0821C33.1471 66.0821 33.2919 66.0457 33.4216 65.9761C33.5512 65.9065 33.6616 65.806 33.7429 65.6834C33.7777 65.6308 37.2445 60.3936 41.0145 53.8534C47.6689 42.3194 51.043 34.2362 51.043 29.8267C51.0406 27.0538 50.3997 24.3186 49.1699 21.8333C47.9401 19.3479 46.1545 17.1792 43.9515 15.4952C41.7484 13.8112 39.1871 12.6572 36.4662 12.1226C33.7453 11.588 30.9378 11.6872 28.2614 12.4125C28.0331 12.4748 27.839 12.6253 27.7216 12.8308C27.6043 13.0363 27.5734 13.2799 27.6357 13.5082C27.698 13.7365 27.8485 13.9306 28.054 14.048C28.2595 14.1653 28.5031 14.1962 28.7314 14.1339C31.1431 13.4803 33.673 13.3909 36.1249 13.8727C38.5767 14.3545 40.8847 15.3945 42.8698 16.912C44.8549 18.4296 46.4639 20.384 47.5719 22.6236C48.6799 24.8632 49.2573 27.328 49.2592 29.8267C49.2592 33.8616 45.87 41.8619 39.4698 52.9624C36.7629 57.6582 34.2148 61.6744 33 63.5563C31.7852 61.6744 29.2371 57.6582 26.5302 52.9624C21.9744 45.07 18.8599 38.536 17.515 34.065C17.4827 33.9512 17.4281 33.8449 17.3543 33.7524C17.2806 33.6599 17.1892 33.583 17.0854 33.5261C16.9816 33.4693 16.8676 33.4337 16.7499 33.4213C16.6323 33.409 16.5133 33.4202 16.4 33.4543C16.2867 33.4883 16.1813 33.5446 16.09 33.6198C15.9987 33.695 15.9232 33.7876 15.868 33.8923C15.8128 33.9969 15.779 34.1115 15.7685 34.2294C15.7581 34.3472 15.7711 34.466 15.807 34.5787C17.2073 39.2451 20.2959 45.7274 24.9855 53.8543C28.7555 60.3936 32.2223 65.6272 32.257 65.6834C32.3384 65.806 32.4488 65.9065 32.5784 65.9761C32.7081 66.0457 32.8529 66.0821 33 66.0821V66.0821Z" fill="#203734" />
    <path d="M20.3441 19.133C20.4665 19.133 20.5877 19.1079 20.7 19.0591C20.8123 19.0103 20.9134 18.9389 20.9969 18.8493C21.5651 18.2368 22.1787 17.6679 22.8324 17.1476C23.0179 17.0007 23.1374 16.7862 23.1646 16.5512C23.1919 16.3162 23.1247 16.0799 22.9778 15.8945C22.8309 15.709 22.6164 15.5895 22.3814 15.5623C22.1464 15.535 21.9102 15.6022 21.7247 15.7491C21.0002 16.3254 20.3202 16.9553 19.6903 17.6337C19.5721 17.7608 19.4935 17.9197 19.4643 18.0909C19.435 18.262 19.4564 18.438 19.5257 18.5971C19.595 18.7563 19.7093 18.8918 19.8545 18.987C19.9997 19.0822 20.1695 19.1329 20.3432 19.133H20.3441Z" fill="#203734" />
    <path d="M33 41.3126C35.3093 41.3126 37.5667 40.6278 39.4868 39.3448C41.4069 38.0618 42.9034 36.2382 43.7871 34.1047C44.6708 31.9712 44.9019 29.6236 44.4513 27.3587C44.0008 25.0938 42.8887 23.0133 41.2557 21.3805C39.6227 19.7477 37.5422 18.6357 35.2773 18.1853C33.0124 17.7349 30.6647 17.9662 28.5313 18.8501C26.3978 19.7339 24.5744 21.2306 23.2915 23.1508C22.0087 25.071 21.3241 27.3284 21.3243 29.6377C21.3278 32.7331 22.5591 35.7008 24.748 37.8895C26.9369 40.0782 29.9046 41.3093 33 41.3126V41.3126ZM33 19.7457C34.9565 19.7457 36.869 20.3259 38.4957 21.4128C40.1224 22.4998 41.3903 24.0447 42.139 25.8522C42.8877 27.6597 43.0836 29.6487 42.7019 31.5675C42.3202 33.4864 41.3781 35.249 39.9947 36.6324C38.6113 38.0158 36.8487 38.9579 34.9298 39.3396C33.011 39.7213 31.022 39.5254 29.2145 38.7767C27.407 38.028 25.8621 36.7601 24.7751 35.1334C23.6882 33.5067 23.108 31.5942 23.108 29.6377C23.1102 27.0148 24.153 24.5 26.0077 22.6454C27.8623 20.7907 30.3771 19.7479 33 19.7457V19.7457Z" fill="#203734" />
    <path d="M13.9911 74.2162H52.0089C52.1457 74.2162 52.2807 74.1848 52.4034 74.1242C52.5262 74.0637 52.6333 73.9758 52.7166 73.8672C52.7999 73.7587 52.8571 73.6324 52.8838 73.4982C52.9105 73.364 52.9059 73.2255 52.8705 73.0933L47.5191 53.1791C47.4683 52.9895 47.3563 52.822 47.2005 52.7025C47.0447 52.583 46.8539 52.5182 46.6575 52.5182H40.2306C39.994 52.5182 39.7672 52.6122 39.5999 52.7795C39.4326 52.9467 39.3387 53.1736 39.3387 53.4101C39.3387 53.6467 39.4326 53.8735 39.5999 54.0408C39.7672 54.2081 39.994 54.302 40.2306 54.302H45.9744L50.8459 72.4324H15.1541L20.0239 54.302H25.7676C26.0042 54.302 26.231 54.2081 26.3983 54.0408C26.5656 53.8735 26.6595 53.6467 26.6595 53.4101C26.6595 53.1736 26.5656 52.9467 26.3983 52.7795C26.231 52.6122 26.0042 52.5182 25.7676 52.5182H19.3407C19.1444 52.5182 18.9535 52.583 18.7977 52.7025C18.642 52.822 18.53 52.9895 18.4791 53.1791L13.1278 73.0933C13.0923 73.2256 13.0878 73.3643 13.1145 73.4986C13.1413 73.633 13.1987 73.7593 13.2822 73.8679C13.3656 73.9765 13.473 74.0644 13.596 74.1248C13.7189 74.1852 13.8541 74.2165 13.9911 74.2162Z" fill="#203734" />
    <g clip-path="url(#clip0_51_199)">
        <path fill-rule="evenodd" clip-rule="evenodd" d="M53.1774 4.35151C53.0022 4.45504 52.7592 4.51586 52.6627 4.66914C52.0286 5.67637 51.3921 6.68469 50.8211 7.72831C49.8852 9.43888 48.9889 11.1716 48.1043 12.9097C47.9999 13.1148 48.0744 13.4111 48.0661 13.6652C48.265 13.645 48.4642 13.6249 48.7506 13.5959C49.263 12.7071 49.7689 11.846 50.2586 10.976C51.1522 9.38898 52.0482 7.80273 52.9161 6.2017C53.1337 5.8003 53.2834 5.35176 53.3919 4.90734C53.4306 4.74892 53.2552 4.53836 53.1774 4.35151Z" fill="#203734" />
        <path fill-rule="evenodd" clip-rule="evenodd" d="M65.7032 18.1716C65.8549 18.0545 66.0297 17.7126 65.9728 17.6306C65.8646 17.4746 65.5438 17.3015 65.4049 17.3645C64.7168 17.6775 64.0252 18.0129 63.3981 18.4374C61.9942 19.3879 60.6282 20.3963 59.2462 21.3802C58.1718 22.1453 57.0877 22.8971 56.0306 23.6859C55.8645 23.8099 55.8187 24.0987 55.7173 24.3113C55.9666 24.2881 56.2594 24.3444 56.4576 24.2285C57.5582 23.5852 58.6359 22.9 59.7212 22.229C59.7017 22.196 59.6823 22.1632 59.6627 22.1304C61.2752 21.0683 62.8862 20.0045 64.5004 18.9453C64.8994 18.6836 65.327 18.4621 65.7032 18.1716Z" fill="#203734" />
        <path fill-rule="evenodd" clip-rule="evenodd" d="M60.8378 11.0081C60.9435 10.9102 61.0573 10.654 61.008 10.5879C60.9021 10.4454 60.6696 10.278 60.5302 10.3025C60.2037 10.3597 59.8237 10.4424 59.6028 10.6585C58.5855 11.6543 57.6224 12.7065 56.6255 13.7239C55.8608 14.5041 55.0643 15.2527 54.3011 16.0345C53.8524 16.4942 53.435 16.9861 53.0147 17.4735C52.6106 17.9421 52.221 18.4241 51.8247 18.8999C51.8067 18.9216 51.7723 18.9365 51.7671 18.9607C51.6769 19.3626 51.5903 19.7653 51.5027 20.1677C51.8492 20.0343 52.2922 19.9955 52.5259 19.7506C53.5222 18.7063 54.4366 17.5819 55.4185 16.5226C56.8496 14.9788 58.3128 13.4659 59.9041 11.7905C60.1141 11.6175 60.491 11.3294 60.8378 11.0081Z" fill="#203734" />
    </g>
    <defs>
        <clipPath id="clip0_51_199">
            <rect width="21.6811" height="17.8267" fill="white" transform="translate(59.1327 0.94397) rotate(65.5738)" />
        </clipPath>
    </defs>
</svg>