<svg width="79" height="84" viewBox="0 0 79 84" fill="none" xmlns="http://www.w3.org/2000/svg">
<ellipse cx="26" cy="65.0001" rx="19" ry="18.9999" fill="#F4AE2A"/>
<path d="M33 75.2162C32.87 75.2163 32.7416 75.188 32.6236 75.1332C17.111 67.9125 7.84866 55.4635 7.84866 41.8327V23.0048C7.84862 22.8806 7.87454 22.7577 7.92476 22.644C7.97499 22.5304 8.04841 22.4285 8.14031 22.3448C8.23212 22.2606 8.34067 22.1968 8.45886 22.1574C8.57705 22.1181 8.70222 22.1041 8.82618 22.1165C18.629 23.0566 26.318 20.1053 32.3222 13.0959C32.4059 12.998 32.5099 12.9194 32.6269 12.8655C32.7439 12.8116 32.8712 12.7837 33 12.7838C33.129 12.784 33.2564 12.8121 33.3734 12.8663C33.4904 12.9205 33.5943 12.9995 33.6779 13.0977C39.5519 19.9947 47.2462 22.9513 57.1854 22.1156C57.3086 22.1054 57.4326 22.1208 57.5495 22.161C57.6664 22.2012 57.7737 22.2653 57.8645 22.3492C57.9554 22.433 58.0278 22.5349 58.0771 22.6482C58.1265 22.7615 58.1518 22.8839 58.1514 23.0075V41.8327C58.1543 42.7262 58.1114 43.6192 58.0229 44.5083C57.8247 46.6912 57.3834 48.845 56.7074 50.93C56.4188 51.8556 56.0818 52.7654 55.6978 53.6556C54.7383 55.9131 53.539 58.0609 52.1204 60.062C51.942 60.3296 51.7333 60.615 51.5237 60.8995C46.7331 67.0602 40.501 71.9483 33.3764 75.1332C33.2585 75.188 33.13 75.2163 33 75.2162ZM9.63245 23.9743V41.8327C9.63245 54.642 18.3596 66.3945 33 73.3432C39.6976 70.2922 45.5573 65.6657 50.0789 59.8587C50.2804 59.5911 50.4713 59.3307 50.6452 59.0658C51.9983 57.1607 53.1418 55.115 54.0558 52.9644C54.4173 52.1261 54.735 51.2697 55.0074 50.3984C55.6453 48.4314 56.0608 46.3992 56.2463 44.3398C56.3304 43.5068 56.3709 42.6699 56.3676 41.8327V23.9636C46.646 24.5567 38.9819 21.6224 33 15.0251C26.8977 21.7285 19.2354 24.6629 9.63245 23.9743Z" fill="#203734"/>
<path d="M51.7574 45.3111C51.7201 45.3113 51.6828 45.309 51.6459 45.3039C51.4113 45.2745 51.1979 45.1532 51.0527 44.9665C50.9076 44.7799 50.8425 44.5432 50.8717 44.3086C50.9715 43.4871 51.0198 42.6602 51.0162 41.8327C51.015 41.5962 51.1079 41.3688 51.2743 41.2007C51.4407 41.0326 51.6671 40.9375 51.9037 40.9364C52.1402 40.9352 52.3675 41.028 52.5356 41.1944C52.7037 41.3609 52.7988 41.5872 52.8 41.8238V41.8327C52.8038 42.7342 52.7507 43.635 52.6413 44.5298C52.6143 44.7453 52.5097 44.9436 52.3469 45.0874C52.1842 45.2313 51.9746 45.3108 51.7574 45.3111Z" fill="#203734"/>
<path d="M48.9907 54.2033C48.8372 54.2031 48.6862 54.1634 48.5526 54.0878C48.4189 54.0122 48.307 53.9034 48.2277 53.7719C48.1484 53.6404 48.1044 53.4907 48.0999 53.3372C48.0955 53.1837 48.1307 53.0316 48.2023 52.8957C48.6412 52.0675 49.0319 51.2146 49.3725 50.3414C49.4146 50.2321 49.4779 50.1322 49.5587 50.0474C49.6395 49.9625 49.7362 49.8944 49.8432 49.847C49.9503 49.7995 50.0657 49.7736 50.1828 49.7708C50.2999 49.7679 50.4164 49.7881 50.5257 49.8303C50.635 49.8725 50.7349 49.9357 50.8197 50.0165C50.9045 50.0973 50.9726 50.194 51.0201 50.3011C51.0675 50.4082 51.0934 50.5235 51.0963 50.6406C51.0991 50.7577 51.0789 50.8742 51.0367 50.9835C50.6713 51.9216 50.2517 52.8376 49.7801 53.727C49.7044 53.8707 49.5908 53.9911 49.4517 54.075C49.3126 54.1589 49.1532 54.2033 48.9907 54.2033Z" fill="#203734"/>
<path d="M33 69.2494C32.8552 69.2491 32.7127 69.2139 32.5844 69.1468C20.4466 62.7547 13.2 52.5434 13.2 41.8326V28.4899C13.1997 28.2606 13.2878 28.04 13.4459 27.8739C13.604 27.7079 13.82 27.6091 14.0491 27.5981C20.794 27.3664 27.2651 24.8735 32.4221 20.52C32.5829 20.3846 32.7863 20.3104 32.9964 20.3104C33.2066 20.3104 33.41 20.3846 33.5708 20.52C38.7532 24.8299 45.2178 27.3008 51.9536 27.5463C52.1817 27.5587 52.3964 27.658 52.5534 27.824C52.7104 27.9899 52.7977 28.2098 52.7973 28.4382V35.5823C52.7973 35.8188 52.7034 36.0457 52.5361 36.2129C52.3689 36.3802 52.142 36.4742 51.9054 36.4742C51.6689 36.4742 51.4421 36.3802 51.2748 36.2129C51.1075 36.0457 51.0136 35.8188 51.0136 35.5823V29.2721C44.4424 28.8674 38.1541 26.4536 33 22.3573C27.8658 26.4985 21.5682 28.9358 14.9838 29.3301V41.8326C14.9838 51.8976 21.5428 61.176 33 67.347C37.0959 65.1989 40.791 62.361 43.923 58.9579C44.0006 58.8682 44.0953 58.7949 44.2016 58.7422C44.3079 58.6896 44.4236 58.6587 44.542 58.6513C44.6604 58.6439 44.779 58.6602 44.891 58.6993C45.003 58.7383 45.1061 58.7993 45.1943 58.8786C45.2824 58.958 45.3538 59.0542 45.4044 59.1615C45.4549 59.2688 45.4835 59.3851 45.4886 59.5036C45.4936 59.6221 45.475 59.7404 45.4337 59.8516C45.3925 59.9628 45.3295 60.0647 45.2484 60.1512C41.8667 63.8254 37.8605 66.8711 33.4156 69.1468C33.2874 69.2139 33.1448 69.2491 33 69.2494Z" fill="#203734"/>
<g clip-path="url(#clip0_79_265)">
<path fill-rule="evenodd" clip-rule="evenodd" d="M63.1774 4.35151C63.0022 4.45504 62.7591 4.51586 62.6627 4.66914C62.0286 5.67637 61.392 6.68469 60.8211 7.72831C59.8852 9.43888 58.9888 11.1716 58.1042 12.9097C57.9999 13.1148 58.0743 13.4111 58.066 13.6652C58.265 13.645 58.4642 13.6249 58.7506 13.5959C59.2629 12.7071 59.7689 11.846 60.2586 10.976C61.1522 9.38898 62.0481 7.80273 62.9161 6.2017C63.1337 5.8003 63.2834 5.35176 63.3919 4.90734C63.4306 4.74892 63.2551 4.53836 63.1774 4.35151Z" fill="#203734"/>
<path fill-rule="evenodd" clip-rule="evenodd" d="M75.7031 18.1716C75.8549 18.0545 76.0297 17.7126 75.9728 17.6306C75.8646 17.4746 75.5438 17.3015 75.4049 17.3645C74.7167 17.6775 74.0252 18.0129 73.398 18.4374C71.9942 19.3879 70.6282 20.3963 69.2462 21.3802C68.1717 22.1453 67.0877 22.8971 66.0306 23.6859C65.8644 23.8099 65.8187 24.0987 65.7173 24.3113C65.9665 24.2881 66.2594 24.3444 66.4576 24.2285C67.5582 23.5852 68.6358 22.9 69.7212 22.229C69.7017 22.196 69.6823 22.1632 69.6627 22.1304C71.2752 21.0683 72.8862 20.0045 74.5004 18.9453C74.8993 18.6836 75.327 18.4621 75.7031 18.1716Z" fill="#203734"/>
<path fill-rule="evenodd" clip-rule="evenodd" d="M70.8378 11.0081C70.9435 10.9102 71.0573 10.654 71.008 10.5879C70.9021 10.4454 70.6696 10.278 70.5302 10.3025C70.2037 10.3597 69.8236 10.4424 69.6027 10.6585C68.5855 11.6543 67.6224 12.7065 66.6255 13.7239C65.8608 14.5041 65.0643 15.2527 64.3011 16.0345C63.8524 16.4942 63.4349 16.9861 63.0146 17.4735C62.6106 17.9421 62.221 18.4241 61.8247 18.8999C61.8066 18.9216 61.7723 18.9365 61.7671 18.9607C61.6769 19.3626 61.5902 19.7653 61.5027 20.1677C61.8492 20.0343 62.2921 19.9955 62.5258 19.7506C63.5222 18.7063 64.4366 17.5819 65.4185 16.5226C66.8496 14.9788 68.3128 13.4659 69.9041 11.7905C70.1141 11.6175 70.4909 11.3294 70.8378 11.0081Z" fill="#203734"/>
</g>
<defs>
<clipPath id="clip0_79_265">
<rect width="21.6811" height="17.8267" fill="white" transform="translate(69.1327 0.94397) rotate(65.5738)"/>
</clipPath>
</defs>
</svg>
