<svg width="108" height="25" viewBox="0 0 108 25" fill="none" xmlns="http://www.w3.org/2000/svg">
<path d="M9.29498 19.7398C7.76305 19.7398 6.43415 19.426 5.30827 18.7985C4.18239 18.1525 3.30569 17.2757 2.67815 16.1683C2.06907 15.0425 1.76453 13.7597 1.76453 12.32C1.76453 10.6958 2.08752 9.31155 2.73352 8.16722C3.39797 7.00443 4.25622 6.11849 5.30827 5.50941C6.36032 4.88187 7.47697 4.56811 8.65821 4.56811C9.56261 4.56811 10.4209 4.75268 11.233 5.12182C12.0451 5.4725 12.7649 5.97084 13.3924 6.61683C14.0384 7.24437 14.546 7.99188 14.9151 8.85936C15.2843 9.70838 15.4781 10.6405 15.4965 11.6556C15.4781 12.0247 15.3304 12.3293 15.0536 12.5692C14.7767 12.8092 14.4537 12.9291 14.0846 12.9291H3.31491L2.65046 10.5759H13.0602L12.5342 11.0742V10.3821C12.4973 9.73606 12.285 9.17313 11.8974 8.69324C11.5098 8.19491 11.0299 7.81654 10.4578 7.55814C9.8856 7.28128 9.28575 7.14286 8.65821 7.14286C8.1045 7.14286 7.56925 7.23514 7.05246 7.41971C6.55412 7.58582 6.10192 7.86268 5.69587 8.25028C5.30827 8.63787 4.9945 9.15467 4.75456 9.80066C4.53308 10.4282 4.42233 11.2126 4.42233 12.1539C4.42233 13.1691 4.63459 14.055 5.0591 14.8117C5.48361 15.5685 6.05578 16.1591 6.7756 16.5836C7.49542 16.9897 8.28907 17.1927 9.15655 17.1927C9.83946 17.1927 10.4024 17.1281 10.8454 16.9989C11.2883 16.8512 11.6575 16.6759 11.9528 16.4729C12.2481 16.2698 12.5065 16.076 12.728 15.8915C13.0048 15.7254 13.2817 15.6423 13.5585 15.6423C13.8908 15.6423 14.1676 15.7623 14.3891 16.0022C14.6106 16.2237 14.7213 16.4913 14.7213 16.8051C14.7213 17.2111 14.5183 17.5803 14.1123 17.9125C13.6139 18.3924 12.9218 18.8169 12.0358 19.186C11.1684 19.5552 10.2547 19.7398 9.29498 19.7398Z" fill="#203734"/>
<path d="M17.7274 4.81727C18.1888 4.81727 18.5672 5.01107 18.8625 5.39867L28.3032 17.3034C28.5063 17.5434 28.6078 17.8202 28.6078 18.134C28.6078 18.5031 28.4601 18.8261 28.1648 19.103C27.8695 19.3798 27.5465 19.5183 27.1958 19.5183C26.7528 19.5183 26.3745 19.3245 26.0607 18.9369L16.62 7.03211C16.4169 6.79217 16.3154 6.51532 16.3154 6.20155C16.3154 5.81395 16.4538 5.49096 16.7307 5.23256C17.026 4.9557 17.3582 4.81727 17.7274 4.81727ZM17.7551 19.5183C17.4413 19.5183 17.1368 19.3983 16.8414 19.1584C16.5461 18.9184 16.3985 18.6231 16.3985 18.2724C16.3985 17.9587 16.5092 17.6726 16.7307 17.4142L21.1327 11.9601L22.5447 14.2303L18.8625 18.9369C18.5672 19.3245 18.198 19.5183 17.7551 19.5183ZM27.1681 4.81727C27.5557 4.81727 27.8695 4.94647 28.1094 5.20487C28.3678 5.44481 28.497 5.7309 28.497 6.06312C28.497 6.21078 28.4693 6.36766 28.414 6.53378C28.3771 6.68143 28.294 6.81986 28.1648 6.94906L23.8182 12.4031L22.3785 10.3544L26.0607 5.45404C26.3745 5.02953 26.7436 4.81727 27.1681 4.81727Z" fill="#203734"/>
<path d="M42.0878 4.84496C42.4939 4.84496 42.8261 4.98339 43.0845 5.26024C43.3429 5.51864 43.4721 5.85087 43.4721 6.25692V23.588C43.4721 23.9941 43.3429 24.3263 43.0845 24.5847C42.8261 24.8616 42.4939 25 42.0878 25C41.7002 25 41.368 24.8616 41.0911 24.5847C40.8327 24.3263 40.7035 23.9941 40.7035 23.588V16.0576L41.2849 16.0853C41.2849 16.4175 41.1465 16.7959 40.8696 17.2204C40.6112 17.6264 40.2513 18.0233 39.7899 18.4109C39.3285 18.7985 38.784 19.1214 38.1565 19.3798C37.5289 19.6198 36.8552 19.7398 36.1354 19.7398C34.8619 19.7398 33.7176 19.4168 32.7024 18.7708C31.6873 18.1063 30.8844 17.2111 30.2938 16.0853C29.7032 14.9409 29.4078 13.6305 29.4078 12.1539C29.4078 10.6774 29.7032 9.37615 30.2938 8.25028C30.8844 7.10594 31.6781 6.21078 32.6747 5.56478C33.6899 4.90033 34.8157 4.56811 36.0524 4.56811C36.8276 4.56811 37.5474 4.6973 38.2118 4.9557C38.8947 5.2141 39.4854 5.54633 39.9837 5.95238C40.482 6.35843 40.8696 6.79217 41.1465 7.2536C41.4233 7.69657 41.5618 8.12108 41.5618 8.52713L40.7035 8.61019V6.25692C40.7035 5.86932 40.8327 5.5371 41.0911 5.26024C41.368 4.98339 41.7002 4.84496 42.0878 4.84496ZM36.44 17.1927C37.3259 17.1927 38.0919 16.9712 38.7379 16.5282C39.4023 16.0853 39.9191 15.4854 40.2882 14.7287C40.6574 13.9719 40.842 13.1137 40.842 12.1539C40.842 11.1942 40.6574 10.3359 40.2882 9.57918C39.9191 8.82244 39.4023 8.22259 38.7379 7.77962C38.0734 7.33666 37.3074 7.11517 36.44 7.11517C35.5909 7.11517 34.8342 7.33666 34.1697 7.77962C33.5238 8.22259 33.007 8.82244 32.6194 9.57918C32.2502 10.3359 32.0656 11.1942 32.0656 12.1539C32.0656 13.1137 32.2502 13.9719 32.6194 14.7287C33.007 15.4854 33.5238 16.0853 34.1697 16.5282C34.8342 16.9712 35.5909 17.1927 36.44 17.1927Z" fill="#203734"/>
<path d="M57.3036 4.90033C57.6912 4.90033 58.0142 5.03876 58.2726 5.31561C58.5494 5.57401 58.6878 5.90624 58.6878 6.31229V13.5936C58.6878 15.5131 58.1526 17.0174 57.0821 18.1063C56.0116 19.1768 54.4981 19.7121 52.5417 19.7121C50.6037 19.7121 49.0994 19.1768 48.0289 18.1063C46.9769 17.0174 46.4509 15.5131 46.4509 13.5936V6.31229C46.4509 5.90624 46.5801 5.57401 46.8385 5.31561C47.0969 5.03876 47.4291 4.90033 47.8351 4.90033C48.2227 4.90033 48.5457 5.03876 48.8041 5.31561C49.081 5.57401 49.2194 5.90624 49.2194 6.31229V13.5936C49.2194 14.7933 49.4963 15.6884 50.05 16.2791C50.6221 16.8697 51.4527 17.165 52.5417 17.165C53.6491 17.165 54.4889 16.8697 55.061 16.2791C55.6332 15.6884 55.9193 14.7933 55.9193 13.5936V6.31229C55.9193 5.90624 56.0485 5.57401 56.3069 5.31561C56.5653 5.03876 56.8975 4.90033 57.3036 4.90033Z" fill="#203734"/>
<path d="M64.2403 18.0509C64.2403 18.457 64.1111 18.7984 63.8527 19.0753C63.5943 19.3337 63.2621 19.4629 62.856 19.4629C62.4684 19.4629 62.1362 19.3337 61.8593 19.0753C61.6009 18.7984 61.4718 18.457 61.4718 18.0509V6.20155C61.4718 5.7955 61.6009 5.46327 61.8593 5.20487C62.1362 4.92802 62.4684 4.78959 62.856 4.78959C63.2621 4.78959 63.5943 4.92802 63.8527 5.20487C64.1111 5.46327 64.2403 5.7955 64.2403 6.20155V18.0509ZM62.8283 2.96235C62.2931 2.96235 61.9055 2.87006 61.6656 2.68549C61.4256 2.48247 61.3056 2.15024 61.3056 1.68881V1.24585C61.3056 0.784422 61.4348 0.461424 61.6932 0.276855C61.9516 0.0922849 62.3392 0 62.856 0C63.4097 0 63.8066 0.101513 64.0465 0.30454C64.2864 0.48911 64.4064 0.802878 64.4064 1.24585V1.68881C64.4064 2.1687 64.2772 2.50092 64.0188 2.68549C63.7789 2.87006 63.3821 2.96235 62.8283 2.96235Z" fill="#203734"/>
<path d="M66.2064 17.1927C66.0403 16.9343 65.9665 16.639 65.9849 16.3068C66.0034 15.9561 66.1972 15.6608 66.5663 15.4208C66.8247 15.2547 67.0923 15.1901 67.3692 15.227C67.6645 15.2455 67.9414 15.3839 68.1998 15.6423C68.7166 16.2145 69.2887 16.6667 69.9163 16.9989C70.5623 17.3311 71.3374 17.4972 72.2418 17.4972C72.611 17.4788 72.9893 17.4234 73.3769 17.3311C73.7645 17.2204 74.0968 17.0358 74.3736 16.7774C74.6505 16.5006 74.7889 16.1037 74.7889 15.5869C74.7889 15.1255 74.6413 14.7564 74.3459 14.4795C74.0506 14.2027 73.663 13.9812 73.1831 13.8151C72.7033 13.6305 72.1865 13.4644 71.6328 13.3167C71.0421 13.1506 70.4423 12.966 69.8332 12.763C69.2426 12.56 68.7073 12.3016 68.2274 11.9878C67.7476 11.6556 67.3507 11.2311 67.037 10.7143C66.7417 10.1975 66.594 9.56072 66.594 8.80399C66.594 7.93651 66.8339 7.189 67.3138 6.56146C67.8122 5.93392 68.4489 5.44481 69.2241 5.09413C70.0178 4.74345 70.876 4.56811 71.7989 4.56811C72.3341 4.56811 72.8971 4.64193 73.4877 4.78959C74.0783 4.91879 74.6505 5.13104 75.2042 5.42636C75.7579 5.72167 76.2378 6.10926 76.6438 6.58915C76.8284 6.82909 76.9299 7.11517 76.9484 7.4474C76.9853 7.77962 76.8376 8.07494 76.5054 8.33333C76.2839 8.5179 76.0163 8.60096 75.7025 8.5825C75.3888 8.56405 75.1304 8.46253 74.9273 8.27796C74.5766 7.83499 74.1245 7.49354 73.5707 7.2536C73.017 6.9952 72.3895 6.866 71.6881 6.866C71.3374 6.866 70.9683 6.92137 70.5807 7.03211C70.2116 7.1244 69.8978 7.29974 69.6394 7.55814C69.381 7.81654 69.2518 8.19491 69.2518 8.69324C69.2518 9.15467 69.3995 9.52381 69.6948 9.80066C70.0085 10.0775 70.4146 10.3082 70.9129 10.4928C71.4113 10.6774 71.9558 10.8435 72.5464 10.9911C73.1185 11.1388 73.6815 11.3141 74.2352 11.5172C74.8074 11.7202 75.3149 11.9878 75.7579 12.32C76.2193 12.6338 76.5885 13.0491 76.8653 13.5659C77.1606 14.0642 77.3083 14.701 77.3083 15.4762C77.3083 16.3806 77.0407 17.1558 76.5054 17.8018C75.9886 18.4293 75.3242 18.9092 74.5121 19.2414C73.7184 19.5736 72.8786 19.7398 71.9927 19.7398C70.9406 19.7398 69.8886 19.5552 68.8365 19.186C67.8029 18.7985 66.9262 18.134 66.2064 17.1927Z" fill="#203734"/>
<path d="M81.9882 18.0509C81.9882 18.457 81.859 18.7984 81.6006 19.0753C81.3422 19.3337 81.01 19.4629 80.6039 19.4629C80.2163 19.4629 79.8841 19.3337 79.6073 19.0753C79.3489 18.7984 79.2197 18.457 79.2197 18.0509V6.20155C79.2197 5.7955 79.3489 5.46327 79.6073 5.20487C79.8841 4.92802 80.2163 4.78959 80.6039 4.78959C81.01 4.78959 81.3422 4.92802 81.6006 5.20487C81.859 5.46327 81.9882 5.7955 81.9882 6.20155V18.0509ZM80.5763 2.96235C80.041 2.96235 79.6534 2.87006 79.4135 2.68549C79.1735 2.48247 79.0536 2.15024 79.0536 1.68881V1.24585C79.0536 0.784422 79.1827 0.461424 79.4411 0.276855C79.6995 0.0922849 80.0871 0 80.6039 0C81.1577 0 81.5545 0.101513 81.7944 0.30454C82.0344 0.48911 82.1543 0.802878 82.1543 1.24585V1.68881C82.1543 2.1687 82.0251 2.50092 81.7667 2.68549C81.5268 2.87006 81.13 2.96235 80.5763 2.96235Z" fill="#203734"/>
<path d="M84.6188 5.06644H91.1249C91.494 5.06644 91.7985 5.19564 92.0385 5.45404C92.2969 5.69398 92.4261 5.99852 92.4261 6.36766C92.4261 6.71835 92.2969 7.01366 92.0385 7.2536C91.7985 7.49354 91.494 7.61351 91.1249 7.61351H84.6188C84.2496 7.61351 83.9359 7.49354 83.6775 7.2536C83.4375 6.9952 83.3175 6.69066 83.3175 6.33998C83.3175 5.97084 83.4375 5.6663 83.6775 5.42636C83.9359 5.18641 84.2496 5.06644 84.6188 5.06644ZM87.5257 1.46733C87.9318 1.46733 88.264 1.60576 88.5224 1.88261C88.7808 2.14101 88.91 2.47324 88.91 2.87929V15.7254C88.91 16.0576 88.9654 16.3252 89.0761 16.5282C89.1869 16.7313 89.3345 16.8697 89.5191 16.9435C89.7221 17.0173 89.9252 17.0543 90.1282 17.0543C90.3312 17.0543 90.5065 17.0173 90.6542 16.9435C90.8203 16.8697 91.0141 16.8328 91.2356 16.8328C91.4571 16.8328 91.6601 16.9343 91.8447 17.1373C92.0292 17.3403 92.1215 17.6172 92.1215 17.9679C92.1215 18.4109 91.8816 18.7708 91.4017 19.0476C90.9218 19.3245 90.405 19.4629 89.8513 19.4629C89.5376 19.4629 89.1684 19.4352 88.7439 19.3798C88.3194 19.3245 87.9041 19.186 87.4981 18.9646C87.1105 18.7431 86.7875 18.3924 86.5291 17.9125C86.2707 17.4142 86.1415 16.722 86.1415 15.8361V2.87929C86.1415 2.47324 86.2707 2.14101 86.5291 1.88261C86.8059 1.60576 87.1381 1.46733 87.5257 1.46733Z" fill="#203734"/>
<path d="M101.24 19.7398C99.7081 19.7398 98.3792 19.426 97.2533 18.7985C96.1274 18.1525 95.2507 17.2757 94.6232 16.1683C94.0141 15.0425 93.7096 13.7597 93.7096 12.32C93.7096 10.6958 94.0326 9.31155 94.6786 8.16722C95.343 7.00443 96.2013 6.11849 97.2533 5.50941C98.3054 4.88187 99.422 4.56811 100.603 4.56811C101.508 4.56811 102.366 4.75268 103.178 5.12182C103.99 5.4725 104.71 5.97084 105.337 6.61683C105.983 7.24437 106.491 7.99188 106.86 8.85936C107.229 9.70838 107.423 10.6405 107.442 11.6556C107.423 12.0247 107.275 12.3293 106.999 12.5692C106.722 12.8092 106.399 12.9291 106.03 12.9291H95.2599L94.5955 10.5759H105.005L104.479 11.0742V10.3821C104.442 9.73606 104.23 9.17313 103.842 8.69324C103.455 8.19491 102.975 7.81654 102.403 7.55814C101.831 7.28128 101.231 7.14286 100.603 7.14286C100.05 7.14286 99.5143 7.23514 98.9975 7.41971C98.4991 7.58582 98.047 7.86268 97.6409 8.25028C97.2533 8.63787 96.9395 9.15467 96.6996 9.80066C96.4781 10.4282 96.3674 11.2126 96.3674 12.1539C96.3674 13.1691 96.5796 14.055 97.0041 14.8117C97.4286 15.5685 98.0008 16.1591 98.7206 16.5836C99.4405 16.9897 100.234 17.1927 101.102 17.1927C101.784 17.1927 102.347 17.1281 102.79 16.9989C103.233 16.8512 103.603 16.6759 103.898 16.4729C104.193 16.2698 104.452 16.076 104.673 15.8915C104.95 15.7254 105.227 15.6423 105.504 15.6423C105.836 15.6423 106.113 15.7623 106.334 16.0022C106.556 16.2237 106.666 16.4913 106.666 16.8051C106.666 17.2111 106.463 17.5803 106.057 17.9125C105.559 18.3924 104.867 18.8169 103.981 19.186C103.113 19.5552 102.2 19.7398 101.24 19.7398Z" fill="#203734"/>
<path d="M0 3H9C2.25 3.70588 0.5625 7.94118 0 11V3Z" fill="#EE5B28"/>
</svg>
