<svg width="586" height="574" viewBox="0 0 586 574" fill="none" xmlns="http://www.w3.org/2000/svg">
<path d="M568.119 222.285C503.125 110.988 326.851 150.628 290.845 96.4881C272.408 68.7667 251.784 36.6347 221.868 19.9254C193.349 3.99608 160.283 -1.68792 131.454 0.422744C28.5099 7.95874 -15.1396 100.064 4.64272 201.211C31.0328 336.133 150.637 473.956 292.728 474.921C367.043 475.425 437.992 448.861 493.647 411.307C494.064 411.027 494.479 410.745 494.893 410.463C550.492 372.616 617.739 307.261 568.119 222.285" fill="#EE5B28"/>
<path d="M294.809 474.928C294.12 474.928 293.417 474.925 292.728 474.921C251.152 474.638 211.5 462.638 175.547 442.423C176.139 441.893 176.709 441.34 177.257 440.766C177.537 440.472 177.527 440.005 177.232 439.725C177.089 439.589 176.907 439.523 176.725 439.523C176.531 439.523 176.337 439.599 176.192 439.75C175.557 440.417 174.889 441.054 174.192 441.656C164.116 435.919 154.345 429.543 144.896 422.592H183.956C183.897 423.259 183.816 423.92 183.713 424.572C183.649 424.973 183.923 425.349 184.324 425.413C184.364 425.42 184.403 425.423 184.44 425.423C184.796 425.423 185.108 425.164 185.165 424.801C185.281 424.073 185.369 423.337 185.432 422.592H230.152C240.212 422.592 248.367 414.439 248.367 404.377V391.92H286.344C285.657 396.052 285.095 399.557 284.691 401.981C282.513 415.056 278.647 426.824 280.617 431.324C282.573 435.811 310.709 457.476 326.889 463.064C334.245 465.612 350.127 466.661 365.257 467.048C342.403 472.121 318.792 474.93 294.809 474.928ZM182.941 429.628C182.644 429.628 182.364 429.811 182.252 430.105C181.575 431.908 180.72 433.624 179.709 435.233C179.493 435.577 179.596 436.031 179.94 436.247C180.063 436.324 180.197 436.36 180.331 436.36C180.576 436.36 180.815 436.239 180.955 436.016C182.017 434.324 182.917 432.52 183.629 430.623C183.772 430.243 183.58 429.819 183.2 429.676C183.115 429.644 183.027 429.628 182.941 429.628ZM454.492 434.496C458.516 430.183 462.26 425.365 465.497 419.999C465.497 419.999 461.733 407.655 455.401 391.92H503.845C520.591 391.919 534.172 378.337 534.172 361.591V183.104C547.269 193.557 558.832 206.383 568.119 222.285C580.293 243.135 585.432 262.804 585.435 281.175C585.441 337.676 536.851 381.903 494.893 410.463C494.479 410.745 494.064 411.027 493.647 411.307C481.303 419.636 468.211 427.423 454.492 434.496ZM416.932 431.849C416.829 431.849 416.784 431.715 416.784 431.469C416.785 429.687 419.163 422.039 419.165 417.304C419.165 415.939 418.969 414.816 418.46 414.145C416.312 411.297 410.592 411.061 408.756 411.061C408.392 411.061 408.18 411.071 408.18 411.071L408.843 406.968C408.895 406.697 410.485 398.54 411.776 391.92H420.713C425.499 400.575 431.772 412.453 433.449 418.116C433.449 418.116 416.991 431.295 416.999 431.809C416.999 431.82 417.005 431.824 417.019 431.824C416.987 431.841 416.957 431.849 416.932 431.849ZM314.092 422.264L309.032 417.808L319.561 391.92H322.929L327.139 410.556C327.139 410.556 325.865 410.461 324.128 410.461C321.324 410.461 317.309 410.708 315.475 411.997C314.039 413.015 313.668 415.447 313.668 417.689C313.668 420.085 314.092 422.264 314.092 422.264ZM51.262 319.011C41.974 303.772 33.7667 287.937 26.7807 271.789C26.8932 271.859 27.026 271.899 27.1683 271.899C27.5745 271.899 27.9036 271.569 27.9036 271.164V265.281C27.9036 264.875 27.5745 264.545 27.1683 264.545C26.762 264.545 26.4328 264.875 26.4328 265.281V270.983C16.6099 248.125 9.2224 224.623 4.64271 201.211C1.54219 185.356 0 169.725 0 154.607C0 73.2681 44.6453 6.77743 131.454 0.42276C135.279 0.14276 139.173 9.15527e-05 143.128 9.15527e-05C168.972 9.15527e-05 197.133 6.10942 221.868 19.9254C249.887 35.5761 269.757 64.7561 287.311 91.1681H81.5901C65.5672 91.1694 52.4401 103.615 51.3521 119.368C51.2921 120.076 51.262 120.787 51.262 121.511V230.089C49.4292 230.407 47.6531 230.889 45.9505 231.524C45.5697 231.665 45.3765 232.089 45.5183 232.469C45.6287 232.765 45.9088 232.949 46.2073 232.949C46.2927 232.949 46.3792 232.933 46.464 232.903C48.0047 232.329 49.6084 231.884 51.262 231.583V319.011ZM27.7973 252.824C27.4573 252.824 27.1516 253.063 27.0787 253.408C26.6708 255.341 26.4495 257.343 26.4339 259.392C26.4307 259.797 26.7573 260.129 27.1636 260.133C27.1651 260.133 27.1672 260.133 27.1693 260.133C27.5729 260.133 27.9016 259.807 27.9047 259.403C27.9193 257.452 28.1303 255.549 28.5177 253.712C28.6016 253.315 28.3473 252.924 27.95 252.84C27.8989 252.829 27.8479 252.824 27.7973 252.824ZM32.4588 242.112C32.2271 242.112 31.9995 242.22 31.8563 242.424C30.7073 244.061 29.7183 245.819 28.9104 247.673C28.7484 248.047 28.9188 248.48 29.2917 248.641C29.3869 248.683 29.4864 248.703 29.5844 248.703C29.8683 248.703 30.1385 248.537 30.2593 248.26C31.0265 246.497 31.9677 244.827 33.0599 243.269C33.2932 242.937 33.2131 242.479 32.8807 242.245C32.7521 242.155 32.6047 242.112 32.4588 242.112ZM40.938 234.072C40.8052 234.072 40.6703 234.108 40.5495 234.184C38.8396 235.252 37.2448 236.488 35.7891 237.868C35.4943 238.148 35.4817 238.613 35.7615 238.908C35.9057 239.06 36.1005 239.137 36.2953 239.137C36.4765 239.137 36.6588 239.071 36.8011 238.935C38.186 237.623 39.7027 236.447 41.3287 235.431C41.6729 235.216 41.7781 234.763 41.5631 234.417C41.4235 234.195 41.1833 234.072 40.938 234.072Z" fill="#EE5B28"/>
<path d="M63.636 229.648H57.7527C57.3464 229.648 57.0172 229.977 57.0172 230.384C57.0172 230.791 57.3464 231.119 57.7527 231.119H63.636C64.0417 231.119 64.3708 230.791 64.3708 230.384C64.3708 229.977 64.0417 229.648 63.636 229.648ZM51.776 230.004C49.7609 230.317 47.812 230.831 45.9505 231.524C45.5697 231.665 45.3765 232.089 45.5183 232.469C45.6599 232.851 46.0833 233.044 46.464 232.903C48.2333 232.244 50.086 231.755 52.0016 231.457C52.4031 231.396 52.6781 231.02 52.6156 230.619C52.5531 230.217 52.1776 229.943 51.776 230.004ZM40.5495 234.184C38.8396 235.252 37.2448 236.488 35.7891 237.868C35.4943 238.148 35.4817 238.613 35.7615 238.908C36.0407 239.203 36.5063 239.215 36.8011 238.935C38.186 237.623 39.7027 236.447 41.3287 235.431C41.6729 235.216 41.7781 234.763 41.5631 234.417C41.3473 234.073 40.8937 233.968 40.5495 234.184M31.8563 242.424C30.7073 244.061 29.7183 245.819 28.9104 247.673C28.7484 248.047 28.9188 248.48 29.2917 248.641C29.664 248.804 30.0973 248.633 30.2593 248.26C31.0265 246.497 31.9677 244.827 33.0599 243.269C33.2932 242.937 33.2131 242.479 32.8807 242.245C32.5479 242.012 32.0896 242.092 31.8563 242.424M27.0787 253.408C26.6708 255.341 26.4495 257.343 26.4339 259.392C26.4307 259.797 26.7573 260.129 27.1636 260.133C27.5697 260.136 27.9016 259.809 27.9047 259.403C27.9193 257.452 28.1303 255.549 28.5177 253.712C28.6016 253.315 28.3473 252.924 27.95 252.84C27.5527 252.757 27.1625 253.011 27.0787 253.408M26.4328 265.281V271.164C26.4328 271.569 26.762 271.899 27.1683 271.899C27.5745 271.899 27.9036 271.569 27.9036 271.164V265.281C27.9036 264.875 27.5745 264.545 27.1683 264.545C26.762 264.545 26.4328 264.875 26.4328 265.281ZM26.4328 277.047V282.931C26.4328 283.336 26.762 283.665 27.1683 283.665C27.5745 283.665 27.9036 283.336 27.9036 282.931V277.047C27.9036 276.641 27.5745 276.312 27.1683 276.312C26.762 276.312 26.4328 276.641 26.4328 277.047ZM26.4328 288.813V294.697C26.4328 295.103 26.762 295.432 27.1683 295.432C27.5745 295.432 27.9036 295.103 27.9036 294.697V288.813C27.9036 288.407 27.5745 288.079 27.1683 288.079C26.762 288.079 26.4328 288.407 26.4328 288.813ZM26.4328 300.58V306.463C26.4328 306.869 26.762 307.199 27.1683 307.199C27.5745 307.199 27.9036 306.869 27.9036 306.463V300.58C27.9036 300.173 27.5745 299.844 27.1683 299.844C26.762 299.844 26.4328 300.173 26.4328 300.58ZM26.4328 312.347V318.229C26.4328 318.636 26.762 318.965 27.1683 318.965C27.5745 318.965 27.9036 318.636 27.9036 318.229V312.347C27.9036 311.94 27.5745 311.611 27.1683 311.611C26.762 311.611 26.4328 311.94 26.4328 312.347ZM26.4328 324.113V329.996C26.4328 330.403 26.762 330.732 27.1683 330.732C27.5745 330.732 27.9036 330.403 27.9036 329.996V324.113C27.9036 323.707 27.5745 323.377 27.1683 323.377C26.762 323.377 26.4328 323.707 26.4328 324.113ZM26.4328 335.88V341.763C26.4328 342.169 26.762 342.497 27.1683 342.497C27.5745 342.497 27.9036 342.169 27.9036 341.763V335.88C27.9036 335.473 27.5745 335.144 27.1683 335.144C26.762 335.144 26.4328 335.473 26.4328 335.88ZM26.4328 347.645V353.529C26.4328 353.935 26.762 354.264 27.1683 354.264C27.5745 354.264 27.9036 353.935 27.9036 353.529V347.645C27.9036 347.24 27.5745 346.911 27.1683 346.911C26.762 346.911 26.4328 347.24 26.4328 347.645ZM26.4328 359.412V365.296C26.4328 365.701 26.762 366.031 27.1683 366.031C27.5745 366.031 27.9036 365.701 27.9036 365.296V359.412C27.9036 359.007 27.5745 358.677 27.1683 358.677C26.762 358.677 26.4328 359.007 26.4328 359.412ZM26.4328 371.179V377.061C26.4328 377.468 26.762 377.797 27.1683 377.797C27.5745 377.797 27.9036 377.468 27.9036 377.061V371.179C27.9036 370.772 27.5745 370.443 27.1683 370.443C26.762 370.443 26.4328 370.772 26.4328 371.179ZM26.4328 382.945V388.828C26.4328 389.235 26.762 389.564 27.1683 389.564C27.5745 389.564 27.9036 389.235 27.9036 388.828V382.945C27.9036 382.539 27.5745 382.209 27.1683 382.209C26.762 382.209 26.4328 382.539 26.4328 382.945ZM26.4328 394.712V400.595C26.4328 401.001 26.762 401.331 27.1683 401.331C27.5745 401.331 27.9036 401.001 27.9036 400.595V394.712C27.9036 394.305 27.5745 393.976 27.1683 393.976C26.762 393.976 26.4328 394.305 26.4328 394.712ZM26.4328 406.477V412.361C26.4328 412.768 26.762 413.096 27.1683 413.096C27.5745 413.096 27.9036 412.768 27.9036 412.361V406.477C27.9036 406.072 27.5745 405.743 27.1683 405.743C26.762 405.743 26.4328 406.072 26.4328 406.477M26.4328 418.244V420.083C26.4328 421.484 26.5292 422.863 26.7151 424.215C26.7708 424.616 27.1421 424.897 27.5443 424.843C27.9464 424.787 28.2281 424.416 28.1724 424.013C27.9953 422.728 27.9036 421.416 27.9036 420.083V418.244C27.9036 417.839 27.5745 417.509 27.1683 417.509C26.762 417.509 26.4328 417.839 26.4328 418.244M28.1349 430.064C28.8099 431.976 29.6735 433.799 30.7027 435.511C30.912 435.859 31.3636 435.971 31.712 435.761C32.0599 435.552 32.1724 435.1 31.9631 434.752C30.9844 433.125 30.1636 431.392 29.5219 429.575C29.3869 429.192 28.9667 428.991 28.5839 429.127C28.2011 429.261 28 429.681 28.1349 430.064M34.3057 440.332C35.6631 441.814 37.1677 443.157 38.7953 444.342C39.124 444.58 39.5839 444.508 39.8229 444.179C40.062 443.85 39.9891 443.391 39.6604 443.152C38.112 442.025 36.6812 440.747 35.3901 439.339C35.1156 439.039 34.6505 439.019 34.3511 439.293C34.0521 439.568 34.0317 440.033 34.3057 440.332M43.9937 447.376C45.8052 448.202 47.7136 448.852 49.6964 449.305C50.0927 449.396 50.4869 449.148 50.5776 448.752C50.6683 448.356 50.4208 447.961 50.0251 447.872C48.1396 447.44 46.326 446.821 44.6036 446.037C44.2344 445.868 43.7979 446.032 43.6297 446.402C43.4615 446.771 43.6245 447.207 43.9937 447.376ZM55.6688 450.05C55.9151 450.057 56.1625 450.06 56.4104 450.06H61.5697C61.976 450.06 62.3052 449.731 62.3052 449.324C62.3052 448.919 61.976 448.59 61.5697 448.59H56.4104C56.1745 448.59 55.9391 448.587 55.7041 448.58C55.2984 448.571 54.9615 448.892 54.9511 449.299C54.9412 449.704 55.2625 450.042 55.6688 450.05M67.4531 450.06H73.336C73.7421 450.06 74.0713 449.731 74.0713 449.324C74.0713 448.919 73.7421 448.59 73.336 448.59H67.4531C67.0469 448.59 66.7172 448.919 66.7172 449.324C66.7172 449.731 67.0469 450.06 67.4531 450.06M79.2193 450.06H85.1027C85.5088 450.06 85.838 449.731 85.838 449.324C85.838 448.919 85.5088 448.59 85.1027 448.59H79.2193C78.8131 448.59 78.4839 448.919 78.4839 449.324C78.4839 449.731 78.8131 450.06 79.2193 450.06ZM90.986 450.06H96.8693C97.2751 450.06 97.6041 449.731 97.6041 449.324C97.6041 448.919 97.2751 448.59 96.8693 448.59H90.986C90.5797 448.59 90.2505 448.919 90.2505 449.324C90.2505 449.731 90.5797 450.06 90.986 450.06ZM102.752 450.06H108.635C109.042 450.06 109.371 449.731 109.371 449.324C109.371 448.919 109.042 448.59 108.635 448.59H102.752C102.346 448.59 102.017 448.919 102.017 449.324C102.017 449.731 102.346 450.06 102.752 450.06ZM114.519 450.06H120.402C120.808 450.06 121.137 449.731 121.137 449.324C121.137 448.919 120.808 448.59 120.402 448.59H114.519C114.113 448.59 113.783 448.919 113.783 449.324C113.783 449.731 114.113 450.06 114.519 450.06ZM126.285 450.06H132.168C132.575 450.06 132.904 449.731 132.904 449.324C132.904 448.919 132.575 448.59 132.168 448.59H126.285C125.879 448.59 125.549 448.919 125.549 449.324C125.549 449.731 125.879 450.06 126.285 450.06ZM138.052 450.06H143.935C144.341 450.06 144.671 449.731 144.671 449.324C144.671 448.919 144.341 448.59 143.935 448.59H138.052C137.645 448.59 137.316 448.919 137.316 449.324C137.316 449.731 137.645 450.06 138.052 450.06ZM149.819 450.06H155.557H155.705C156.111 450.057 156.439 449.726 156.437 449.321C156.435 448.914 156.104 448.587 155.697 448.59H155.557H149.819C149.412 448.59 149.083 448.919 149.083 449.324C149.083 449.731 149.412 450.06 149.819 450.06ZM161.691 449.432C163.683 449.017 165.604 448.405 167.431 447.616C167.804 447.456 167.975 447.023 167.815 446.649C167.653 446.278 167.22 446.105 166.848 446.267C165.111 447.016 163.285 447.597 161.391 447.992C160.993 448.075 160.737 448.464 160.82 448.861C160.903 449.26 161.292 449.514 161.691 449.432ZM172.689 444.685C174.341 443.533 175.872 442.219 177.257 440.766C177.537 440.472 177.527 440.005 177.232 439.725C176.939 439.445 176.473 439.456 176.192 439.75C174.875 441.133 173.419 442.383 171.848 443.479C171.515 443.712 171.433 444.169 171.665 444.503C171.897 444.836 172.356 444.917 172.689 444.685M180.955 436.016C182.017 434.324 182.917 432.52 183.629 430.623C183.772 430.243 183.58 429.819 183.2 429.676C182.82 429.533 182.396 429.725 182.252 430.105C181.575 431.908 180.72 433.624 179.709 435.233C179.493 435.577 179.596 436.031 179.94 436.247C180.284 436.463 180.739 436.36 180.955 436.016ZM185.165 424.801C185.409 423.264 185.535 421.688 185.535 420.083C185.535 419.676 185.205 419.347 184.8 419.347C184.393 419.347 184.064 419.676 184.064 420.083C184.064 421.611 183.944 423.109 183.713 424.572C183.649 424.973 183.923 425.349 184.324 425.413C184.725 425.477 185.103 425.203 185.165 424.801" fill="#1D2A30"/>
<path d="M177.405 78.9827V73.1001C177.405 72.6948 177.076 72.3654 176.669 72.3654C176.264 72.3654 175.935 72.6948 175.935 73.1001V78.9827C175.935 79.3894 176.264 79.7188 176.669 79.7188C177.076 79.7188 177.405 79.3894 177.405 78.9827ZM177.405 67.2174V61.3334C177.405 60.9281 177.076 60.5988 176.669 60.5988C176.264 60.5988 175.935 60.9281 175.935 61.3334V67.2174C175.935 67.6227 176.264 67.9521 176.669 67.9521C177.076 67.9521 177.405 67.6227 177.405 67.2174ZM177.405 55.4508V49.5668C177.405 49.1614 177.076 48.8321 176.669 48.8321C176.264 48.8321 175.935 49.1614 175.935 49.5668V55.4508C175.935 55.8561 176.264 56.1854 176.669 56.1854C177.076 56.1854 177.405 55.8561 177.405 55.4508ZM177.748 43.8561C178.129 41.9788 178.816 40.2134 179.755 38.6121C179.96 38.2614 179.843 37.8108 179.492 37.6054C179.141 37.4001 178.691 37.5174 178.485 37.8681C177.467 39.6054 176.72 41.5241 176.307 43.5641C176.225 43.9614 176.483 44.3494 176.881 44.4308C177.279 44.5108 177.667 44.2534 177.748 43.8561V43.8561ZM183.348 34.2961C184.761 33.0734 186.376 32.0774 188.135 31.3641C188.512 31.2121 188.693 30.7828 188.54 30.4068C188.388 30.0308 187.959 29.8481 187.583 30.0014C185.672 30.7748 183.919 31.8561 182.385 33.1828C182.079 33.4494 182.044 33.9134 182.311 34.2214C182.576 34.5281 183.04 34.5614 183.348 34.2961V34.2961ZM193.613 30.1414C193.933 30.1241 194.255 30.1147 194.579 30.1147H199.456C199.861 30.1147 200.191 29.7854 200.191 29.3801C200.191 28.9734 199.861 28.6441 199.456 28.6441H194.579C194.228 28.6441 193.879 28.6534 193.532 28.6734C193.127 28.6948 192.816 29.0427 192.839 29.4481C192.861 29.8534 193.208 30.1641 193.613 30.1414V30.1414ZM205.339 30.1147H211.221C211.628 30.1147 211.957 29.7854 211.957 29.3801C211.957 28.9734 211.628 28.6441 211.221 28.6441H205.339C204.932 28.6441 204.603 28.9734 204.603 29.3801C204.603 29.7854 204.932 30.1147 205.339 30.1147ZM217.105 30.1147H222.988C223.395 30.1147 223.724 29.7854 223.724 29.3801C223.724 28.9734 223.395 28.6441 222.988 28.6441H217.105C216.699 28.6441 216.369 28.9734 216.369 29.3801C216.369 29.7854 216.699 30.1147 217.105 30.1147ZM228.872 30.1147H234.755C235.161 30.1147 235.491 29.7854 235.491 29.3801C235.491 28.9734 235.161 28.6441 234.755 28.6441H228.872C228.465 28.6441 228.136 28.9734 228.136 29.3801C228.136 29.7854 228.465 30.1147 228.872 30.1147ZM240.639 30.1147H246.521C246.928 30.1147 247.257 29.7854 247.257 29.3801C247.257 28.9734 246.928 28.6441 246.521 28.6441H240.639C240.232 28.6441 239.903 28.9734 239.903 29.3801C239.903 29.7854 240.232 30.1147 240.639 30.1147ZM252.404 30.1147H258.288C258.693 30.1147 259.023 29.7854 259.023 29.3801C259.023 28.9734 258.693 28.6441 258.288 28.6441H252.404C251.999 28.6441 251.669 28.9734 251.669 29.3801C251.669 29.7854 251.999 30.1147 252.404 30.1147ZM264.171 30.1147H270.055C270.46 30.1147 270.789 29.7854 270.789 29.3801C270.789 28.9734 270.46 28.6441 270.055 28.6441H264.171C263.765 28.6441 263.436 28.9734 263.436 29.3801C263.436 29.7854 263.765 30.1147 264.171 30.1147ZM275.937 30.1147H281.821C282.227 30.1147 282.556 29.7854 282.556 29.3801C282.556 28.9734 282.227 28.6441 281.821 28.6441H275.937C275.531 28.6441 275.203 28.9734 275.203 29.3801C275.203 29.7854 275.531 30.1147 275.937 30.1147ZM287.704 30.1147H293.587C293.993 30.1147 294.323 29.7854 294.323 29.3801C294.323 28.9734 293.993 28.6441 293.587 28.6441H287.704C287.297 28.6441 286.968 28.9734 286.968 29.3801C286.968 29.7854 287.297 30.1147 287.704 30.1147ZM299.471 30.1147H305.353C305.76 30.1147 306.089 29.7854 306.089 29.3801C306.089 28.9734 305.76 28.6441 305.353 28.6441H299.471C299.064 28.6441 298.735 28.9734 298.735 29.3801C298.735 29.7854 299.064 30.1147 299.471 30.1147ZM311.237 30.1147H317.12C317.527 30.1147 317.856 29.7854 317.856 29.3801C317.856 28.9734 317.527 28.6441 317.12 28.6441H311.237C310.831 28.6441 310.501 28.9734 310.501 29.3801C310.501 29.7854 310.831 30.1147 311.237 30.1147ZM323.003 30.1147H323.513C325.281 30.1147 326.985 30.3814 328.588 30.8761C328.976 30.9961 329.388 30.7788 329.508 30.3908C329.628 30.0028 329.411 29.5908 329.023 29.4708C327.28 28.9334 325.429 28.6441 323.513 28.6441H323.003C322.597 28.6441 322.268 28.9734 322.268 29.3801C322.268 29.7854 322.597 30.1147 323.003 30.1147V30.1147ZM333.608 33.3921C335.131 34.5001 336.464 35.8534 337.551 37.3921C337.785 37.7228 338.244 37.8028 338.576 37.5681C338.908 37.3334 338.987 36.8748 338.752 36.5428C337.572 34.8734 336.125 33.4054 334.473 32.2028C334.144 31.9641 333.684 32.0374 333.445 32.3654C333.207 32.6934 333.279 33.1534 333.608 33.3921V33.3921ZM339.996 42.4454C340.445 43.9801 340.688 45.6054 340.688 47.2881C340.688 47.6948 341.017 48.0241 341.423 48.0241C341.829 48.0241 342.159 47.6948 342.159 47.2881C342.159 45.4641 341.896 43.7001 341.407 42.0321C341.292 41.6428 340.884 41.4188 340.495 41.5334C340.104 41.6468 339.881 42.0561 339.996 42.4454" fill="#1D2A30"/>
<path d="M548.079 537.343C548.079 557.05 433.749 573.028 292.717 573.028C151.684 573.028 37.3547 557.05 37.3547 537.343C37.3547 517.635 151.684 501.657 292.717 501.657C433.749 501.657 548.079 517.635 548.079 537.343" fill="#EE5B28"/>
<path d="M292.717 573.028C151.684 573.028 37.3547 557.05 37.3547 537.343C37.3547 517.635 151.684 501.657 292.717 501.657C433.749 501.657 548.079 517.635 548.079 537.343C548.079 557.05 433.749 573.028 292.717 573.028Z" fill="#FFE7DE"/>
<path d="M533.437 121.511V361.591C533.437 377.932 520.184 391.184 503.845 391.184H81.5902C65.249 391.184 51.9969 377.932 51.9969 361.591V121.511C51.9969 120.804 52.0271 120.113 52.086 119.423C53.1448 104.052 65.9552 91.9041 81.5902 91.9041H503.845C519.479 91.9041 532.291 104.052 533.348 119.423C533.407 120.113 533.437 120.804 533.437 121.511Z" fill="white"/>
<path d="M533.437 121.511H532.701V361.591C532.701 369.56 529.472 376.769 524.248 381.995C519.024 387.219 511.813 390.448 503.845 390.448H81.5902C73.6203 390.448 66.4104 387.219 61.186 381.995C55.962 376.771 52.7328 369.56 52.7323 361.591V121.511C52.7323 120.825 52.7615 120.155 52.8183 119.484L52.8194 119.473C53.8516 104.487 66.3448 92.6374 81.5902 92.6388H503.845C519.089 92.6374 531.583 104.487 532.615 119.473L532.616 119.484C532.673 120.155 532.701 120.825 532.701 121.511H533.437H534.172C534.172 120.784 534.141 120.071 534.081 119.36L533.348 119.423L534.083 119.372C532.996 103.616 519.868 91.1694 503.845 91.1681H81.5902C65.5656 91.1694 52.438 103.616 51.3522 119.372L52.086 119.423L51.3527 119.36C51.2927 120.071 51.262 120.784 51.262 121.511V361.591C51.2626 378.337 64.8427 391.919 81.5902 391.92H503.845C520.591 391.919 534.172 378.337 534.172 361.591V121.511H533.437" fill="#1D2A30"/>
<path d="M492.812 380.021H94.1306C78.814 380.021 66.3969 367.604 66.3969 352.288V130.513H520.545V352.288C520.545 367.604 508.128 380.021 492.812 380.021Z" fill="#1D2A30"/>
<path d="M492.805 379.293H450.043C447.417 373.439 444.521 367.456 441.403 361.712L452.66 353.649L445.085 335.836C447.497 332.88 449.543 329.629 451.16 326.173L470.471 325.115L473.413 307.391L455.469 300.169C455.057 296.389 454.189 292.683 452.896 289.109L465.809 274.725L455.351 260.105L437.54 267.664C434.584 265.296 431.363 263.296 427.921 261.693L426.877 242.367L409.139 239.44L401.873 257.311C398.108 257.752 394.416 258.62 390.856 259.899L387.939 257.288C387.844 253.768 388.983 249.92 388.983 249.92L386.687 247.895C394.66 244.82 401.341 237.351 400.38 228.281C399.984 224.543 397.236 221.855 393.669 220.967C392.827 220.757 391.999 220.667 391.184 220.667C387.445 220.667 383.967 222.595 380.464 223.915C378.743 224.564 377.028 224.823 375.319 224.823C369.305 224.824 363.339 221.624 357.221 220.967C355.977 220.833 354.683 220.752 353.375 220.752C347.612 220.752 341.607 222.313 338.755 227.759C338.755 227.759 326.684 229.176 321.399 239.089C316.111 249.003 326.161 262.727 326.161 262.727C326.161 262.727 326.737 262.029 327.733 261.693L327.493 261.948C327.493 261.948 324.619 264.489 325.76 270.909C325.995 272.224 326.292 273.501 326.635 274.704L318.769 275.072C317.316 272.649 315.576 270.403 313.607 268.4L317.864 254.653L306.26 248.005L296.552 258.599C293.819 257.929 291.015 257.579 288.192 257.533L281.471 244.792L268.572 248.301L269.253 262.691C266.831 264.145 264.585 265.884 262.568 267.849L248.816 263.604L248.367 264.385V245.793H258.984L264.235 222.349C268.765 221.069 273.119 219.245 277.223 216.952L297.505 229.849L313.287 214.069L300.476 193.787C302.755 189.668 304.565 185.315 305.845 180.784L329.319 175.548V153.221L305.845 148.015C304.565 143.484 302.771 139.101 300.476 134.984L302.843 131.256H519.809V352.289C519.809 359.744 516.789 366.491 511.903 371.381C507.013 376.271 500.268 379.293 492.805 379.293ZM288.528 379.293H248.367V312.593L256.911 312.189C258.345 314.62 260.071 316.863 262.055 318.871L257.776 332.547L269.38 339.195L279.039 328.692C281.78 329.38 284.584 329.731 287.417 329.748L294.12 342.497L298.664 341.261C295.052 346.423 291.324 363.872 288.528 379.293ZM72.5005 368.437C70.3797 365.597 68.8052 362.327 67.9312 358.78L72.5005 363.851V368.437ZM67.1396 347.377V326.228L70.3016 327.124C70.8453 329.54 71.5812 331.907 72.5005 334.2V339.876L67.1396 347.377ZM306.896 336.339L306.452 326.697L306.356 324.592C308.805 323.148 311.067 321.413 313.107 319.427L326.848 323.699L332.527 313.772L333.497 312.093L322.851 302.397C323.54 299.656 323.896 296.839 323.927 294.011L336.657 287.317L335.669 283.691C336.117 283.704 336.4 283.705 336.4 283.705C336.4 283.705 339.637 290.723 342.553 295.156L341.143 303.641L344.056 304.817L344.5 304.996C344.545 305.933 344.587 306.9 344.621 307.857C342.416 308.347 340.036 309.468 338.441 311.895C338.42 311.927 338.399 311.957 338.379 311.991C338.375 311.996 338.371 312.003 338.367 312.009C338.335 312.059 338.304 312.108 338.273 312.159C337.169 315.017 336.944 318.704 336.944 321.241C336.944 322.999 337.052 324.205 337.052 324.205C337.052 324.205 336.788 324.308 336.288 324.485C332.652 325.841 316.811 331.8 306.896 336.339M407.251 328.657C400.015 328.657 392.885 325.285 388.356 318.952C380.885 308.539 383.296 294.037 393.711 286.58C397.804 283.645 402.528 282.236 407.205 282.236C414.441 282.236 421.568 285.608 426.097 291.932C433.568 302.361 431.157 316.864 420.743 324.321C416.649 327.248 411.927 328.657 407.251 328.657M287.804 310.855C280.197 310.855 273.232 305.795 271.144 298.115C268.636 288.899 274.076 279.403 283.273 276.904C284.793 276.491 286.321 276.293 287.824 276.293C295.432 276.293 302.396 281.353 304.484 289.033C306.992 298.249 301.552 307.744 292.355 310.244C290.835 310.657 289.307 310.855 287.804 310.855ZM67.1396 301.911V131.256H192.985L195.255 134.865C192.945 138.969 191.151 143.337 189.9 147.881L166.427 153.104V175.431L189.9 180.667C191.083 184.989 192.749 189.169 194.879 193.104H90.7156C80.6552 193.104 72.5011 201.257 72.5005 211.319V269.652L67.2125 274.409L72.5005 283.755V299.149C72.2432 299.809 72.0005 300.476 71.7724 301.149L67.1396 301.911M248.367 295.023V280.835L252.809 284.873C252.121 287.613 251.771 290.417 251.759 293.237L248.367 295.023M247.983 193.227C232.053 193.227 219.14 180.313 219.14 164.384C219.14 148.456 232.053 135.543 247.983 135.543C263.911 135.543 276.825 148.456 276.825 164.384C276.825 180.313 263.911 193.227 247.983 193.227Z" fill="#45555C"/>
<path d="M533.348 119.423H52.0854C53.1448 104.052 65.9552 91.9041 81.5901 91.9041H503.845C519.479 91.9041 532.291 104.052 533.348 119.423Z" fill="#EE5B28"/>
<path d="M533.348 119.423V118.687H52.0854V119.423L52.8193 119.473C53.8516 104.487 66.3448 92.6374 81.5901 92.6388C96.8355 92.6401 503.845 92.6388 503.845 92.6388C519.089 92.6374 531.584 104.487 532.615 119.473L533.348 119.423L534.083 119.372C532.996 103.616 519.868 91.1694 503.845 91.1681H81.5901C65.5656 91.1694 52.438 103.616 51.3521 119.372L51.2979 120.157H534.136L534.083 119.372L533.348 119.423Z" fill="#1D2A30"/>
<path d="M111.225 105.663C111.225 108.557 108.879 110.904 105.984 110.904C103.089 110.904 100.742 108.557 100.742 105.663C100.742 102.768 103.089 100.421 105.984 100.421C108.879 100.421 111.225 102.768 111.225 105.663Z" fill="#1D2A30"/>
<path d="M133.388 105.663C133.388 108.557 131.042 110.904 128.147 110.904C125.252 110.904 122.905 108.557 122.905 105.663C122.905 102.768 125.252 100.421 128.147 100.421C131.042 100.421 133.388 102.768 133.388 105.663Z" fill="#1D2A30"/>
<path d="M155.552 105.663C155.552 108.557 153.205 110.904 150.311 110.904C147.415 110.904 145.068 108.557 145.068 105.663C145.068 102.768 147.415 100.421 150.311 100.421C153.205 100.421 155.552 102.768 155.552 105.663Z" fill="#1D2A30"/>
<path d="M520.545 130.521H519.809V352.289C519.809 359.744 516.789 366.491 511.903 371.381C507.013 376.271 500.268 379.293 492.805 379.293H94.1287C81.014 379.295 70.0891 369.927 67.6547 357.531L67.612 357.311L67.4391 357.137L66.9188 357.657H67.6542V357.599V357.527L67.6407 357.456C67.3115 355.783 67.1396 354.051 67.1396 352.289V131.256H520.545V130.521H519.809H520.545V129.785H65.6688V352.289C65.6688 354.145 65.8495 355.973 66.1974 357.74L66.9188 357.599H66.1839V357.657V357.963L66.4131 358.192L66.9334 357.672L66.212 357.813C68.7792 370.892 80.2979 380.763 94.1287 380.764H492.805C508.537 380.764 521.28 368.007 521.28 352.289V129.785H520.545V130.521" fill="#1D2A30"/>
<path d="M506.2 203.431C498.641 203.431 492.521 197.312 492.521 189.752C492.521 182.208 498.641 176.073 506.2 176.073C513.76 176.073 519.88 182.208 519.88 189.752C519.88 197.312 513.76 203.431 506.2 203.431ZM520.115 164.823C518.173 163.735 516.1 162.88 513.952 162.277L511.465 151.144H500.876L498.405 162.277C496.243 162.867 494.169 163.735 492.228 164.823L482.668 158.704L475.181 166.191L481.197 175.751C480.093 177.707 479.24 179.78 478.652 181.928L467.517 184.399V194.989L478.652 197.475C479.24 199.651 480.093 201.74 481.197 203.696L475.079 213.315L482.565 220.801L492.184 214.683C494.125 215.785 496.199 216.639 498.361 217.241L500.833 228.361H511.423L513.907 217.241C516.056 216.639 518.128 215.771 520.069 214.683L520.556 214.991V164.543L520.115 164.823" fill="#1D2A30"/>
<path d="M247.983 193.227C232.053 193.227 219.14 180.313 219.14 164.384C219.14 148.456 232.053 135.543 247.983 135.543C263.911 135.543 276.825 148.456 276.825 164.384C276.825 180.313 263.911 193.227 247.983 193.227M329.319 175.548V153.221L305.845 148.015C304.565 143.484 302.771 139.101 300.476 134.984L303.315 130.512H192.519L195.255 134.865C192.945 138.969 191.151 143.337 189.9 147.881L166.427 153.104V175.431L189.9 180.667C191.151 185.241 192.945 189.653 195.255 193.787L182.355 214.069L198.152 229.849L218.419 216.952C222.537 219.26 226.905 221.069 231.451 222.349L236.657 245.793H258.984L264.235 222.349C268.765 221.069 273.119 219.245 277.223 216.952L297.505 229.849L313.287 214.069L300.476 193.787C302.755 189.668 304.565 185.315 305.845 180.784L329.319 175.548Z" fill="#1D2A30"/>
<path d="M134.193 301.193C125.722 291.78 111.22 291.015 101.806 299.487C92.3926 307.959 91.6281 322.461 100.1 331.875C108.572 341.287 123.074 342.037 132.487 333.565C141.901 325.095 142.665 310.605 134.193 301.193M181.231 328.859L182.171 311.151L163.816 305.973C162.963 302.34 161.697 298.796 160.051 295.441L171.14 279.867L159.256 266.673L142.636 276.072C139.459 274.087 136.076 272.453 132.517 271.233L129.34 252.407L111.631 251.465L106.512 269.88C102.865 270.688 99.3349 271.953 95.9822 273.616L80.4208 262.525L67.2125 274.409L76.626 291.044C74.5958 294.208 72.9781 297.591 71.7724 301.149L66.4036 302.032V326.02L70.3016 327.124C71.1254 330.785 72.3906 334.329 74.0666 337.684L66.4036 348.407L66.9188 357.599V357.657L66.9333 357.672L74.8317 366.437L91.4812 357.04C94.6578 359.084 98.0708 360.731 101.63 361.937L104.66 380.013V380.029L104.807 380.779L122.515 381.72L122.986 380.029V380.013L127.634 363.305C131.311 362.483 134.841 361.232 138.224 359.569L153.755 370.645L166.963 358.775L157.579 342.125C159.58 338.964 161.197 335.581 162.375 332.036L181.231 328.859" fill="#1D2A30"/>
<path d="M292.355 310.244C283.139 312.752 273.644 307.312 271.144 298.115C268.636 288.899 274.076 279.403 283.273 276.904C292.489 274.396 301.984 279.836 304.484 289.033C306.992 298.249 301.552 307.744 292.355 310.244ZM322.851 302.397C323.54 299.656 323.896 296.839 323.927 294.011L336.657 287.317L333.139 274.4L318.769 275.072C317.316 272.649 315.576 270.403 313.607 268.4L317.864 254.653L306.26 248.005L296.552 258.599C293.819 257.929 291.015 257.579 288.192 257.533L281.471 244.792L268.572 248.301L269.253 262.691C266.831 264.145 264.585 265.884 262.568 267.849L248.816 263.604L242.16 275.191L252.809 284.873C252.121 287.613 251.771 290.417 251.759 293.237L239.004 299.953L242.521 312.871L256.911 312.189C258.345 314.62 260.071 316.863 262.055 318.871L257.776 332.547L269.38 339.195L279.039 328.692C281.78 329.38 284.584 329.731 287.417 329.748L294.12 342.497L307.017 338.988L306.452 326.697L306.356 324.592C308.805 323.148 311.067 321.413 313.107 319.427L326.848 323.699L332.527 313.772L333.497 312.093L322.851 302.397" fill="#1D2A30"/>
<path d="M420.743 324.321C410.316 331.777 395.813 329.38 388.356 318.952C380.885 308.539 383.296 294.037 393.711 286.58C404.137 279.107 418.64 281.52 426.097 291.932C433.568 302.361 431.157 316.864 420.743 324.321M470.471 325.115L473.413 307.391L455.469 300.169C455.057 296.389 454.189 292.683 452.896 289.109L465.809 274.725L455.351 260.105L437.54 267.664C434.584 265.296 431.363 263.296 427.921 261.693L426.877 242.367L409.139 239.44L401.873 257.311C398.108 257.752 394.416 258.62 390.856 259.899L376.428 246.985L361.823 257.443L369.399 275.24C367.309 277.857 365.5 280.652 364 283.623C363.793 284.035 363.588 284.447 363.397 284.859L344.085 285.933L341.143 303.641L344.056 304.817L359.087 310.877C359.5 314.628 360.352 318.333 361.661 321.893L348.747 336.321L359.205 350.928L377.016 343.337C379.959 345.735 383.193 347.751 386.621 349.353L387.621 368.592L405.345 371.519L412.595 353.78C416.375 353.369 420.081 352.5 423.641 351.192L438.04 364.12L452.66 353.649L445.085 335.836C447.497 332.88 449.543 329.629 451.16 326.173L470.471 325.115" fill="#1D2A30"/>
<path d="M230.152 421.857H90.7156C81.0615 421.857 73.236 414.032 73.236 404.377V211.319C73.236 201.664 81.0615 193.839 90.7156 193.839H230.152C239.805 193.839 247.632 201.664 247.632 211.319V404.377C247.632 414.032 239.805 421.857 230.152 421.857" fill="#EE5B28"/>
<path d="M230.152 421.857V421.121H90.7156C86.0896 421.121 81.9079 419.249 78.8755 416.217C75.8443 413.185 73.9719 409.004 73.9713 404.377V211.319C73.9719 206.692 75.8443 202.511 78.8755 199.479C81.9079 196.447 86.0896 194.575 90.7156 194.575H230.152C234.779 194.575 238.96 196.447 241.992 199.479C245.024 202.511 246.896 206.692 246.896 211.319V404.377C246.896 409.004 245.024 413.185 241.992 416.217C238.96 419.249 234.779 421.121 230.152 421.121V421.857V422.592C240.212 422.592 248.367 414.439 248.367 404.377V211.319C248.367 201.257 240.212 193.104 230.152 193.104H90.7156C80.6552 193.104 72.5011 201.257 72.5005 211.319V404.377C72.5011 414.439 80.6552 422.592 90.7156 422.592H230.152V421.857Z" fill="#1D2A30"/>
<path d="M230.152 421.857V421.121H90.7156C86.0896 421.121 81.9078 419.249 78.8754 416.217C75.8442 413.185 73.9718 409.004 73.9713 404.377V211.319C73.9718 206.692 75.8442 202.511 78.8754 199.479C81.9078 196.447 86.0896 194.575 90.7156 194.575H230.152C234.779 194.575 238.96 196.447 241.992 199.479C245.024 202.511 246.896 206.692 246.896 211.319V404.377C246.896 409.004 245.024 413.185 241.992 416.217C238.96 419.249 234.779 421.121 230.152 421.121V421.857" fill="#FFE7DE"/>
<path d="M230.152 421.857V421.121C234.779 421.121 238.96 419.249 241.992 416.217C245.024 413.185 246.896 409.004 246.896 404.377V211.319C246.896 206.692 245.024 202.511 241.992 199.479C238.96 196.447 234.779 194.575 230.152 194.575H90.7156C86.0896 194.575 81.9079 196.447 78.8755 199.479C75.8443 202.511 73.9719 206.692 73.9714 211.319V404.377C73.9719 409.004 75.8443 413.185 78.8755 416.217C81.9079 419.249 86.0896 421.121 90.7156 421.121H230.152V421.857H90.7156C81.0615 421.857 73.236 414.032 73.236 404.377V211.319C73.236 201.664 81.0615 193.839 90.7156 193.839H230.152C239.805 193.839 247.632 201.664 247.632 211.319V404.377C247.632 414.032 239.805 421.857 230.152 421.857" fill="#182124"/>
<path d="M263.867 228.541V421.6C263.867 431.263 256.041 439.087 246.379 439.087H106.946C97.2973 439.087 89.4724 431.263 89.4724 421.6V228.541C89.4724 218.892 97.2973 211.068 106.946 211.068H246.379C256.041 211.068 263.867 218.892 263.867 228.541Z" fill="white"/>
<path d="M263.867 228.541H263.131V421.6C263.131 426.231 261.257 430.413 258.225 433.447C255.193 436.479 251.009 438.351 246.379 438.351H106.946C102.322 438.351 98.1427 436.479 95.1109 433.447C92.0807 430.413 90.2084 426.231 90.2079 421.6V228.541C90.2084 223.917 92.0803 219.737 95.1109 216.705C98.1421 213.676 102.322 211.803 106.946 211.803H246.379C251.009 211.803 255.193 213.676 258.227 216.707C261.259 219.737 263.131 223.917 263.131 228.541H263.867H264.601C264.601 218.485 256.448 210.332 246.379 210.332H106.946C96.8907 210.332 88.7375 218.485 88.7369 228.541V421.6C88.7375 431.668 96.8907 439.821 106.946 439.821H246.379C256.448 439.821 264.601 431.668 264.601 421.6V228.541H263.867Z" fill="#1D2A30"/>
<path d="M263.867 228.541V238.88H89.4724V228.541C89.4724 218.892 97.2973 211.068 106.946 211.068H246.379C256.041 211.068 263.867 218.892 263.867 228.541Z" fill="#EE5B28"/>
<path d="M263.867 228.541H263.131V238.144H90.2079V228.541C90.2084 223.917 92.0803 219.737 95.1109 216.705C98.1421 213.676 102.322 211.803 106.946 211.803H246.379C251.009 211.803 255.193 213.676 258.227 216.707C261.259 219.737 263.131 223.917 263.131 228.541H263.867H264.601C264.601 218.485 256.448 210.332 246.379 210.332H106.946C96.8907 210.332 88.7375 218.485 88.7369 228.541V239.616H264.601V228.541H263.867" fill="#1D2A30"/>
<path d="M148.777 258.052H105.873V250.856H148.777V258.052Z" fill="#EE5B28"/>
<path d="M148.777 322.571H105.873V315.375H148.777V322.571Z" fill="#EE5B28"/>
<path d="M148.777 381.077H105.873V373.88H148.777V381.077Z" fill="#EE5B28"/>
<path d="M227.728 273.952H105.873V268.673H227.728V273.952Z" fill="#1D2A30"/>
<path d="M205.756 283.92H105.873V278.776H205.756V283.92Z" fill="#1D2A30"/>
<path d="M218.836 293.851H105.873V288.708H218.836V293.851Z" fill="#1D2A30"/>
<path d="M218.836 303.772H105.873V298.629H218.836V303.772" fill="#1D2A30"/>
<path d="M227.728 332.457H105.873V327.18H227.728V332.457Z" fill="#1D2A30"/>
<path d="M205.756 342.427H105.873V337.283H205.756V342.427Z" fill="#1D2A30"/>
<path d="M218.836 352.357H105.873V347.213H218.836V352.357Z" fill="#1D2A30"/>
<path d="M227.728 396.707H105.873V391.428H227.728V396.707Z" fill="#1D2A30"/>
<path d="M205.756 406.673H105.873V401.531H205.756V406.673Z" fill="#1D2A30"/>
<path d="M218.836 416.605H105.873V411.461H218.836V416.605Z" fill="#1D2A30"/>
<path d="M460.403 77.2041V155.231C460.403 166.747 451.079 176.072 439.563 176.072H259.845C248.343 176.072 239.003 166.747 239.003 155.231V77.2041C239.003 65.6881 248.343 56.3468 259.845 56.3468H439.563C451.079 56.3468 460.403 65.6881 460.403 77.2041" fill="white"/>
<path d="M460.403 77.2041H459.668V155.231C459.668 160.788 457.42 165.809 453.781 169.449C450.141 173.088 445.12 175.336 439.563 175.336H259.845C254.295 175.336 249.272 173.088 245.631 169.449C241.989 165.809 239.739 160.788 239.739 155.231V77.2041C239.739 71.6468 241.989 66.6214 245.631 62.9774C249.273 59.3348 254.295 57.0827 259.845 57.0827H439.563C445.12 57.0827 450.141 59.3348 453.781 62.9761C457.42 66.6201 459.668 71.6454 459.668 77.2041H460.403H461.139C461.139 65.2814 451.485 55.6121 439.563 55.6121H259.845C247.936 55.6134 238.268 65.2801 238.268 77.2041V155.231C238.268 167.153 247.936 176.807 259.845 176.807H439.563C451.485 176.807 461.139 167.152 461.139 155.231V77.2041H460.403" fill="#1D1B19"/>
<path d="M460.403 77.2041V78.9828H239.003V77.2041C239.003 65.6881 248.343 56.3468 259.845 56.3468H439.563C451.079 56.3468 460.403 65.6881 460.403 77.2041" fill="#EE5B28"/>
<path d="M460.403 77.2041H459.668V78.2481H239.739V77.2041C239.739 71.6468 241.989 66.6214 245.631 62.9774C249.273 59.3348 254.295 57.0827 259.845 57.0827H439.563C445.12 57.0827 450.141 59.3348 453.781 62.9761C457.42 66.6201 459.668 71.6454 459.668 77.2041H460.403H461.139C461.139 65.2814 451.485 55.6121 439.563 55.6121H259.845C247.936 55.6134 238.268 65.2801 238.268 77.2041V79.7188H461.139V77.2041H460.403Z" fill="#1D2A30"/>
<path d="M271.529 71.3934C270.283 72.6401 268.261 72.6401 267.013 71.3934C265.767 70.1468 265.767 68.1254 267.013 66.8801C268.261 65.6334 270.283 65.6334 271.529 66.8801C272.775 68.1254 272.775 70.1468 271.529 71.3934Z" fill="#1D2A30"/>
<path d="M286.355 71.3934C285.109 72.6401 283.088 72.6401 281.841 71.3934C280.595 70.1468 280.595 68.1254 281.841 66.8801C283.088 65.6334 285.109 65.6334 286.355 66.8801C287.601 68.1254 287.601 70.1468 286.355 71.3934Z" fill="#1D2A30"/>
<path d="M301.181 71.3934C299.936 72.6401 297.913 72.6401 296.668 71.3934C295.421 70.1468 295.421 68.1254 296.668 66.8801C297.913 65.6334 299.936 65.6334 301.181 66.8801C302.429 68.1254 302.429 70.1468 301.181 71.3934Z" fill="#1D2A30"/>
<path d="M313.725 155.153H307.843C307.436 155.153 307.107 155.483 307.107 155.889C307.107 156.295 307.436 156.624 307.843 156.624H313.725C314.132 156.624 314.461 156.295 314.461 155.889C314.461 155.483 314.132 155.153 313.725 155.153ZM301.959 155.153H296.076C295.669 155.153 295.34 155.483 295.34 155.889C295.34 156.295 295.669 156.624 296.076 156.624H301.959C302.365 156.624 302.695 156.295 302.695 155.889C302.695 155.483 302.365 155.153 301.959 155.153ZM290.192 155.153H284.309C283.903 155.153 283.573 155.483 283.573 155.889C283.573 156.295 283.903 156.624 284.309 156.624H290.192C290.599 156.624 290.928 156.295 290.928 155.889C290.928 155.483 290.599 155.153 290.192 155.153ZM278.427 155.153H272.543C272.136 155.153 271.808 155.483 271.808 155.889C271.808 156.295 272.136 156.624 272.543 156.624H278.427C278.832 156.624 279.161 156.295 279.161 155.889C279.161 155.483 278.832 155.153 278.427 155.153ZM266.66 155.153H260.776C260.371 155.153 260.041 155.483 260.041 155.889C260.041 156.295 260.371 156.624 260.776 156.624H266.66C267.065 156.624 267.395 156.295 267.395 155.889C267.395 155.483 267.065 155.153 266.66 155.153ZM254.893 155.153H253.856V151.779C253.856 151.372 253.527 151.043 253.121 151.043C252.715 151.043 252.385 151.372 252.385 151.779V155.889C252.385 156.083 252.464 156.272 252.601 156.409C252.737 156.547 252.927 156.624 253.121 156.624H254.893C255.299 156.624 255.628 156.295 255.628 155.889C255.628 155.483 255.299 155.153 254.893 155.153ZM253.856 145.895V140.012C253.856 139.605 253.527 139.276 253.121 139.276C252.715 139.276 252.385 139.605 252.385 140.012V145.895C252.385 146.301 252.715 146.631 253.121 146.631C253.527 146.631 253.856 146.301 253.856 145.895ZM253.856 134.128V128.245C253.856 127.839 253.527 127.509 253.121 127.509C252.715 127.509 252.385 127.839 252.385 128.245V134.128C252.385 134.535 252.715 134.864 253.121 134.864C253.527 134.864 253.856 134.535 253.856 134.128ZM253.856 122.361V116.479C253.856 116.073 253.527 115.743 253.121 115.743C252.715 115.743 252.385 116.073 252.385 116.479V122.361C252.385 122.768 252.715 123.097 253.121 123.097C253.527 123.097 253.856 122.768 253.856 122.361ZM253.856 110.596V104.712C253.856 104.307 253.527 103.977 253.121 103.977C252.715 103.977 252.385 104.307 252.385 104.712V110.596C252.385 111.001 252.715 111.331 253.121 111.331C253.527 111.331 253.856 111.001 253.856 110.596ZM253.856 98.8294V93.3321H253.121V94.0668H253.507C253.913 94.0668 254.243 93.7374 254.243 93.3321C254.243 92.9254 253.913 92.5961 253.507 92.5961H253.121C252.927 92.5961 252.737 92.6747 252.601 92.8121C252.464 92.9494 252.385 93.1374 252.385 93.3321V98.8294C252.385 99.2348 252.715 99.5641 253.121 99.5641C253.527 99.5641 253.856 99.2348 253.856 98.8294ZM259.389 94.0668H265.273C265.679 94.0668 266.008 93.7374 266.008 93.3321C266.008 92.9254 265.679 92.5961 265.273 92.5961H259.389C258.984 92.5961 258.655 92.9254 258.655 93.3321C258.655 93.7374 258.984 94.0668 259.389 94.0668ZM271.156 94.0668H277.04C277.445 94.0668 277.775 93.7374 277.775 93.3321C277.775 92.9254 277.445 92.5961 277.04 92.5961H271.156C270.751 92.5961 270.421 92.9254 270.421 93.3321C270.421 93.7374 270.751 94.0668 271.156 94.0668V94.0668ZM282.923 94.0668H288.807C289.212 94.0668 289.541 93.7374 289.541 93.3321C289.541 92.9254 289.212 92.5961 288.807 92.5961H282.923C282.516 92.5961 282.188 92.9254 282.188 93.3321C282.188 93.7374 282.516 94.0668 282.923 94.0668ZM294.689 94.0668H300.572C300.979 94.0668 301.308 93.7374 301.308 93.3321C301.308 92.9254 300.979 92.5961 300.572 92.5961H294.689C294.283 92.5961 293.953 92.9254 293.953 93.3321C293.953 93.7374 294.283 94.0668 294.689 94.0668ZM306.456 94.0668H312.339C312.745 94.0668 313.075 93.7374 313.075 93.3321C313.075 92.9254 312.745 92.5961 312.339 92.5961H306.456C306.049 92.5961 305.72 92.9254 305.72 93.3321C305.72 93.7374 306.049 94.0668 306.456 94.0668ZM318.223 94.0668H324.105C324.512 94.0668 324.841 93.7374 324.841 93.3321C324.841 92.9254 324.512 92.5961 324.105 92.5961H318.223C317.816 92.5961 317.487 92.9254 317.487 93.3321C317.487 93.7374 317.816 94.0668 318.223 94.0668ZM324.756 97.8281V103.712C324.756 104.119 325.085 104.447 325.492 104.447C325.899 104.447 326.227 104.119 326.227 103.712V97.8281C326.227 97.4228 325.899 97.0934 325.492 97.0934C325.085 97.0934 324.756 97.4228 324.756 97.8281V97.8281ZM324.756 109.595V115.477C324.756 115.884 325.085 116.213 325.492 116.213C325.899 116.213 326.227 115.884 326.227 115.477V109.595C326.227 109.189 325.899 108.86 325.492 108.86C325.085 108.86 324.756 109.189 324.756 109.595ZM324.756 121.361V127.244C324.756 127.651 325.085 127.98 325.492 127.98C325.899 127.98 326.227 127.651 326.227 127.244V121.361C326.227 120.955 325.899 120.625 325.492 120.625C325.085 120.625 324.756 120.955 324.756 121.361ZM324.756 133.128V139.011C324.756 139.417 325.085 139.747 325.492 139.747C325.899 139.747 326.227 139.417 326.227 139.011V133.128C326.227 132.721 325.899 132.392 325.492 132.392C325.085 132.392 324.756 132.721 324.756 133.128ZM324.756 144.895V150.777C324.756 151.184 325.085 151.513 325.492 151.513C325.899 151.513 326.227 151.184 326.227 150.777V144.895C326.227 144.488 325.899 144.159 325.492 144.159C325.085 144.159 324.756 144.488 324.756 144.895V144.895ZM325.492 155.153H319.608C319.203 155.153 318.873 155.483 318.873 155.889C318.873 156.295 319.203 156.624 319.608 156.624H325.492C325.899 156.624 326.227 156.295 326.227 155.889C326.227 155.483 325.899 155.153 325.492 155.153Z" fill="#1D2A30"/>
<path d="M419.948 97.7255H336.657V93.3321H419.948V97.7255Z" fill="#1D2A30"/>
<path d="M400.547 106.836H336.657V102.443H400.547V106.836Z" fill="#1D2A30"/>
<path d="M431.795 115.947H336.657V111.501H431.795V115.947Z" fill="#1D2A30"/>
<path d="M417.669 124.797H336.657V120.352H417.669V124.797Z" fill="#1D2A30"/>
<path d="M355.201 530.767C355.201 530.767 316.533 541.856 311.136 543.768C306.224 545.503 292.913 550.166 282.927 548.724C281.94 548.578 280.985 548.372 280.072 548.105C269.953 545.092 265.408 542.281 264.085 535.914C262.747 529.531 267.792 524.868 272.645 521.867C277.499 518.867 303.827 515.733 303.827 515.733L310.18 517.602H310.195L355.201 530.767" fill="#EE5B28"/>
<path d="M282.927 548.724C281.94 548.578 280.985 548.372 280.072 548.105C269.953 545.092 265.408 542.281 264.085 535.914C262.747 529.531 267.792 524.868 272.645 521.867C277.499 518.867 303.827 515.733 303.827 515.733L310.18 517.602C304.429 520.249 282.985 521.72 278.308 524.412C273.631 527.103 271.365 532.178 274.131 539.032C275.601 542.679 279.543 546.209 282.927 548.724Z" fill="white"/>
<path d="M349.199 531.629C349.196 531.631 341.931 533.514 333.223 535.999C324.509 538.487 314.371 541.569 308.545 544.004C303.079 546.293 295.107 547.98 287.525 547.978C283.493 547.979 279.569 547.502 276.192 546.412C272.813 545.323 269.995 543.629 268.096 541.217C265.745 538.231 264.817 535.447 264.816 532.978C264.817 530.236 265.961 527.831 267.771 525.921C269.579 524.014 272.052 522.633 274.615 522.014C281.155 520.424 293.391 518.05 302.135 518.054C303.783 518.054 305.304 518.137 306.631 518.323C307.032 518.379 307.404 518.097 307.46 517.696C307.516 517.293 307.235 516.921 306.833 516.866C305.416 516.668 303.832 516.583 302.135 516.583C293.147 516.587 280.893 518.979 274.268 520.584C271.435 521.272 268.729 522.778 266.704 524.908C264.681 527.035 263.344 529.814 263.345 532.978C263.344 535.825 264.431 538.944 266.941 542.128C269.076 544.836 272.171 546.661 275.741 547.812C279.315 548.964 283.377 549.448 287.525 549.448C295.325 549.445 303.421 547.737 309.113 545.361C314.803 542.98 324.94 539.892 333.627 537.414C337.971 536.173 341.957 535.083 344.857 534.303C347.757 533.523 349.564 533.055 349.568 533.054C349.961 532.952 350.197 532.55 350.096 532.157C349.993 531.764 349.592 531.528 349.2 531.629" fill="#1D2A30"/>
<path d="M283.863 547.55L283.753 547.49C283.191 547.167 280.552 545.581 278.089 543.092C275.617 540.597 273.369 537.233 273.377 533.378C273.377 532.007 273.653 530.561 274.315 529.031C275.112 527.18 276.833 525.825 279.256 524.781C282.879 523.217 287.955 522.44 293.04 521.651C298.131 520.852 303.231 520.043 307.044 518.26C307.412 518.087 307.569 517.649 307.397 517.281C307.224 516.914 306.787 516.756 306.419 516.928C301.737 519.138 294.391 519.854 287.755 521.017C284.433 521.605 281.28 522.311 278.675 523.431C276.079 524.547 273.977 526.108 272.964 528.447C272.228 530.151 271.905 531.807 271.905 533.378C271.905 535.745 272.633 537.905 273.699 539.792C276.909 545.443 283.107 548.803 283.155 548.84C283.512 549.036 283.959 548.905 284.153 548.549C284.349 548.193 284.219 547.747 283.863 547.55" fill="#1D2A30"/>
<path d="M472.968 550.519C472.572 554.475 471.175 558.269 467.175 560.623C464.512 562.197 460.717 563.137 455.291 563.079C441.729 562.903 416.24 553.211 416.24 553.211L392.369 540.017L404.783 520.367L408.18 514.984L416.96 516.955C416.96 516.955 424.227 521.073 431.536 524.352C438.847 527.633 456.584 528.323 462.836 533.383C469.085 538.43 473.645 543.93 472.968 550.519" fill="#EE5B28"/>
<path d="M472.968 550.519C472.572 554.475 471.175 558.269 467.175 560.623C467.924 557.548 468.541 553.299 466.497 548.709C463.849 542.723 455.157 537.443 443.744 536.56C432.345 535.678 423.593 530.338 419.019 527.956C415.447 526.103 407.915 522.057 404.783 520.367L408.18 514.984L416.96 516.955C416.96 516.955 424.227 521.073 431.536 524.352C438.847 527.633 456.584 528.323 462.836 533.383C469.085 538.43 473.645 543.93 472.968 550.519" fill="white"/>
<path d="M397.293 544.354C414.364 554.133 433.884 561.176 453.443 563.531C454.752 563.69 456.135 563.808 457.519 563.808C459.153 563.808 460.793 563.643 462.319 563.164C463.844 562.687 465.26 561.884 466.383 560.623C467.947 558.864 468.615 556.526 468.615 554.249C468.615 553.914 468.6 553.581 468.572 553.25C468.292 549.995 466.785 547.1 464.643 544.725C462.497 542.349 459.715 540.475 456.8 539.221C451.004 536.737 444.716 536.161 438.777 534.825C432.865 533.5 427.124 531.4 421.751 528.597C417.479 526.375 413.252 523.588 408.312 522.536C407.221 522.305 406.088 522.187 404.951 522.187C402.919 522.187 400.876 522.566 399.056 523.384C397.239 524.203 395.64 525.472 394.561 527.237C394.349 527.584 394.459 528.037 394.805 528.249C395.151 528.461 395.604 528.352 395.816 528.005C396.721 526.526 398.063 525.447 399.66 524.725C401.256 524.005 403.103 523.656 404.951 523.657C405.984 523.657 407.019 523.766 408.008 523.975C412.588 524.938 416.715 527.621 421.071 529.902C426.557 532.763 432.419 534.907 438.456 536.261C444.52 537.614 450.713 538.202 456.22 540.573C458.957 541.748 461.575 543.519 463.551 545.711C465.528 547.905 466.86 550.504 467.107 553.376C467.132 553.666 467.144 553.957 467.144 554.249C467.145 556.245 466.549 558.229 465.285 559.644C464.364 560.676 463.208 561.343 461.879 561.761C460.551 562.179 459.053 562.337 457.519 562.337C456.219 562.337 454.892 562.225 453.619 562.071C434.291 559.745 414.94 552.769 398.024 543.078C397.672 542.875 397.223 542.997 397.02 543.349C396.819 543.703 396.94 544.152 397.293 544.354" fill="#1D2A30"/>
<path d="M464.577 562.452C469.141 560.105 472.916 555.808 473.701 550.626C473.8 549.966 473.848 549.304 473.848 548.645C473.837 543.212 470.64 538.085 466.361 534.799C461.575 531.133 455.672 529.451 449.919 528.252C444.165 527.059 438.36 526.26 433.029 524.173C429.521 522.805 425.98 520.836 422.372 519.191C418.765 517.549 415.077 516.22 411.245 516.217C409.936 516.217 408.612 516.375 407.28 516.728C406.887 516.832 406.653 517.235 406.757 517.628C406.861 518.02 407.264 518.255 407.657 518.149C408.86 517.831 410.053 517.69 411.245 517.688C414.727 517.685 418.227 518.916 421.763 520.53C425.299 522.138 428.859 524.123 432.493 525.544C438.045 527.709 443.935 528.508 449.62 529.692C455.304 530.871 460.983 532.524 465.467 535.966C469.455 539.017 472.387 543.812 472.377 548.645C472.377 549.232 472.335 549.821 472.247 550.408C471.568 554.995 468.129 558.979 463.907 561.143C463.545 561.328 463.403 561.772 463.588 562.133C463.773 562.495 464.216 562.637 464.577 562.452" fill="#1D2A30"/>
<path d="M417.019 431.824C415.621 432.544 421.035 417.543 418.46 414.145C415.887 410.732 408.18 411.071 408.18 411.071L408.843 406.968C408.931 406.511 413.416 383.508 413.416 383.508L414.931 381.7C414.931 381.7 430.639 408.629 433.449 418.116C433.449 418.116 416.328 431.824 417.019 431.824M315.475 411.997C312.504 414.1 314.092 422.264 314.092 422.264L309.032 417.808L321.727 386.597L327.139 410.556C327.139 410.556 318.447 409.909 315.475 411.997M424.595 337.163L384.205 321.793L383.705 321.601C383.705 321.601 383.852 320.528 383.971 318.969C384.221 315.748 384.352 310.497 382.839 308.717C380.588 306.085 374.204 308.291 367.983 305.437C361.761 302.584 350.244 307.688 350.244 307.688C350.244 307.688 341.935 306.157 338.273 312.159C336.405 316.997 337.052 324.205 337.052 324.205C337.052 324.205 336.788 324.308 336.288 324.485C331.477 326.279 305.296 336.133 299.752 340.091C293.633 344.429 286.868 388.921 284.691 401.981C282.513 415.056 278.647 426.824 280.617 431.324C282.573 435.811 310.709 457.476 326.889 463.064C343.068 468.668 400.472 467.021 400.472 467.021C400.472 467.021 401.413 466.769 403.076 466.242C412.784 463.123 447.231 450.283 465.497 419.999C465.497 419.999 447.803 361.961 424.595 337.163" fill="#FFE7DE"/>
<path d="M348.337 239.817L327.493 261.948C327.493 261.948 324.619 264.489 325.76 270.909C326.903 277.329 329.564 282.845 331.572 283.272C333.583 283.701 336.4 283.705 336.4 283.705C336.4 283.705 340.867 293.385 344.031 297.191C344.031 297.191 345.133 312.132 344.545 316.28C344.545 316.28 352.035 322.823 359.088 323.655C366.143 324.487 377.041 313.677 377.041 313.677L379.743 300.447C379.743 300.447 386.137 290.74 386.573 288.156C387.011 285.572 389.933 286.235 391.369 284.96C392.805 283.687 396.131 277.984 396.68 272.597C397.229 267.211 397.268 261.023 391.011 262.84C385.588 261.383 388.983 249.92 388.983 249.92L379.455 241.513L348.337 239.817" fill="white"/>
<path d="M383.961 319.097C383.964 319.056 383.968 319.012 383.971 318.969C384.221 315.748 384.352 310.497 382.839 308.717C384.377 310.519 384.216 315.887 383.961 319.097" fill="#8E989B"/>
<path d="M364.703 343.045L360.173 329.117L357.687 343.045C352.685 340.869 337.435 327.647 337.435 327.647C337.435 327.647 336.919 326.412 336.288 324.485C336.788 324.308 337.052 324.205 337.052 324.205C337.052 324.205 336.944 322.999 336.944 321.241C336.944 318.704 337.169 315.017 338.273 312.159C338.304 312.108 338.335 312.059 338.367 312.009C338.371 312.003 338.375 311.996 338.379 311.991C338.399 311.957 338.42 311.927 338.441 311.895C340.036 309.469 342.416 308.347 344.621 307.857C344.747 311.292 344.779 314.635 344.545 316.28C344.545 316.28 352.035 322.823 359.088 323.655C359.349 323.685 359.616 323.7 359.888 323.7C366.936 323.7 377.041 313.677 377.041 313.677L378.356 307.243C380.337 307.379 381.927 307.652 382.839 308.717C384.352 310.497 384.221 315.748 383.971 318.969L383.132 324.205L379.665 328.919C374.037 335.352 364.703 343.045 364.703 343.045" fill="#EE5B28"/>
<path d="M359.888 323.7C359.616 323.7 359.349 323.685 359.088 323.655C352.035 322.823 344.545 316.28 344.545 316.28C344.779 314.635 344.747 311.292 344.621 307.857C345.816 307.592 346.96 307.513 347.901 307.513C349.297 307.513 350.244 307.688 350.244 307.688C350.244 307.688 357.279 304.571 363.321 304.571C365.011 304.571 366.624 304.815 367.983 305.437C371.684 307.135 375.444 307.041 378.356 307.243L377.041 313.677C377.041 313.677 366.936 323.7 359.888 323.7Z" fill="white"/>
<path d="M403.076 466.242L393.869 456.68L396.913 420.528L404.359 356.865C405.141 350.177 401.732 343.715 395.796 340.539C387.26 335.968 377.161 332.323 377.161 332.323L379.665 328.919C381.168 327.2 382.407 325.572 383.132 324.205C383.529 323.455 383.883 322.647 384.205 321.793L424.595 337.163C447.803 361.961 465.497 419.999 465.497 419.999C447.231 450.283 412.784 463.123 403.076 466.242M416.784 431.469C416.784 431.715 416.829 431.849 416.932 431.849C416.957 431.849 416.987 431.841 417.019 431.824C417.005 431.824 416.999 431.82 416.999 431.809C416.991 431.295 433.449 418.116 433.449 418.116C430.639 408.629 414.931 381.7 414.931 381.7L413.416 383.508C413.416 383.508 412.823 386.552 412.063 390.448C411.969 390.927 411.873 391.42 411.776 391.92C410.485 398.54 408.895 406.697 408.843 406.968L408.18 411.071C408.18 411.071 408.392 411.061 408.756 411.061C410.592 411.061 416.312 411.297 418.46 414.145C418.969 414.816 419.165 415.939 419.165 417.304C419.163 422.039 416.785 429.687 416.784 431.469" fill="#FFE7DE"/>
<path d="M383.705 321.601C383.707 321.591 383.844 320.572 383.961 319.097C383.845 320.579 383.707 321.592 383.705 321.601Z" fill="#FFE7DE"/>
<path d="M379.665 328.919L383.132 324.205C382.407 325.572 381.168 327.2 379.665 328.919Z" fill="#FFE7DE"/>
<path d="M383.132 324.205L383.971 318.969C383.968 319.012 383.964 319.056 383.961 319.097C383.844 320.572 383.707 321.591 383.705 321.601L384.205 321.793C383.883 322.647 383.529 323.455 383.132 324.205" fill="#FFE7DE"/>
<path d="M319.476 440.576C319.476 440.576 301.355 426.117 293.884 426.117C286.427 426.117 287.751 423.72 293.884 414.145C300.016 404.555 306.641 372.288 306.641 372.288L304.612 345.279C310.367 352.339 318.087 375.468 321.647 386.793L320.16 390.448L319.561 391.92L309.032 417.808L314.092 422.264C314.092 422.264 313.668 420.085 313.668 417.689C313.668 415.447 314.039 413.015 315.475 411.997C317.309 410.708 321.324 410.461 324.128 410.461C325.865 410.461 327.139 410.556 327.139 410.556L322.095 388.229C323.04 391.269 323.593 393.156 323.593 393.156L329.875 414.145L318.077 428.515L319.476 440.576" fill="#FFE7DE"/>
<path d="M322.095 388.229C321.953 387.775 321.804 387.297 321.647 386.793L321.727 386.597L322.095 388.229Z" fill="#CECDCC"/>
<path d="M343.3 297.265C343.3 297.267 343.331 297.573 343.379 298.117C343.523 299.748 343.811 303.479 343.811 307.105C343.812 309.519 343.679 311.897 343.313 313.516C343.224 313.913 343.473 314.307 343.871 314.395C344.267 314.484 344.66 314.235 344.748 313.839C345.156 312.011 345.28 309.576 345.281 307.105C345.281 302.171 344.764 297.129 344.763 297.116C344.721 296.712 344.36 296.417 343.956 296.459C343.552 296.5 343.257 296.861 343.3 297.265" fill="#1D2A30"/>
<path d="M378.931 312.153L378.929 312.029C378.928 311.192 378.988 306.236 380.168 301.528C380.267 301.133 380.027 300.735 379.632 300.636C379.239 300.537 378.839 300.777 378.741 301.171C377.511 306.095 377.46 311.127 377.459 312.029L377.46 312.171C377.464 312.577 377.797 312.903 378.204 312.897C378.611 312.892 378.935 312.559 378.931 312.153Z" fill="#1D2A30"/>
<path d="M380.651 248.713L380.719 248.799C381.061 249.24 382.651 251.337 384.141 254.045C385.637 256.748 387.009 260.077 387 262.861C387 263.013 386.996 263.164 386.988 263.313C386.687 268.915 386.251 275.453 386.251 282.021C386.251 283.061 386.261 284.103 386.285 285.141L386.287 285.285C386.293 286.996 385.576 289.328 384.363 291.823C382.547 295.569 379.644 299.703 376.633 302.996C375.129 304.643 373.597 306.08 372.173 307.157C370.753 308.236 369.431 308.943 368.427 309.161C365.887 309.727 363.513 310.111 361.359 310.109C358.197 310.101 355.555 309.316 353.305 307.077C349.333 303.108 345.303 297.509 340.035 290.308C338.349 288.013 337.316 284.651 336.739 281.225C336.156 277.799 336.013 274.315 336.015 271.756C336.015 270.563 336.045 269.569 336.076 268.877C336.107 268.184 336.137 267.801 336.136 267.8C336.168 267.395 335.865 267.041 335.46 267.009C335.056 266.977 334.701 267.28 334.671 267.685C334.669 267.7 334.544 269.317 334.544 271.756C334.544 274.369 334.687 277.924 335.288 281.471C335.895 285.019 336.943 288.564 338.848 291.177C344.113 298.372 348.16 304.009 352.265 308.117C354.813 310.676 357.96 311.589 361.359 311.581C363.687 311.58 366.155 311.172 368.745 310.597C370.54 310.188 372.521 308.885 374.599 307.071C377.703 304.344 380.959 300.424 383.467 296.436C384.719 294.441 385.784 292.431 386.541 290.535C387.297 288.637 387.755 286.859 387.757 285.285L387.756 285.107C387.732 284.081 387.721 283.052 387.721 282.021C387.721 275.517 388.153 269.008 388.456 263.393C388.467 263.216 388.471 263.04 388.471 262.861C388.46 259.403 386.771 255.687 385.12 252.783C383.463 249.884 381.816 247.816 381.801 247.797C381.548 247.479 381.085 247.427 380.768 247.68C380.451 247.932 380.397 248.395 380.651 248.713" fill="#1D2A30"/>
<path d="M364.021 273.635C363.651 275.725 363.464 277.849 363.464 279.972C363.464 280.295 363.468 280.617 363.477 280.939C363.539 282.991 363.812 285.356 365.444 287.04C365.879 287.48 366.344 287.828 366.68 288.164C367.023 288.505 367.201 288.787 367.24 289.083L367.248 289.204C367.248 289.439 367.155 289.7 366.957 289.972C366.763 290.24 366.472 290.5 366.165 290.696H366.164C365.464 291.157 364.485 291.48 363.611 292.227C363.304 292.493 363.272 292.959 363.539 293.264C363.805 293.571 364.269 293.603 364.576 293.336C365.147 292.825 366.043 292.508 366.957 291.935C367.396 291.653 367.816 291.289 368.147 290.837C368.473 290.388 368.717 289.832 368.719 289.204L368.697 288.887C368.591 288.112 368.148 287.549 367.716 287.121C367.277 286.688 366.816 286.341 366.493 286.011C365.315 284.829 364.992 282.859 364.947 280.9C364.939 280.591 364.935 280.281 364.935 279.972C364.935 277.935 365.113 275.897 365.469 273.892C365.541 273.492 365.275 273.111 364.875 273.04C364.475 272.968 364.093 273.235 364.021 273.635" fill="#1D2A30"/>
<path d="M353.145 293.729C353.159 293.804 353.38 295.195 354.535 296.741C355.683 298.289 357.799 299.96 361.395 300.513C361.796 300.576 362.172 300.301 362.235 299.9C362.297 299.499 362.023 299.123 361.621 299.06C358.373 298.547 356.671 297.131 355.712 295.861C355.236 295.224 354.955 294.617 354.793 294.177C354.713 293.957 354.663 293.78 354.633 293.661L354.604 293.531L354.599 293.504L354.589 293.505L354.599 293.504L354.589 293.505L354.599 293.504C354.536 293.103 354.16 292.827 353.759 292.889C353.357 292.952 353.083 293.328 353.145 293.729" fill="#1D2A30"/>
<path d="M354.584 277.655C354.584 279.129 353.947 280.324 353.16 280.324C352.373 280.324 351.736 279.129 351.736 277.655C351.736 276.18 352.373 274.984 353.16 274.984C353.947 274.984 354.584 276.18 354.584 277.655Z" fill="#1D2A30"/>
<path d="M374.997 278.296C374.997 279.771 374.359 280.967 373.572 280.967C372.787 280.967 372.148 279.771 372.148 278.296C372.148 276.821 372.787 275.627 373.572 275.627C374.359 275.627 374.997 276.821 374.997 278.296Z" fill="#1D2A30"/>
<path d="M371.919 272.871L371.664 272.616L371.916 272.873L371.919 272.871L371.664 272.616L371.916 272.873C371.941 272.848 372.576 272.236 373.537 271.661C374.501 271.08 375.773 270.561 377.057 270.567C377.803 270.569 378.56 270.724 379.372 271.152C380.183 271.583 381.059 272.3 381.96 273.487C382.451 274.133 383.373 274.26 384.02 273.769C384.667 273.279 384.793 272.356 384.303 271.708C383.193 270.244 381.993 269.211 380.749 268.553C379.508 267.893 378.235 267.623 377.057 267.625C374.939 267.632 373.163 268.444 371.908 269.209C370.651 269.983 369.895 270.737 369.839 270.791C369.264 271.365 369.264 272.297 369.839 272.871C370.413 273.445 371.344 273.445 371.919 272.871" fill="#1D2A30"/>
<path d="M357.936 270.98C357.865 270.903 357.301 270.28 356.26 269.651C355.224 269.023 353.685 268.389 351.752 268.389C349.82 268.385 347.549 269.037 345.137 270.76C344.475 271.231 344.32 272.149 344.791 272.811C345.261 273.473 346.18 273.628 346.841 273.157C348.855 271.732 350.469 271.335 351.752 271.331C353.033 271.331 354.039 271.747 354.741 272.169C355.089 272.379 355.357 272.589 355.529 272.74L355.712 272.909L355.747 272.944L355.748 272.947L356.392 272.357L355.74 272.937L355.748 272.947L356.392 272.357L355.74 272.937C356.281 273.544 357.211 273.597 357.817 273.056C358.424 272.516 358.476 271.587 357.936 270.98" fill="#1D2A30"/>
<path d="M344.545 303.409C344.545 303.409 348.611 314.615 357.689 317.792C366.769 320.971 378.824 304.477 378.824 304.477L378.193 302.332C378.193 302.332 370.295 312.596 361.508 310.845C352.72 309.096 344.031 297.191 344.031 297.191L344.545 303.409" fill="#1D2A30"/>
<path d="M336.155 282.579L336.116 282.592C335.907 282.663 334.869 282.972 333.739 282.969C333.024 282.971 332.285 282.847 331.681 282.519C331.077 282.185 330.575 281.676 330.245 280.729C329.723 279.203 328.784 276.867 327.973 274.313C327.163 271.764 326.492 269 326.496 266.731C326.495 265.793 326.608 264.947 326.849 264.236C327.093 263.523 327.455 262.951 327.972 262.507C328.641 261.939 329.192 261.761 329.695 261.757C330.276 261.756 330.875 262.023 331.471 262.503C332.363 263.217 333.171 264.381 333.727 265.36C334.007 265.849 334.227 266.292 334.376 266.609C334.449 266.768 334.507 266.896 334.544 266.983L334.597 267.109C334.751 267.485 335.179 267.668 335.555 267.516C335.932 267.364 336.113 266.935 335.961 266.559C335.949 266.531 335.351 265.043 334.308 263.513C333.785 262.749 333.152 261.971 332.395 261.359C331.64 260.749 330.732 260.289 329.695 260.287C328.803 260.284 327.876 260.647 327.015 261.389C326.271 262.027 325.765 262.852 325.457 263.763C325.148 264.676 325.025 265.679 325.024 266.731C325.028 269.277 325.743 272.139 326.571 274.757C327.401 277.371 328.356 279.745 328.853 281.204C329.279 282.469 330.077 283.329 330.981 283.812C331.887 284.299 332.865 284.439 333.739 284.44C335.321 284.437 336.6 283.979 336.644 283.965C337.027 283.831 337.228 283.411 337.093 283.028C336.957 282.644 336.537 282.444 336.155 282.579" fill="#1D2A30"/>
<path d="M386.865 286.293C386.899 286.3 387.471 286.413 388.303 286.413C389.168 286.412 390.324 286.293 391.444 285.753C392.563 285.219 393.633 284.213 394.176 282.604C394.673 281.145 395.628 278.771 396.457 276.157C397.285 273.539 398 270.677 398.004 268.131C398.003 267.079 397.88 266.076 397.571 265.163C397.263 264.251 396.757 263.427 396.013 262.789C395.152 262.047 394.225 261.684 393.333 261.687C392.296 261.688 391.388 262.149 390.635 262.757C389.5 263.679 388.636 264.967 388.024 266.031C387.417 267.095 387.076 267.937 387.068 267.957C386.916 268.335 387.097 268.763 387.475 268.915C387.851 269.068 388.28 268.885 388.432 268.509L388.455 268.455C388.576 268.164 389.193 266.765 390.116 265.485C390.575 264.845 391.111 264.239 391.669 263.816C392.231 263.389 392.788 263.157 393.333 263.157C393.836 263.161 394.387 263.339 395.056 263.907C395.573 264.351 395.935 264.923 396.179 265.636C396.42 266.347 396.533 267.193 396.532 268.131C396.536 270.4 395.865 273.164 395.055 275.713C394.245 278.267 393.305 280.603 392.784 282.129C392.353 283.369 391.631 284.02 390.803 284.429C389.976 284.832 389.028 284.944 388.303 284.943C387.955 284.943 387.66 284.919 387.455 284.895L387.223 284.863L387.167 284.853L387.155 284.851C386.757 284.771 386.369 285.029 386.289 285.427C386.209 285.825 386.467 286.213 386.865 286.293" fill="#1D2A30"/>
<path d="M335.28 277.655C336.779 277.587 339.237 276.125 340.028 274.849C340.817 273.572 341.152 272.071 341.408 270.593C341.899 267.761 342.151 264.888 342.161 262.013C342.165 260.891 342.135 259.745 342.461 258.671C342.804 257.552 343.512 256.584 344.272 255.695C346.161 253.481 348.435 251.611 350.232 249.321C352.027 247.032 353.345 244.132 352.861 241.264C352.861 241.264 365.135 252.483 382.827 249.013C392.351 247.145 401.493 238.787 400.38 228.281C399.984 224.543 397.236 221.855 393.669 220.967C388.96 219.796 384.731 222.307 380.464 223.915C372.687 226.848 365.077 221.812 357.221 220.967C350.501 220.244 342.253 221.077 338.755 227.759C338.755 227.759 326.684 229.176 321.399 239.089C316.111 249.003 326.161 262.727 326.161 262.727C326.161 262.727 330.205 257.829 335.404 267.743L335.28 277.655Z" fill="#1D2A30"/>
<path d="M381.987 245.72C381.987 245.72 378.865 261.984 387.011 269.86C387.011 269.86 388.792 264.971 390.6 263.777C390.6 263.777 395.132 255.184 389.173 245.72C383.215 236.255 381.987 245.72 381.987 245.72" fill="#1D2A30"/>
<path d="M333.908 253.16C333.891 253.16 333.875 253.159 333.857 253.157C333.452 253.131 333.147 252.78 333.173 252.375C333.501 247.601 336.095 243.18 339.728 239.94C343.364 236.703 348.064 234.621 352.733 234.617C353.179 234.617 353.624 234.637 354.068 234.676C362.077 235.393 369.785 238.072 377.401 238.072C377.415 238.072 377.428 238.072 377.441 238.072C380.741 238.071 384.021 237.579 387.336 236.231C391.469 234.549 395.077 231.212 396.196 227.019C396.284 226.691 396.581 226.475 396.905 226.475C396.968 226.475 397.033 226.483 397.097 226.5C397.489 226.605 397.721 227.008 397.616 227.401C396.325 232.172 392.353 235.771 387.891 237.592C384.377 239.024 380.891 239.543 377.448 239.543C377.445 239.543 377.444 239.543 377.441 239.543C369.473 239.532 361.72 236.82 353.939 236.141C353.539 236.105 353.137 236.088 352.733 236.088C352.729 236.088 352.724 236.088 352.72 236.088C348.5 236.088 344.101 238.009 340.707 241.039C337.303 244.069 334.929 248.183 334.641 252.475C334.615 252.863 334.292 253.16 333.908 253.16" fill="#45555C"/>
<path d="M326.885 250.655C326.88 250.655 326.875 250.655 326.868 250.655C326.463 250.645 326.14 250.309 326.149 249.903C326.337 242.113 331.435 234.731 338.652 231.796C338.743 231.76 338.836 231.741 338.928 231.741C339.219 231.741 339.493 231.916 339.609 232.201C339.763 232.577 339.58 233.007 339.204 233.159C332.557 235.841 327.773 242.771 327.62 249.936C327.611 250.337 327.284 250.655 326.885 250.655" fill="#45555C"/>
<path d="M340.879 312.656C340.921 312.693 348.407 320.971 358.771 324.896C358.921 324.952 359.081 324.959 359.236 324.913C359.265 324.904 362.688 323.912 366.992 321.721C371.296 319.527 376.493 316.143 380.048 311.279C380.288 310.951 380.216 310.491 379.888 310.252C379.56 310.012 379.1 310.084 378.86 310.412C375.525 314.985 370.512 318.283 366.325 320.411C364.233 321.475 362.351 322.251 360.996 322.759C360.317 323.012 359.772 323.199 359.397 323.321C359.209 323.383 359.065 323.428 358.968 323.459L358.827 323.501L359.031 324.208L359.291 323.52C354.317 321.643 349.971 318.673 346.88 316.173C345.333 314.924 344.101 313.792 343.257 312.976C342.835 312.568 342.511 312.237 342.292 312.012L342.047 311.753L341.968 311.668C341.695 311.367 341.229 311.344 340.928 311.617C340.628 311.891 340.605 312.355 340.879 312.656" fill="#1D2A30"/>
<path d="M362.224 277.655H361.488C361.488 280.761 360.231 283.568 358.196 285.604C356.159 287.64 353.353 288.896 350.247 288.896C347.14 288.896 344.333 287.64 342.297 285.604C340.261 283.568 339.005 280.761 339.004 277.655C339.005 274.548 340.261 271.743 342.297 269.705C344.333 267.669 347.14 266.413 350.247 266.413C353.353 266.413 356.159 267.669 358.196 269.705C360.231 271.741 361.488 274.548 361.488 277.655H362.224H362.959C362.959 270.633 357.268 264.943 350.247 264.943C343.225 264.943 337.535 270.633 337.533 277.655C337.535 284.676 343.225 290.367 350.247 290.367C357.268 290.367 362.959 284.676 362.959 277.655H362.224Z" fill="#1D2A30"/>
<path d="M388.983 277.655H388.247C388.247 280.761 386.989 283.567 384.955 285.604C382.917 287.64 380.112 288.896 377.005 288.896C373.899 288.896 371.093 287.64 369.056 285.604C367.021 283.568 365.764 280.761 365.764 277.655C365.764 274.548 367.021 271.741 369.056 269.705C371.093 267.669 373.899 266.413 377.005 266.413C380.112 266.413 382.917 267.669 384.955 269.705C386.989 271.743 388.247 274.548 388.247 277.655H388.983H389.719C389.717 270.633 384.025 264.943 377.005 264.943C369.984 264.943 364.293 270.633 364.293 277.655C364.293 284.676 369.984 290.367 377.005 290.367C384.025 290.367 389.717 284.676 389.719 277.655H388.983Z" fill="#1D2A30"/>
<path d="M343.885 306.973C343.833 306.984 342.855 307.187 341.589 307.885C340.325 308.584 338.769 309.792 337.629 311.799C337.068 312.799 336.764 314.121 336.568 315.609C336.376 317.095 336.311 318.741 336.311 320.335C336.311 324.176 336.696 327.705 336.697 327.72C336.716 327.889 336.789 328.044 336.911 328.164C336.92 328.173 339.668 330.892 343.591 334.189C347.517 337.488 352.607 341.364 357.367 343.7C357.573 343.801 357.816 343.8 358.023 343.695C358.228 343.591 358.373 343.396 358.413 343.168L360.593 330.908L363.996 343.235C364.06 343.465 364.233 343.652 364.459 343.732C364.683 343.812 364.935 343.777 365.131 343.64C365.144 343.629 368.768 341.067 372.907 337.409C377.045 333.743 381.701 329.021 383.799 324.516L383.86 324.301C383.861 324.285 384.445 319.804 384.445 315.777C384.439 313.755 384.317 311.875 383.815 310.576C383.157 308.891 382.04 307.943 381.041 307.472C380.041 306.996 379.173 306.959 378.885 306.957L378.787 306.96C378.38 306.981 378.068 307.327 378.089 307.732C378.111 308.137 378.456 308.449 378.861 308.429L378.856 308.328L378.859 308.429H378.861L378.856 308.328L378.859 308.429H378.885C379.032 308.428 379.691 308.455 380.407 308.799C381.124 309.148 381.913 309.776 382.447 311.115C382.815 312.019 382.981 313.841 382.975 315.777C382.975 317.723 382.832 319.813 382.688 321.412C382.616 322.211 382.545 322.888 382.491 323.364C382.437 323.841 382.401 324.112 382.401 324.113L383.131 324.208L382.464 323.899C380.567 328.02 376.009 332.715 371.933 336.307C369.896 338.108 367.979 339.644 366.573 340.728C365.871 341.269 365.296 341.699 364.897 341.992C364.499 342.284 364.281 342.439 364.281 342.439L364.705 343.04L365.415 342.844L361.148 327.385C361.056 327.053 360.748 326.831 360.404 326.847C360.06 326.863 359.775 327.113 359.715 327.452L356.965 342.911L357.689 343.04L358.013 342.379C353.453 340.145 348.412 336.323 344.537 333.064C342.599 331.435 340.948 329.945 339.784 328.865C339.201 328.325 338.74 327.887 338.427 327.585C338.112 327.283 337.945 327.119 337.945 327.119L337.428 327.641L338.159 327.561C338.159 327.561 338.136 327.349 338.1 326.965C337.995 325.813 337.781 323.144 337.781 320.335C337.781 318.784 337.847 317.189 338.027 315.797C338.203 314.408 338.511 313.216 338.908 312.525C339.888 310.801 341.213 309.776 342.301 309.172C342.844 308.872 343.325 308.68 343.665 308.564C343.836 308.507 343.969 308.468 344.059 308.444L344.156 308.42L344.177 308.415C344.575 308.335 344.832 307.947 344.752 307.548C344.671 307.151 344.283 306.893 343.885 306.973" fill="#1D2A30"/>
<path d="M327.612 410.967C327.611 410.957 326.541 403.783 324.757 395.135C322.968 386.479 320.487 376.381 317.58 370.4C317.403 370.035 316.963 369.883 316.597 370.06C316.232 370.239 316.08 370.679 316.257 371.044C319.045 376.756 321.547 386.833 323.317 395.432C324.205 399.733 324.915 403.675 325.404 406.537C325.648 407.969 325.836 409.132 325.964 409.936C326.092 410.74 326.157 411.181 326.157 411.183C326.217 411.585 326.592 411.861 326.993 411.803C327.395 411.743 327.672 411.368 327.612 410.967" fill="#1D2A30"/>
<path d="M304.013 345.707C304.013 345.708 304.345 346.172 304.903 346.991C306.573 349.444 310.248 355.048 312.8 360.411C312.975 360.777 313.413 360.933 313.781 360.759C314.148 360.584 314.303 360.145 314.128 359.777C310.641 352.46 305.221 344.871 305.211 344.852C304.975 344.521 304.515 344.444 304.184 344.68C303.853 344.916 303.777 345.376 304.013 345.707" fill="#1D2A30"/>
<path d="M417.732 366.864C419.229 361.179 420.828 356.192 422.385 353.009C422.564 352.645 422.413 352.204 422.048 352.025C421.683 351.848 421.243 351.999 421.064 352.364C419.424 355.723 417.823 360.755 416.309 366.489C416.205 366.881 416.44 367.284 416.833 367.387C417.225 367.491 417.628 367.256 417.732 366.864" fill="#1D2A30"/>
<path d="M408.904 411.189C408.905 411.185 409.097 409.964 409.443 407.872C410.481 401.595 412.905 387.515 415.655 375.396C415.744 375 415.496 374.607 415.1 374.516C414.704 374.427 414.309 374.675 414.22 375.071C410.539 391.3 407.453 410.952 407.452 410.96C407.388 411.361 407.663 411.739 408.064 411.801C408.465 411.864 408.841 411.589 408.904 411.189" fill="#1D2A30"/>
<path d="M414 383.943C416.839 380.152 420.969 377.327 425.532 376.057C425.923 375.949 426.152 375.544 426.043 375.152C425.933 374.761 425.528 374.532 425.137 374.641C420.255 376.001 415.863 379.005 412.823 383.061C412.579 383.385 412.645 383.847 412.971 384.091C413.295 384.333 413.756 384.268 414 383.943" fill="#1D2A30"/>
<path d="M383.437 322.284C383.443 322.285 408.292 332.212 424.357 337.86L424.601 337.165L424.097 337.701L424.145 337.747C425.22 338.797 444.324 358.047 464.792 420.231L465.491 420L464.859 419.624C464.859 419.625 464.788 419.743 464.64 419.979C462.424 423.539 443.285 452.663 409.023 462.361C408.632 462.473 408.405 462.879 408.516 463.271C408.627 463.661 409.033 463.888 409.424 463.778C446.624 453.208 466.075 420.437 466.123 420.376C466.232 420.193 466.256 419.972 466.189 419.771C445.004 355.405 425.213 336.732 425.105 336.631L424.845 336.472C416.84 333.659 406.621 329.768 398.407 326.583C394.3 324.991 390.693 323.575 388.115 322.556C385.535 321.537 383.988 320.92 383.984 320.917C383.607 320.767 383.179 320.951 383.028 321.328C382.877 321.705 383.06 322.133 383.437 322.284Z" fill="#1D2A30"/>
<path d="M416.1 433.556L433.916 418.68L433.445 418.115L433.889 418.7L433.939 418.665C434.475 418.265 439.373 414.863 445.4 414.873C447.601 414.875 449.955 415.317 452.344 416.511C452.707 416.693 453.149 416.545 453.331 416.183C453.512 415.819 453.365 415.377 453.001 415.196C450.395 413.891 447.799 413.403 445.4 413.403C438.384 413.417 433.063 417.492 433 417.529L432.973 417.551L415.157 432.427C414.845 432.687 414.804 433.151 415.064 433.463C415.324 433.775 415.788 433.816 416.1 433.556Z" fill="#1D2A30"/>
<path d="M414.329 382.116C414.329 382.117 414.556 382.451 414.964 383.069C416.393 385.237 420.027 390.869 423.708 397.553C427.389 404.233 431.116 411.981 432.732 418.297C432.833 418.691 433.235 418.928 433.628 418.828C434.021 418.727 434.259 418.325 434.157 417.932C432.235 410.451 427.585 401.325 423.416 394.031C419.245 386.74 415.552 381.3 415.545 381.291C415.317 380.955 414.86 380.867 414.524 381.095C414.188 381.323 414.1 381.78 414.329 382.116" fill="#1D2A30"/>
<path d="M314.76 422.555L309.547 417.583C309.44 417.481 309.311 417.416 309.165 417.391C309.131 417.384 308.319 417.245 306.94 417.245C303.951 417.244 298.272 417.905 292.125 422.027C291.787 422.252 291.697 422.709 291.923 423.047C292.149 423.384 292.607 423.475 292.944 423.248C298.797 419.324 304.16 418.717 306.94 418.716C307.58 418.716 308.081 418.748 308.419 418.78C308.588 418.796 308.716 418.812 308.799 418.823L308.889 418.836L308.912 418.84L309.039 418.115L308.531 418.647L313.745 423.619C314.039 423.899 314.504 423.888 314.784 423.593C315.065 423.3 315.053 422.835 314.76 422.555" fill="#1D2A30"/>
<path d="M309.743 418.329C309.743 418.328 309.843 418.001 310.031 417.4C310.692 415.297 312.435 409.88 314.707 403.797C316.976 397.717 319.783 390.964 322.537 386.231C322.741 385.88 322.623 385.429 322.272 385.225C321.921 385.021 321.471 385.14 321.267 385.491C318.028 391.063 314.809 399.144 312.383 405.856C309.96 412.565 308.337 417.893 308.335 417.901C308.217 418.289 308.436 418.7 308.824 418.819C309.213 418.937 309.624 418.717 309.743 418.329Z" fill="#1D2A30"/>
<path d="M336.788 323.519C336.784 323.52 327.843 326.875 318.455 330.721C313.761 332.645 308.956 334.691 305.092 336.507C303.16 337.415 301.463 338.265 300.124 339.02C298.781 339.784 297.815 340.413 297.245 341.035C296.892 341.447 296.651 341.995 296.339 342.799C295.216 345.768 293.676 352.065 291.953 360.055C289.375 372.027 286.421 387.731 284.08 401.204C282.911 407.94 281.893 414.117 281.152 418.992C280.412 423.876 279.948 427.423 279.881 429.012L279.879 429.172C279.884 430.361 280.387 431.581 281.207 432.871C282.651 435.121 285.131 437.617 288.239 440.248C297.556 448.121 312.541 457.114 321.559 461.88C321.917 462.069 322.363 461.932 322.552 461.573C322.741 461.214 322.605 460.769 322.245 460.58C315.436 456.981 305.128 450.909 296.556 444.793C292.269 441.736 288.415 438.665 285.661 435.909C284.285 434.532 283.184 433.233 282.447 432.079C281.703 430.923 281.344 429.916 281.349 429.172L281.351 429.072C281.391 428.061 281.636 425.947 282.039 423.079C283.452 413.021 286.805 393.513 290.185 376.112C291.876 367.411 293.573 359.232 295.037 353.028C295.769 349.927 296.443 347.317 297.024 345.393C297.315 344.432 297.581 343.641 297.816 343.056C298.043 342.476 298.269 342.084 298.34 342.017C298.647 341.663 299.564 341.019 300.847 340.301C305.365 337.751 314.511 333.88 322.487 330.672C326.479 329.067 330.184 327.621 332.891 326.579C335.597 325.536 337.3 324.897 337.305 324.896C337.685 324.753 337.877 324.329 337.735 323.949C337.592 323.569 337.168 323.376 336.788 323.519" fill="#1D2A30"/>
<path d="M466.464 312.161H425.731C420.92 312.161 417.02 308.263 417.02 303.452V279.555C417.02 274.745 420.92 270.847 425.731 270.847H466.464C471.275 270.847 475.175 274.745 475.175 279.555V303.452C475.175 308.263 471.275 312.161 466.464 312.161" fill="white"/>
<path d="M466.464 312.161V311.427H425.731C423.525 311.427 421.537 310.535 420.092 309.091C418.648 307.645 417.756 305.656 417.756 303.452V279.555C417.756 277.351 418.648 275.363 420.092 273.917C421.537 272.473 423.525 271.583 425.731 271.583H466.464C468.669 271.583 470.657 272.473 472.103 273.917C473.547 275.363 474.439 277.351 474.439 279.555V303.452C474.439 305.656 473.547 307.645 472.103 309.091C470.657 310.535 468.669 311.427 466.464 311.427V312.161V312.897C471.681 312.897 475.909 308.668 475.909 303.452V279.555C475.909 274.339 471.681 270.112 466.464 270.111H425.731C420.513 270.112 416.285 274.339 416.285 279.555V303.452C416.285 308.668 420.513 312.897 425.731 312.897H466.464V312.161" fill="#1D2A30"/>
<path d="M435.392 282.649L424.211 289.669C424.015 289.792 423.888 290.001 423.868 290.232C423.849 290.461 423.94 290.689 424.113 290.843L434.489 300.047C434.793 300.316 435.259 300.288 435.528 299.984C435.797 299.68 435.769 299.216 435.465 298.947L425.824 290.393L436.175 283.896C436.519 283.68 436.623 283.225 436.407 282.881C436.191 282.537 435.736 282.433 435.392 282.649" fill="#1D2A30"/>
<path d="M456.637 300.724L466.687 292.16C466.863 292.011 466.957 291.785 466.943 291.555C466.929 291.324 466.805 291.112 466.612 290.985L455.012 283.38C454.672 283.157 454.217 283.252 453.995 283.592C453.771 283.932 453.867 284.388 454.205 284.611L464.985 291.677L455.683 299.605C455.373 299.868 455.337 300.332 455.6 300.641C455.864 300.951 456.328 300.988 456.637 300.724" fill="#1D2A30"/>
<path d="M441.92 305.657L450.176 279.773C450.299 279.387 450.085 278.972 449.699 278.849C449.312 278.725 448.897 278.94 448.775 279.327L440.519 305.211C440.396 305.597 440.609 306.011 440.996 306.135C441.383 306.259 441.797 306.044 441.92 305.657" fill="#1D2A30"/>
<path d="M363.779 349.552C363.779 350.852 362.727 351.904 361.427 351.904C360.128 351.904 359.076 350.852 359.076 349.552C359.076 348.255 360.128 347.203 361.427 347.203C362.727 347.203 363.779 348.255 363.779 349.552Z" fill="#1D2A30"/>
<path d="M405.144 475.18H323.787C322.735 475.18 321.88 474.325 321.88 473.272C321.88 472.219 322.735 471.366 323.787 471.366H405.144C406.197 471.366 407.051 472.219 407.051 473.272C407.051 474.325 406.197 475.18 405.144 475.18Z" fill="#1D2A30"/>
<path d="M407.992 468.857L418.895 417.657C419.616 414.268 417.031 411.075 413.565 411.075H318.511C315.077 411.075 312.5 414.212 313.165 417.579L322.94 467.073C323.435 469.581 325.605 471.407 328.16 471.466L402.537 473.168C405.156 473.228 407.447 471.419 407.992 468.857" fill="white"/>
<path d="M407.992 468.857L408.711 469.011L419.613 417.811C419.707 417.375 419.751 416.94 419.751 416.512C419.751 413.181 417.051 410.343 413.565 410.339H318.511C315.031 410.343 312.325 413.176 312.324 416.512C312.324 416.909 312.363 417.315 312.444 417.721L322.219 467.216C322.78 470.061 325.244 472.133 328.143 472.2L402.52 473.904L402.664 473.905C405.576 473.905 408.101 471.871 408.711 469.011L407.992 468.857L407.272 468.704C406.808 470.884 404.883 472.435 402.664 472.435L402.555 472.433L328.176 470.731C325.967 470.68 324.089 469.1 323.661 466.931L313.887 417.436C313.825 417.124 313.795 416.815 313.795 416.512C313.795 415.245 314.309 414.069 315.159 413.209C316.009 412.349 317.18 411.811 318.511 411.811H413.565C414.897 411.811 416.068 412.351 416.919 413.211C417.767 414.072 418.28 415.248 418.28 416.512C418.28 416.837 418.247 417.169 418.175 417.505L407.272 468.704L407.992 468.857" fill="#1D2A30"/>
<path d="M373.303 440.58C373.303 444.771 369.904 448.168 365.713 448.168C361.523 448.168 358.125 444.771 358.125 440.58C358.125 436.388 361.523 432.991 365.713 432.991C369.904 432.991 373.303 436.388 373.303 440.58" fill="#1D2A30"/>
<path d="M388.217 416.669H399.512C399.917 416.669 400.247 416.34 400.247 415.935C400.247 415.528 399.917 415.199 399.512 415.199H388.217C387.811 415.199 387.481 415.528 387.481 415.935C387.481 416.34 387.811 416.669 388.217 416.669Z" fill="#1D2A30"/>
<path d="M334.285 416.669H377.155C377.561 416.669 377.891 416.34 377.891 415.935C377.891 415.528 377.561 415.199 377.155 415.199H334.285C333.879 415.199 333.549 415.528 333.549 415.935C333.549 416.34 333.879 416.669 334.285 416.669Z" fill="#1D2A30"/>
<path d="M408.179 523.172L399.512 545.917C399.512 545.917 377.415 540.347 349.101 534.545C319.496 528.479 288.575 520.624 272.536 492.485C270.58 489.054 269.279 485 270.195 481.159C272.509 471.438 285.153 468.802 293.487 467.828C298.719 467.217 303.999 467.014 309.261 466.942C311.945 466.904 320.796 465.497 322.94 467.073C322.94 467.075 328.495 471.161 333.228 473.171C337.96 475.18 407.051 471.366 407.051 471.366C407.051 471.366 409.105 467.028 409.224 463.069C420.084 457.549 445.233 452.875 455.859 454.938C472.569 458.19 482.316 467.936 480.459 478.148C478.603 488.36 441.728 515.745 408.179 523.172" fill="#1D2A30"/>
<path d="M408.367 522.461C408.365 522.461 408.048 522.378 407.445 522.204C403.227 520.993 385.307 515.466 370.4 505.388C362.619 500.133 355.575 494.46 347.905 490.075C340.24 485.692 331.927 482.609 321.703 482.612C319.675 482.612 317.572 482.733 315.385 482.988C314.981 483.035 314.692 483.4 314.739 483.803C314.787 484.207 315.151 484.495 315.555 484.448C317.687 484.2 319.732 484.083 321.703 484.083C331.625 484.085 339.641 487.049 347.176 491.352C354.708 495.654 361.732 501.305 369.576 506.607C386.888 518.297 407.951 523.869 407.989 523.883C408.383 523.987 408.785 523.754 408.889 523.361C408.993 522.968 408.759 522.566 408.367 522.461Z" fill="white"/>
<path d="M366.241 503.968C377.285 500.783 385.323 493.678 394.001 486.967C403.205 479.84 412.921 472.955 423.341 467.684C423.703 467.5 423.848 467.059 423.665 466.696C423.481 466.333 423.039 466.188 422.677 466.372C412.125 471.709 402.339 478.651 393.101 485.803C384.372 492.568 376.485 499.493 365.835 502.555C365.444 502.667 365.219 503.073 365.331 503.464C365.443 503.855 365.851 504.08 366.241 503.968" fill="white"/>
<path d="M362.224 280.285H365.405C365.812 280.285 366.141 279.956 366.141 279.549C366.141 279.144 365.812 278.815 365.405 278.815H362.224C361.817 278.815 361.488 279.144 361.488 279.549C361.488 279.956 361.817 280.285 362.224 280.285Z" fill="#1D2A30"/>
</svg>
