<svg width="170" height="227" viewBox="0 0 170 227" fill="none" xmlns="http://www.w3.org/2000/svg">
<path fill-rule="evenodd" clip-rule="evenodd" d="M122.748 219.225C124.495 219.253 125.89 220.682 125.863 222.415C125.835 224.151 124.395 225.535 122.647 225.507C120.896 225.478 119.505 224.05 119.533 222.313C119.561 220.58 120.997 219.197 122.748 219.225ZM162.491 219.863C164.242 219.891 165.633 221.32 165.605 223.053C165.578 224.789 164.141 226.172 162.39 226.144C160.639 226.116 159.248 224.688 159.276 222.951C159.304 221.218 160.74 219.835 162.491 219.863ZM142.62 219.544C144.37 219.572 145.762 221.001 145.734 222.734C145.706 224.47 144.27 225.853 142.519 225.825C140.768 225.797 139.376 224.369 139.404 222.632C139.432 220.899 140.869 219.516 142.62 219.544ZM63.1301 218.269C64.8811 218.297 66.2725 219.725 66.2447 221.458C66.2168 223.195 64.7803 224.578 63.0293 224.55C61.2784 224.522 59.887 223.093 59.9149 221.357C59.9427 219.624 61.3792 218.241 63.1301 218.269ZM102.873 218.906C104.624 218.935 106.015 220.363 105.988 222.096C105.96 223.832 104.523 225.216 102.772 225.188C101.025 225.16 99.6299 223.731 99.6577 221.994C99.6855 220.262 101.126 218.878 102.873 218.906ZM83.0016 218.588C84.7525 218.616 86.1439 220.044 86.1161 221.777C86.0882 223.514 84.6517 224.897 82.9008 224.869C81.1498 224.841 79.7584 223.412 79.7863 221.676C79.8141 219.943 81.2506 218.559 83.0016 218.588ZM3.26561 217.308C5.01656 217.336 6.40795 218.765 6.38015 220.498C6.35229 222.234 4.91578 223.617 3.16483 223.589C1.41755 223.561 0.0224953 222.133 0.0503578 220.396C0.0781621 218.663 1.51833 217.28 3.26561 217.308ZM43.0118 217.946C44.7627 217.974 46.1541 219.403 46.1263 221.135C46.0985 222.872 44.662 224.255 42.911 224.227C41.1601 224.199 39.7687 222.77 39.7965 221.034C39.8243 219.301 41.2608 217.918 43.0118 217.946ZM23.1404 217.627C24.8876 217.655 26.2827 219.084 26.2549 220.817C26.227 222.553 24.7869 223.936 23.0396 223.908C21.2886 223.88 19.8972 222.452 19.9251 220.715C19.9529 218.982 21.3894 217.599 23.1404 217.627ZM122.693 199.051C123.794 199.068 124.753 199.64 125.307 200.494C125.859 201.068 126.193 201.851 126.179 202.707C126.151 204.444 124.711 205.827 122.964 205.799C121.865 205.781 120.908 205.213 120.354 204.363C119.799 203.786 119.463 203 119.477 202.139C119.505 200.406 120.942 199.023 122.693 199.051ZM162.807 200.156C164.558 200.184 165.95 201.612 165.922 203.345C165.894 205.082 164.457 206.465 162.706 206.437C160.955 206.409 159.564 204.98 159.592 203.244C159.62 201.511 161.056 200.127 162.807 200.156ZM142.564 199.37C143.667 199.387 144.629 199.961 145.183 200.817C145.733 201.392 146.064 202.172 146.05 203.026C146.022 204.763 144.586 206.146 142.835 206.118C141.734 206.1 140.776 205.529 140.223 204.676C139.67 204.102 139.335 203.317 139.349 202.458C139.377 200.725 140.817 199.342 142.564 199.37ZM3.58182 197.601C5.33277 197.629 6.72416 199.057 6.69636 200.79C6.6685 202.527 5.23199 203.91 3.48104 203.882C1.73376 203.854 0.338705 202.425 0.366568 200.689C0.394372 198.956 1.83454 197.573 3.58182 197.601ZM43.328 198.238C45.0789 198.267 46.4703 199.695 46.4425 201.428C46.4147 203.165 44.9782 204.548 43.2272 204.52C41.4763 204.492 40.0849 203.063 40.1127 201.326C40.1405 199.594 41.577 198.21 43.328 198.238ZM23.4566 197.92C25.2038 197.948 26.5989 199.376 26.5711 201.109C26.5432 202.846 25.1031 204.229 23.3558 204.201C21.6048 204.173 20.2134 202.744 20.2413 201.008C20.2691 199.275 21.7056 197.892 23.4566 197.92ZM63.4463 198.561C65.1973 198.589 66.5887 200.018 66.5609 201.751C66.533 203.487 65.0965 204.871 63.3455 204.842C61.5946 204.814 60.2032 203.386 60.2311 201.649C60.2589 199.916 61.6954 198.533 63.4463 198.561ZM102.821 198.732C103.926 198.75 104.888 199.325 105.44 200.183C105.988 200.757 106.317 201.536 106.304 202.389C106.276 204.125 104.839 205.508 103.088 205.48C101.989 205.463 101.028 204.89 100.475 204.035C99.9248 203.461 99.5921 202.678 99.6059 201.82C99.6337 200.087 101.07 198.704 102.821 198.732ZM83.3178 198.88C85.0687 198.908 86.4601 200.337 86.4323 202.07C86.4044 203.806 84.9679 205.189 83.217 205.161C81.466 205.133 80.0746 203.705 80.1025 201.968C80.1303 200.235 81.5668 198.852 83.3178 198.88ZM3.89809 177.89C5.64904 177.918 7.04037 179.35 7.01263 181.079C6.98476 182.816 5.54826 184.199 3.79731 184.171C2.05002 184.143 0.654974 182.714 0.682837 180.978C0.710582 179.248 2.15081 177.862 3.89809 177.89ZM123.009 179.34C124.11 179.357 125.07 179.931 125.623 180.784C126.175 181.359 126.509 182.141 126.495 182.996C126.467 184.733 125.027 186.116 123.28 186.088C122.181 186.07 121.225 185.502 120.671 184.652C120.115 184.075 119.78 183.289 119.794 182.428C119.821 180.698 121.258 179.312 123.009 179.34ZM103.137 179.021C104.242 179.039 105.204 179.615 105.756 180.473C106.304 181.048 106.634 181.827 106.62 182.677C106.592 184.414 105.156 185.797 103.405 185.769C102.305 185.751 101.345 185.179 100.791 184.324C100.241 183.75 99.9084 182.967 99.9221 182.109C99.9499 180.38 101.386 178.993 103.137 179.021ZM163.123 180.444C164.874 180.473 166.266 181.905 166.238 183.634C166.21 185.371 164.774 186.754 163.023 186.726C161.272 186.698 159.88 185.269 159.908 183.532C159.936 181.803 161.372 180.416 163.123 180.444ZM43.6443 178.527C45.3952 178.556 46.7865 179.988 46.7588 181.717C46.7309 183.453 45.2944 184.837 43.5435 184.809C41.7925 184.781 40.4011 183.352 40.429 181.615C40.4568 179.886 41.8933 178.499 43.6443 178.527ZM142.88 179.659C143.984 179.676 144.945 180.251 145.499 181.107C146.049 181.682 146.38 182.463 146.367 183.315C146.339 185.052 144.902 186.435 143.151 186.407C142.051 186.389 141.092 185.818 140.539 184.965C139.986 184.391 139.651 183.606 139.665 182.747C139.693 181.017 141.133 179.631 142.88 179.659ZM63.7626 178.85C65.5136 178.878 66.9049 180.311 66.8771 182.04C66.8493 183.776 65.4128 185.16 63.6618 185.131C61.9109 185.103 60.5195 183.675 60.5473 181.938C60.5751 180.209 62.0117 178.822 63.7626 178.85ZM83.634 179.169C85.385 179.197 86.7763 180.629 86.7486 182.359C86.7207 184.095 85.2842 185.478 83.5333 185.45C81.7823 185.422 80.3909 183.994 80.4188 182.257C80.4465 180.528 81.8831 179.141 83.634 179.169ZM23.7728 178.209C25.5201 178.237 26.9151 179.669 26.8874 181.398C26.8595 183.135 25.4193 184.518 23.672 184.49C21.9211 184.462 20.5297 183.033 20.5576 181.297C20.5853 179.567 22.0219 178.18 23.7728 178.209ZM64.0788 159.143C65.8298 159.171 67.2212 160.599 67.1933 162.332C67.1655 164.069 65.729 165.452 63.978 165.424C62.2271 165.396 60.8357 163.967 60.8635 162.231C60.8914 160.498 62.3279 159.115 64.0788 159.143ZM103.454 159.313C104.558 159.331 105.519 159.906 106.072 160.763C106.62 161.338 106.95 162.117 106.936 162.97C106.908 164.707 105.472 166.09 103.721 166.062C102.623 166.044 101.663 165.473 101.109 164.62C100.558 164.043 100.225 163.26 100.238 162.401C100.266 160.669 101.703 159.285 103.454 159.313ZM163.44 160.737C165.191 160.765 166.582 162.194 166.554 163.927C166.526 165.663 165.09 167.046 163.339 167.018C161.588 166.99 160.197 165.562 160.224 163.825C160.252 162.092 161.689 160.709 163.44 160.737ZM4.2143 158.182C5.96525 158.21 7.35664 159.639 7.32884 161.372C7.30097 163.108 5.86447 164.492 4.11352 164.463C2.36623 164.435 0.971184 163.007 0.999047 161.27C1.02685 159.537 2.46702 158.154 4.2143 158.182ZM43.9605 158.82C45.7114 158.848 47.1028 160.277 47.075 162.01C47.0471 163.746 45.6106 165.129 43.8597 165.101C42.1087 165.073 40.7174 163.644 40.7452 161.908C40.773 160.175 42.2095 158.792 43.9605 158.82ZM123.325 159.632C124.426 159.65 125.385 160.221 125.938 161.074C126.491 161.65 126.825 162.432 126.811 163.289C126.783 165.025 125.343 166.409 123.596 166.381C122.499 166.363 121.542 165.795 120.988 164.946C120.432 164.369 120.096 163.583 120.11 162.72C120.138 160.987 121.574 159.604 123.325 159.632ZM143.197 159.951C144.299 159.969 145.261 160.542 145.815 161.397C146.365 161.972 146.696 162.753 146.683 163.608C146.655 165.344 145.218 166.727 143.467 166.699C142.368 166.682 141.411 166.112 140.857 165.261C140.303 164.684 139.967 163.9 139.981 163.039C140.009 161.306 141.449 159.923 143.197 159.951ZM83.9502 159.462C85.7012 159.49 87.0926 160.918 87.0648 162.651C87.0369 164.388 85.6004 165.771 83.8495 165.743C82.0985 165.715 80.7071 164.286 80.735 162.55C80.7628 160.817 82.1993 159.434 83.9502 159.462ZM24.089 158.501C25.8363 158.529 27.2314 159.958 27.2036 161.691C27.1757 163.427 25.7355 164.81 23.9883 164.782C22.2373 164.754 20.8459 163.326 20.8738 161.589C20.9016 159.856 22.3381 158.473 24.089 158.501ZM64.395 139.435C66.146 139.463 67.5374 140.892 67.5096 142.625C67.4818 144.358 66.0452 145.745 64.2942 145.717C62.5433 145.688 61.152 144.256 61.1798 142.523C61.2076 140.79 62.6441 139.407 64.395 139.435ZM104.138 140.073C105.889 140.101 107.28 141.53 107.252 143.263C107.225 144.995 105.788 146.382 104.037 146.354C102.29 146.326 100.895 144.894 100.923 143.161C100.95 141.428 102.391 140.045 104.138 140.073ZM124.013 140.392C125.76 140.42 127.155 141.849 127.128 143.581C127.1 145.314 125.66 146.701 123.912 146.673C122.161 146.645 120.77 145.213 120.798 143.48C120.826 141.747 122.262 140.364 124.013 140.392ZM84.2665 139.754C86.0174 139.782 87.4088 141.211 87.381 142.944C87.3532 144.677 85.9166 146.063 84.1657 146.035C82.4147 146.007 81.0234 144.575 81.0512 142.842C81.079 141.109 82.5155 139.726 84.2665 139.754ZM4.53051 138.475C6.28146 138.503 7.67285 139.931 7.64505 141.664C7.61724 143.397 6.18068 144.784 4.42973 144.756C2.68244 144.728 1.28745 143.296 1.31526 141.563C1.34306 139.83 2.78323 138.447 4.53051 138.475ZM163.756 141.03C165.507 141.058 166.898 142.486 166.87 144.219C166.843 145.952 165.406 147.339 163.655 147.311C161.904 147.283 160.513 145.85 160.541 144.118C160.568 142.385 162.005 141.001 163.756 141.03ZM44.2767 139.113C46.0276 139.141 47.419 140.569 47.3912 142.302C47.3634 144.035 45.9269 145.422 44.1759 145.394C42.425 145.366 41.0336 143.933 41.0614 142.201C41.0892 140.468 42.5257 139.084 44.2767 139.113ZM24.4053 138.794C26.1525 138.822 27.5476 140.25 27.5198 141.983C27.492 143.716 26.0518 145.103 24.3045 145.075C22.5535 145.047 21.1622 143.615 21.19 141.882C21.2178 140.149 22.6543 138.766 24.4053 138.794ZM143.884 140.711C145.635 140.739 147.027 142.167 146.999 143.9C146.971 145.633 145.535 147.02 143.784 146.992C142.033 146.964 140.641 145.532 140.669 143.799C140.697 142.066 142.133 140.683 143.884 140.711ZM164.072 121.319C165.823 121.347 167.214 122.776 167.187 124.508C167.159 126.245 165.722 127.628 163.971 127.6C162.22 127.572 160.829 126.143 160.857 124.407C160.885 122.674 162.321 121.291 164.072 121.319ZM144.201 121C145.952 121.028 147.343 122.457 147.315 124.19C147.287 125.926 145.851 127.309 144.1 127.281C142.349 127.253 140.958 125.825 140.985 124.088C141.013 122.355 142.45 120.972 144.201 121ZM64.7113 119.725C66.4622 119.753 67.8536 121.181 67.8258 122.914C67.798 124.651 66.3615 126.034 64.6105 126.006C62.8596 125.978 61.4682 124.549 61.496 122.813C61.5238 121.08 62.9603 119.697 64.7113 119.725ZM104.454 120.362C106.205 120.39 107.596 121.819 107.569 123.552C107.541 125.288 106.104 126.672 104.353 126.643C102.606 126.615 101.211 125.187 101.239 123.45C101.267 121.717 102.707 120.334 104.454 120.362ZM84.5827 120.043C86.3337 120.072 87.7251 121.5 87.6973 123.233C87.6694 124.97 86.2329 126.353 84.4819 126.325C82.731 126.297 81.3396 124.868 81.3675 123.131C81.3953 121.399 82.8318 120.015 84.5827 120.043ZM124.329 120.681C126.077 120.709 127.472 122.138 127.444 123.871C127.416 125.607 125.976 126.99 124.228 126.962C122.478 126.934 121.086 125.506 121.114 123.769C121.142 122.036 122.578 120.653 124.329 120.681ZM4.84678 118.764C6.59772 118.792 7.98911 120.221 7.96131 121.954C7.93345 123.69 6.49694 125.073 4.74599 125.045C2.99871 125.017 1.60366 123.589 1.63152 121.852C1.65932 120.119 3.09949 118.736 4.84678 118.764ZM44.593 119.402C46.3439 119.43 47.7353 120.859 47.7075 122.591C47.6796 124.328 46.2431 125.711 44.4922 125.683C42.7412 125.655 41.3498 124.226 41.3777 122.49C41.4055 120.757 42.842 119.374 44.593 119.402ZM24.7215 119.083C26.4688 119.111 27.8638 120.54 27.836 122.273C27.8082 124.009 26.368 125.392 24.6207 125.364C22.8698 125.336 21.4784 123.907 21.5063 122.171C21.5341 120.438 22.9706 119.055 24.7215 119.083ZM144.524 100.831C146.275 100.859 147.667 102.288 147.639 104.021C147.611 105.757 146.174 107.141 144.424 107.112C142.673 107.084 141.281 105.656 141.309 103.919C141.337 102.186 142.773 100.803 144.524 100.831ZM5.17039 98.5953C6.92134 98.6234 8.31273 100.052 8.28492 101.785C8.25706 103.521 6.82055 104.905 5.06961 104.876C3.32232 104.848 1.92727 103.42 1.95513 101.683C1.98294 99.9504 3.4231 98.5672 5.17039 98.5953ZM124.653 100.512C126.4 100.54 127.795 101.969 127.767 103.702C127.74 105.438 126.299 106.822 124.552 106.794C122.801 106.765 121.41 105.337 121.438 103.6C121.465 101.868 122.902 100.484 124.653 100.512ZM44.9166 99.233C46.6675 99.2611 48.0589 100.69 48.0311 102.423C48.0032 104.159 46.5667 105.542 44.8158 105.514C43.0648 105.486 41.6734 104.057 41.7013 102.321C41.7291 100.588 43.1656 99.2049 44.9166 99.233ZM164.396 101.15C166.147 101.178 167.538 102.607 167.51 104.34C167.482 106.076 166.046 107.459 164.295 107.431C162.544 107.403 161.153 105.975 161.18 104.238C161.208 102.505 162.645 101.122 164.396 101.15ZM84.9063 99.8746C86.6573 99.9027 88.0487 101.331 88.0209 103.064C87.993 104.801 86.5565 106.184 84.8055 106.156C83.0546 106.128 81.6632 104.699 81.6911 102.963C81.7189 101.23 83.1554 99.8465 84.9063 99.8746ZM65.0349 99.5558C66.7858 99.5839 68.1772 101.012 68.1494 102.745C68.1216 104.482 66.6851 105.865 64.9341 105.837C63.1832 105.809 61.7918 104.38 61.8196 102.644C61.8474 100.911 63.2839 99.5277 65.0349 99.5558ZM104.778 100.193C106.529 100.222 107.92 101.65 107.892 103.383C107.864 105.12 106.428 106.503 104.677 106.475C102.93 106.447 101.535 105.018 101.563 103.281C101.59 101.549 103.03 100.165 104.778 100.193ZM25.0451 98.9142C26.7924 98.9422 28.1875 100.371 28.1597 102.104C28.1318 103.84 26.6916 105.223 24.9443 105.195C23.1934 105.167 21.802 103.739 21.8299 102.002C21.8577 100.269 23.2942 98.8861 25.0451 98.9142ZM25.3614 79.2031C27.1087 79.2311 28.5037 80.6634 28.4759 82.3926C28.4481 84.1291 27.0079 85.5123 25.2606 85.4843C23.5097 85.4562 22.1183 84.0276 22.1461 82.2911C22.1739 80.5618 23.6104 79.175 25.3614 79.2031ZM164.712 81.439C166.463 81.4671 167.854 82.8993 167.827 84.6286C167.799 86.365 166.362 87.7483 164.611 87.7202C162.86 87.6921 161.469 86.2635 161.497 84.527C161.525 82.7978 162.961 81.4109 164.712 81.439ZM105.094 80.4824C106.845 80.5105 108.236 81.9427 108.209 83.672C108.181 85.4085 106.744 86.7917 104.993 86.7636C103.246 86.7356 101.851 85.3069 101.879 83.5704C101.907 81.8412 103.347 80.4544 105.094 80.4824ZM144.841 81.1202C146.592 81.1482 147.983 82.5805 147.955 84.3097C147.927 86.0462 146.491 87.4294 144.74 87.4013C142.989 87.3732 141.597 85.9446 141.625 84.2081C141.653 82.4789 143.09 81.0921 144.841 81.1202ZM124.969 80.8013C126.716 80.8293 128.111 82.2616 128.084 83.9909C128.056 85.7274 126.616 87.1105 124.868 87.0825C123.117 87.0544 121.726 85.6258 121.754 83.8893C121.782 82.1601 123.218 80.7732 124.969 80.8013ZM65.3512 79.8447C67.1021 79.8728 68.4934 81.3051 68.4657 83.0343C68.4378 84.7708 67.0013 86.154 65.2504 86.1259C63.4994 86.0978 62.108 84.6692 62.1359 82.9327C62.1636 81.2035 63.6002 79.8166 65.3512 79.8447ZM5.48666 78.8842C7.23761 78.9123 8.62894 80.3445 8.60119 82.0737C8.57333 83.8102 7.13682 85.1935 5.38587 85.1654C3.63859 85.1373 2.24354 83.7087 2.2714 81.9722C2.29915 80.243 3.73937 78.8562 5.48666 78.8842ZM85.2226 80.1636C86.9735 80.1917 88.3649 81.6239 88.3371 83.3531C88.3093 85.0896 86.8728 86.4728 85.1218 86.4447C83.3709 86.4167 81.9795 84.9881 82.0073 83.2516C82.0351 81.5223 83.4717 80.1355 85.2226 80.1636ZM45.2328 79.5219C46.9838 79.55 48.3751 80.9823 48.3474 82.7115C48.3195 84.448 46.883 85.8312 45.132 85.8031C43.3811 85.775 41.9897 84.3464 42.0176 82.6099C42.0453 80.8807 43.4819 79.4938 45.2328 79.5219ZM25.6776 59.4956C27.4249 59.5237 28.8199 60.9523 28.7921 62.6852C28.7643 64.4217 27.3241 65.8049 25.5768 65.7768C23.8259 65.7487 22.4345 64.3201 22.4623 62.5836C22.4902 60.8508 23.9267 59.4675 25.6776 59.4956ZM165.028 61.7316C166.779 61.7596 168.171 63.1882 168.143 64.9211C168.115 66.6576 166.678 68.0408 164.927 68.0127C163.176 67.9846 161.785 66.556 161.813 64.8195C161.841 63.0867 163.277 61.7035 165.028 61.7316ZM45.549 59.8145C47.3 59.8426 48.6914 61.2712 48.6636 63.004C48.6357 64.7405 47.1992 66.1238 45.4483 66.0957C43.6973 66.0676 42.3059 64.639 42.3338 62.9025C42.3616 61.1696 43.7981 59.7864 45.549 59.8145ZM145.157 61.4127C146.908 61.4408 148.299 62.8694 148.271 64.6023C148.243 66.3388 146.807 67.722 145.056 67.6939C143.305 67.6658 141.914 66.2372 141.942 64.5007C141.969 62.7678 143.406 61.3846 145.157 61.4127ZM85.5388 60.4561C87.2898 60.4842 88.6812 61.9128 88.6533 63.6457C88.6255 65.3822 87.189 66.7654 85.438 66.7373C83.6871 66.7092 82.2957 65.2806 82.3235 63.5441C82.3514 61.8113 83.7879 60.428 85.5388 60.4561ZM105.41 60.775C107.161 60.8031 108.553 62.2317 108.525 63.9645C108.497 65.701 107.06 67.0842 105.309 67.0562C103.562 67.0281 102.167 65.5995 102.195 63.863C102.223 62.1301 103.663 60.7469 105.41 60.775ZM125.285 61.0939C127.033 61.1219 128.428 62.5506 128.4 64.2834C128.372 66.0199 126.932 67.4031 125.185 67.3751C123.434 67.347 122.042 65.9184 122.07 64.1819C122.098 62.449 123.534 61.0658 125.285 61.0939ZM5.80287 59.1767C7.55382 59.2048 8.94521 60.6334 8.9174 62.3663C8.88954 64.1028 7.45303 65.486 5.70208 65.4579C3.9548 65.4299 2.55975 64.0012 2.58761 62.2647C2.61542 60.5319 4.05558 59.1487 5.80287 59.1767ZM65.6674 60.1373C67.4183 60.1654 68.8097 61.594 68.7819 63.3268C68.754 65.0633 67.3175 66.4466 65.5666 66.4185C63.8156 66.3904 62.4243 64.9618 62.4521 63.2253C62.4799 61.4924 63.9164 60.1092 65.6674 60.1373ZM6.11908 39.4693C7.87003 39.4974 9.26142 40.926 9.23361 42.6589C9.20581 44.3917 7.76924 45.7786 6.01829 45.7505C4.27101 45.7224 2.87602 44.2902 2.90382 42.5573C2.93163 40.8244 4.37179 39.4413 6.11908 39.4693ZM125.602 41.3864C127.349 41.4145 128.744 42.8431 128.716 44.576C128.688 46.3088 127.248 47.6956 125.501 47.6676C123.75 47.6395 122.358 46.2073 122.386 44.4744C122.414 42.7416 123.851 41.3583 125.602 41.3864ZM65.9836 40.4298C67.7345 40.4579 69.1259 41.8865 69.0981 43.6194C69.0703 45.3523 67.6338 46.7391 65.8828 46.711C64.1319 46.6829 62.7405 45.2507 62.7683 43.5178C62.7961 41.785 64.2326 40.4017 65.9836 40.4298ZM45.8653 40.107C47.6162 40.1351 49.0076 41.5637 48.9798 43.2966C48.952 45.0295 47.5154 46.4163 45.7645 46.3882C44.0135 46.3601 42.6222 44.9279 42.65 43.195C42.6778 41.4622 44.1143 40.0789 45.8653 40.107ZM105.726 41.0675C107.477 41.0956 108.869 42.5242 108.841 44.2571C108.813 45.9899 107.377 47.3768 105.626 47.3487C103.878 47.3207 102.483 45.8884 102.511 44.1555C102.539 42.4227 103.979 41.0395 105.726 41.0675ZM25.9938 39.7882C27.7411 39.8162 29.1362 41.2449 29.1083 42.9778C29.0805 44.7106 27.6403 46.0974 25.893 46.0694C24.1421 46.0413 22.7508 44.6091 22.7786 42.8762C22.8064 41.1433 24.2429 39.7601 25.9938 39.7882ZM85.855 40.7487C87.606 40.7768 88.9974 42.2054 88.9696 43.9382C88.9418 45.6711 87.5052 47.058 85.7542 47.0299C84.0033 47.0018 82.612 45.5695 82.6398 43.8367C82.6676 42.1038 84.1041 40.7206 85.855 40.7487ZM145.473 41.7053C147.224 41.7334 148.615 43.162 148.588 44.8948C148.56 46.6277 147.123 48.0145 145.372 47.9864C143.621 47.9584 142.23 46.5261 142.258 44.7933C142.286 43.0604 143.722 41.6772 145.473 41.7053ZM165.344 42.0241C167.095 42.0522 168.487 43.4808 168.459 45.2137C168.431 46.9465 166.995 48.3334 165.244 48.3053C163.493 48.2772 162.101 46.845 162.129 45.1121C162.157 43.3792 163.593 41.996 165.344 42.0241ZM125.918 21.6753C127.665 21.7034 129.06 23.132 129.032 24.8649C129.005 26.6014 127.564 27.9846 125.817 27.9565C124.066 27.9284 122.675 26.4998 122.703 24.7633C122.73 23.0305 124.167 21.6473 125.918 21.6753ZM165.661 22.313C167.412 22.3411 168.803 23.7697 168.775 25.5026C168.747 27.2391 167.311 28.6223 165.56 28.5942C163.809 28.5661 162.418 27.1375 162.445 25.401C162.473 23.6682 163.91 22.2849 165.661 22.313ZM26.3101 20.0771C28.0574 20.1052 29.4524 21.5338 29.4246 23.2667C29.3968 25.0032 27.9566 26.3863 26.2093 26.3583C24.4584 26.3302 23.067 24.9016 23.0948 23.1651C23.1226 21.4322 24.5591 20.049 26.3101 20.0771ZM145.789 21.9942C147.54 22.0223 148.932 23.4509 148.904 25.1837C148.876 26.9202 147.439 28.3035 145.688 28.2754C143.938 28.2473 142.546 26.8187 142.574 25.0822C142.602 23.3493 144.038 21.9661 145.789 21.9942ZM66.2999 20.7188C68.0508 20.7469 69.4422 22.1755 69.4144 23.9083C69.3865 25.6448 67.95 27.028 66.1991 26.9999C64.4481 26.9719 63.0567 25.5433 63.0846 23.8068C63.1124 22.0739 64.5489 20.6907 66.2999 20.7188ZM106.043 21.3564C107.794 21.3845 109.185 22.8131 109.157 24.546C109.129 26.2825 107.693 27.6657 105.942 27.6376C104.195 27.6096 102.8 26.1809 102.827 24.4444C102.855 22.7116 104.295 21.3284 106.043 21.3564ZM86.1713 21.0376C87.9222 21.0657 89.3136 22.4943 89.2858 24.2272C89.258 25.9637 87.8215 27.3469 86.0705 27.3188C84.3196 27.2907 82.9282 25.8621 82.956 24.1256C82.9838 22.3927 84.4203 21.0095 86.1713 21.0376ZM6.43535 19.7582C8.1863 19.7863 9.57768 21.2149 9.54988 22.9478C9.52202 24.6843 8.08551 26.0675 6.33456 26.0394C4.58728 26.0114 3.19223 24.5827 3.22009 22.8462C3.24789 21.1134 4.68806 19.7302 6.43535 19.7582ZM46.1815 20.396C47.9325 20.4241 49.3239 21.8527 49.2961 23.5855C49.2682 25.322 47.8317 26.7052 46.0807 26.6771C44.3298 26.6491 42.9384 25.2205 42.9663 23.484C42.9941 21.7511 44.4306 20.3679 46.1815 20.396ZM126.234 1.9679C127.981 1.99594 129.376 3.42459 129.349 5.15746C129.321 6.89396 127.881 8.27712 126.133 8.24909C124.382 8.22099 122.991 6.7924 123.019 5.0559C123.047 3.32303 124.483 1.93981 126.234 1.9679ZM165.977 2.60559C167.728 2.63368 169.119 4.06228 169.091 5.79514C169.064 7.53164 167.627 8.91487 165.876 8.88677C164.125 8.85868 162.734 7.43008 162.762 5.69358C162.789 3.96071 164.226 2.57749 165.977 2.60559ZM146.105 2.28675C147.856 2.31484 149.248 3.74344 149.22 5.4763C149.192 7.2128 147.756 8.59602 146.005 8.56793C144.254 8.53984 142.862 7.11124 142.89 5.37474C142.918 3.64187 144.355 2.25865 146.105 2.28675ZM66.6161 1.01132C68.367 1.03941 69.7584 2.46801 69.7306 4.20088C69.7027 5.93738 68.2662 7.3206 66.5153 7.2925C64.7643 7.26441 63.3729 5.83581 63.4008 4.09931C63.4286 2.36645 64.8651 0.983226 66.6161 1.01132ZM106.359 1.649C108.11 1.6771 109.501 3.10569 109.473 4.83856C109.446 6.57506 108.009 7.95828 106.258 7.93019C104.511 7.90215 103.116 6.4735 103.144 4.737C103.171 3.00413 104.612 1.62097 106.359 1.649ZM86.4875 1.33016C88.2384 1.35826 89.6298 2.78685 89.602 4.51972C89.5742 6.25622 88.1377 7.63944 86.3867 7.61135C84.6358 7.58325 83.2444 6.15465 83.2722 4.41816C83.3 2.68529 84.7365 1.30207 86.4875 1.33016ZM6.75156 0.0507814C8.50251 0.0788758 9.89389 1.50747 9.86609 3.24034C9.83823 4.97684 8.40172 6.36006 6.65077 6.33197C4.90349 6.30393 3.50844 4.87527 3.5363 3.13877C3.5641 1.40591 5.00427 0.0227458 6.75156 0.0507814ZM46.4977 0.688517C48.2487 0.716612 49.6401 2.14521 49.6123 3.87807C49.5844 5.61457 48.1479 6.9978 46.3969 6.9697C44.646 6.94161 43.2546 5.51301 43.2825 3.77651C43.3103 2.04365 44.7468 0.660423 46.4977 0.688517ZM26.6263 0.369676C28.3736 0.397711 29.7686 1.82637 29.7408 3.55923C29.713 5.29573 28.2728 6.6789 26.5255 6.65086C24.7746 6.62277 23.3832 5.19417 23.411 3.45767C23.4388 1.7248 24.8753 0.341582 26.6263 0.369676Z" fill="#FFC233"/>
</svg>
